{"glyphs":{"0":{"ha":1042,"x_min":83,"x_max":958,"o":"m 521 -22 q 194 124 304 -22 q 83 556 83 269 q 194 988 83 842 q 521 1133 304 1133 q 848 988 738 1133 q 958 556 958 842 q 848 124 958 269 q 521 -22 738 -22 m 521 128 q 732 233 664 128 q 800 556 800 338 q 732 878 800 774 q 521 983 664 983 q 310 878 378 983 q 242 556 242 774 q 310 233 242 338 q 521 128 378 128 m 196 421 l 846 861 l 846 690 l 196 250 l 196 421 z "},"1":{"ha":1042,"x_min":153,"x_max":944,"o":"m 644 1111 l 644 150 l 944 150 l 944 0 l 153 0 l 153 150 l 486 150 l 486 1050 l 526 1024 l 153 786 l 153 954 l 406 1111 l 644 1111 z "},"2":{"ha":1042,"x_min":131,"x_max":919,"o":"m 164 242 l 597 519 q 721 634 681 572 q 761 772 761 696 q 701 927 761 871 q 533 983 640 983 q 373 928 435 983 q 288 772 311 874 l 131 772 q 192 963 136 882 q 337 1089 247 1044 q 533 1133 426 1133 q 737 1088 650 1133 q 872 962 824 1043 q 919 772 919 881 q 858 563 919 658 q 678 394 797 468 l 300 164 l 300 150 l 897 150 l 897 0 l 164 0 l 164 242 z "},"3":{"ha":1042,"x_min":118,"x_max":924,"o":"m 918 297 q 868 131 918 203 q 732 18 818 58 q 535 -22 646 -22 q 322 19 413 -22 q 181 140 232 61 q 126 325 131 218 l 282 325 q 363 179 296 231 q 532 128 431 128 q 649 150 599 128 q 728 213 700 172 q 757 306 757 253 q 699 440 757 389 q 546 492 642 492 l 396 492 l 396 639 l 546 639 q 705 685 644 639 q 765 807 765 732 q 702 934 765 885 q 536 983 639 983 q 363 928 431 983 q 274 772 294 874 l 118 772 q 178 965 125 885 q 324 1090 232 1046 q 539 1133 415 1133 q 740 1094 653 1133 q 875 985 826 1056 q 924 815 924 914 q 872 663 924 726 q 738 581 821 600 l 738 558 q 869 467 819 536 q 918 297 918 397 z "},"4":{"ha":1042,"x_min":76,"x_max":965,"o":"m 790 1111 l 790 472 l 965 472 l 965 322 l 790 322 l 790 0 l 632 0 l 632 322 l 76 322 l 76 538 l 504 1111 l 790 1111 m 215 488 l 215 472 l 632 472 l 632 1100 l 676 1100 l 215 488 z "},"5":{"ha":1042,"x_min":136,"x_max":931,"o":"m 178 1111 l 908 1111 l 908 961 l 274 961 l 336 1021 l 336 675 l 378 675 q 460 722 407 704 q 572 739 514 739 q 758 692 678 739 q 885 563 839 646 q 931 367 931 479 q 880 167 931 254 q 741 28 829 79 q 539 -22 653 -22 q 264 63 371 -22 q 136 297 157 149 l 294 297 q 382 172 322 217 q 536 128 442 128 q 660 158 607 128 q 743 242 714 188 q 772 367 772 296 q 744 490 772 439 q 663 569 715 542 q 539 597 611 597 q 408 567 464 597 q 322 481 351 538 l 178 481 l 178 1111 z "},"6":{"ha":1042,"x_min":111,"x_max":931,"o":"m 521 -22 q 310 26 403 -22 q 164 160 217 75 q 111 356 111 246 q 148 533 111 443 q 267 731 185 622 l 554 1111 l 736 1111 l 449 738 l 469 715 q 508 722 488 719 q 549 725 528 725 q 746 677 660 725 q 881 546 832 629 q 931 356 931 463 q 878 160 931 246 q 733 26 825 75 q 521 -22 640 -22 m 269 356 q 301 238 269 289 q 390 157 333 186 q 521 128 446 128 q 653 157 596 128 q 741 238 710 186 q 772 356 772 289 q 741 474 772 424 q 653 554 710 525 q 521 583 596 583 q 390 554 446 583 q 301 474 333 525 q 269 356 269 424 z "},"7":{"ha":1042,"x_min":139,"x_max":875,"o":"m 875 850 l 439 0 l 264 0 l 758 947 l 758 961 l 139 961 l 139 1111 l 875 1111 l 875 850 z "},"8":{"ha":1042,"x_min":115,"x_max":926,"o":"m 521 639 q 706 685 639 639 q 774 811 774 731 q 706 938 774 892 q 521 983 639 983 q 335 938 403 983 q 268 811 268 892 q 335 685 268 731 q 521 639 403 639 m 115 819 q 166 985 115 914 q 308 1094 217 1056 q 521 1133 400 1133 q 734 1094 643 1133 q 876 985 825 1056 q 926 819 926 914 q 875 667 926 732 q 740 583 824 603 l 740 561 q 873 469 822 540 q 924 303 924 399 q 873 133 924 206 q 732 19 822 60 q 521 -22 642 -22 q 309 19 400 -22 q 168 133 218 60 q 118 303 118 206 q 169 469 118 399 q 301 561 219 540 l 301 583 q 167 667 218 603 q 115 819 115 732 m 276 311 q 342 177 276 226 q 521 128 407 128 q 700 177 635 128 q 765 311 765 226 q 700 446 765 397 q 521 494 635 494 q 342 446 407 494 q 276 311 276 397 z "},"9":{"ha":1042,"x_min":111,"x_max":931,"o":"m 521 1133 q 733 1085 640 1133 q 878 951 825 1036 q 931 756 931 865 q 894 578 931 668 q 775 381 857 489 l 488 0 l 306 0 l 593 374 l 572 396 q 534 389 554 392 q 493 386 514 386 q 296 434 382 386 q 160 565 210 482 q 111 756 111 649 q 164 951 111 865 q 310 1085 217 1036 q 521 1133 403 1133 m 772 756 q 741 874 772 824 q 653 954 710 925 q 521 983 596 983 q 390 954 446 983 q 301 874 333 925 q 269 756 269 824 q 301 638 269 689 q 390 557 333 586 q 521 528 446 528 q 653 557 596 528 q 741 638 710 586 q 772 756 772 689 z "},"A":{"ha":1042,"x_min":78,"x_max":964,"o":"m 78 0 l 392 1111 l 650 1111 l 964 0 l 797 0 l 524 989 l 510 989 l 235 0 l 78 0 m 257 376 l 257 526 l 785 526 l 785 376 l 257 376 z "},"Á":{"ha":1042,"x_min":78,"x_max":964,"o":"m 78 0 l 392 1111 l 650 1111 l 964 0 l 797 0 l 524 989 l 510 989 l 235 0 l 78 0 m 257 376 l 257 526 l 785 526 l 785 376 l 257 376 m 451 1236 l 596 1444 l 776 1444 l 590 1236 l 451 1236 z "},"Ă":{"ha":1042,"x_min":78,"x_max":964,"o":"m 78 0 l 392 1111 l 650 1111 l 964 0 l 797 0 l 524 989 l 510 989 l 235 0 l 78 0 m 257 376 l 257 526 l 785 526 l 785 376 l 257 376 m 407 1431 q 440 1353 411 1379 q 521 1328 469 1328 q 602 1353 574 1328 q 635 1431 631 1379 l 774 1431 q 701 1275 764 1328 q 521 1222 638 1222 q 341 1275 404 1222 q 268 1431 278 1328 l 407 1431 z "},"Ǎ":{"ha":1042,"x_min":78,"x_max":964,"o":"m 78 0 l 392 1111 l 650 1111 l 964 0 l 797 0 l 524 989 l 510 989 l 235 0 l 78 0 m 257 376 l 257 526 l 785 526 l 785 376 l 257 376 m 761 1444 l 617 1236 l 425 1236 l 281 1444 l 419 1444 l 567 1279 l 475 1279 l 622 1444 l 761 1444 z "},"Â":{"ha":1042,"x_min":78,"x_max":964,"o":"m 78 0 l 392 1111 l 650 1111 l 964 0 l 797 0 l 524 989 l 510 989 l 235 0 l 78 0 m 257 376 l 257 526 l 785 526 l 785 376 l 257 376 m 281 1236 l 425 1444 l 617 1444 l 761 1236 l 622 1236 l 475 1401 l 567 1401 l 419 1236 l 281 1236 z "},"Ä":{"ha":1042,"x_min":78,"x_max":964,"o":"m 78 0 l 392 1111 l 650 1111 l 964 0 l 797 0 l 524 989 l 510 989 l 235 0 l 78 0 m 257 376 l 257 526 l 785 526 l 785 376 l 257 376 m 339 1250 q 258 1276 288 1250 q 228 1347 228 1303 q 258 1418 228 1392 q 339 1444 288 1444 q 421 1418 392 1444 q 450 1347 450 1392 q 421 1276 450 1303 q 339 1250 392 1250 m 703 1250 q 622 1276 651 1250 q 592 1347 592 1303 q 622 1418 592 1392 q 703 1444 651 1444 q 785 1418 756 1444 q 814 1347 814 1392 q 785 1276 814 1303 q 703 1250 756 1250 z "},"À":{"ha":1042,"x_min":78,"x_max":964,"o":"m 78 0 l 392 1111 l 650 1111 l 964 0 l 797 0 l 524 989 l 510 989 l 235 0 l 78 0 m 257 376 l 257 526 l 785 526 l 785 376 l 257 376 m 590 1236 l 451 1236 l 265 1444 l 446 1444 l 590 1236 z "},"Ā":{"ha":1042,"x_min":78,"x_max":964,"o":"m 78 0 l 392 1111 l 650 1111 l 964 0 l 797 0 l 524 989 l 510 989 l 235 0 l 78 0 m 257 376 l 257 526 l 785 526 l 785 376 l 257 376 m 285 1278 l 285 1403 l 757 1403 l 757 1278 l 285 1278 z "},"Ą":{"ha":1042,"x_min":78,"x_max":964,"o":"m 78 0 l 392 1111 l 650 1111 l 964 0 l 797 0 l 524 989 l 510 989 l 235 0 l 78 0 m 257 376 l 257 526 l 785 526 l 785 376 l 257 376 m 886 -300 q 758 -264 806 -300 q 711 -164 711 -228 q 740 -74 711 -118 q 817 0 768 -31 l 886 3 l 964 0 q 881 -60 911 -25 q 850 -131 850 -94 q 868 -173 850 -157 q 917 -189 886 -189 q 942 -187 932 -189 q 964 -183 951 -186 l 964 -292 q 929 -298 947 -296 q 886 -300 911 -300 z "},"Å":{"ha":1042,"x_min":78,"x_max":964,"o":"m 78 0 l 392 1111 l 650 1111 l 964 0 l 797 0 l 524 989 l 510 989 l 235 0 l 78 0 m 257 376 l 257 526 l 785 526 l 785 376 l 257 376 m 521 1206 q 390 1247 440 1206 q 340 1354 340 1288 q 390 1462 340 1421 q 521 1503 440 1503 q 651 1462 601 1503 q 701 1354 701 1421 q 651 1247 701 1288 q 521 1206 601 1206 m 521 1283 q 583 1303 560 1283 q 607 1354 607 1324 q 583 1406 607 1386 q 521 1425 560 1425 q 458 1406 482 1425 q 435 1354 435 1386 q 458 1303 435 1324 q 521 1283 482 1283 z "},"Ǻ":{"ha":1042,"x_min":78,"x_max":964,"o":"m 78 0 l 392 1111 l 650 1111 l 964 0 l 797 0 l 524 989 l 510 989 l 235 0 l 78 0 m 257 376 l 257 526 l 785 526 l 785 376 l 257 376 m 521 1147 q 402 1174 444 1147 q 360 1250 360 1201 q 402 1326 360 1299 q 521 1353 444 1353 q 640 1326 599 1353 q 682 1250 682 1299 q 640 1174 682 1201 q 521 1147 599 1147 m 521 1217 q 588 1250 588 1217 q 521 1283 588 1283 q 454 1250 454 1283 q 521 1217 454 1217 m 454 1389 l 543 1503 l 710 1503 l 579 1389 l 454 1389 z "},"Ã":{"ha":1042,"x_min":78,"x_max":964,"o":"m 78 0 l 392 1111 l 650 1111 l 964 0 l 797 0 l 524 989 l 510 989 l 235 0 l 78 0 m 257 376 l 257 526 l 785 526 l 785 376 l 257 376 m 260 1236 q 308 1391 269 1343 q 421 1439 346 1439 q 510 1422 476 1439 q 569 1387 544 1404 q 621 1369 593 1369 q 650 1388 640 1369 q 665 1444 660 1406 l 782 1444 q 734 1290 772 1339 q 621 1242 696 1242 q 531 1259 565 1242 q 473 1294 497 1276 q 421 1311 449 1311 q 392 1294 403 1311 q 376 1236 382 1276 l 260 1236 z "},"Æ":{"ha":1042,"x_min":21,"x_max":986,"o":"m 528 0 l 528 376 l 271 376 l 271 515 l 528 515 l 528 961 l 478 961 l 182 0 l 21 0 l 371 1111 l 986 1111 l 986 961 l 686 961 l 686 629 l 931 629 l 931 490 l 686 490 l 686 150 l 972 150 l 972 0 l 528 0 z "},"Ǽ":{"ha":1042,"x_min":21,"x_max":986,"o":"m 528 0 l 528 376 l 271 376 l 271 515 l 528 515 l 528 961 l 478 961 l 182 0 l 21 0 l 371 1111 l 986 1111 l 986 961 l 686 961 l 686 629 l 931 629 l 931 490 l 686 490 l 686 150 l 972 150 l 972 0 l 528 0 m 525 1236 l 669 1444 l 850 1444 l 664 1236 l 525 1236 z "},"B":{"ha":1042,"x_min":181,"x_max":944,"o":"m 181 0 l 181 1111 l 550 1111 q 824 1030 724 1111 q 925 808 925 949 q 883 669 925 728 q 764 586 840 610 l 764 564 q 897 470 850 538 q 944 308 944 403 q 839 83 944 165 q 550 0 733 0 l 181 0 m 339 147 l 550 147 q 726 192 665 147 q 786 319 786 238 q 726 447 786 401 q 550 492 665 492 l 339 492 l 339 147 m 339 631 l 550 631 q 715 674 658 631 q 772 797 772 717 q 715 921 772 878 q 550 964 658 964 l 339 964 l 339 631 z "},"C":{"ha":1042,"x_min":117,"x_max":964,"o":"m 549 -22 q 226 123 335 -22 q 117 556 117 268 q 228 988 117 843 q 563 1133 340 1133 q 767 1085 681 1133 q 905 944 854 1036 q 964 722 956 851 l 817 722 q 731 915 796 846 q 563 983 665 983 q 345 878 415 983 q 275 556 275 774 q 342 233 275 338 q 549 128 408 128 q 709 192 647 128 q 789 369 771 256 l 936 369 q 879 159 928 247 q 747 24 831 71 q 549 -22 663 -22 z "},"Ć":{"ha":1042,"x_min":117,"x_max":964,"o":"m 549 -22 q 226 123 335 -22 q 117 556 117 268 q 228 988 117 843 q 563 1133 340 1133 q 767 1085 681 1133 q 905 944 854 1036 q 964 722 956 851 l 817 722 q 731 915 796 846 q 563 983 665 983 q 345 878 415 983 q 275 556 275 774 q 342 233 275 338 q 549 128 408 128 q 709 192 647 128 q 789 369 771 256 l 936 369 q 879 159 928 247 q 747 24 831 71 q 549 -22 663 -22 m 447 1236 l 592 1444 l 772 1444 l 586 1236 l 447 1236 z "},"Č":{"ha":1042,"x_min":117,"x_max":964,"o":"m 549 -22 q 226 123 335 -22 q 117 556 117 268 q 228 988 117 843 q 563 1133 340 1133 q 767 1085 681 1133 q 905 944 854 1036 q 964 722 956 851 l 817 722 q 731 915 796 846 q 563 983 665 983 q 345 878 415 983 q 275 556 275 774 q 342 233 275 338 q 549 128 408 128 q 709 192 647 128 q 789 369 771 256 l 936 369 q 879 159 928 247 q 747 24 831 71 q 549 -22 663 -22 m 801 1444 l 657 1236 l 465 1236 l 321 1444 l 460 1444 l 607 1279 l 515 1279 l 663 1444 l 801 1444 z "},"Ç":{"ha":1042,"x_min":117,"x_max":964,"o":"m 549 -22 q 226 123 335 -22 q 117 556 117 268 q 228 988 117 843 q 563 1133 340 1133 q 767 1085 681 1133 q 905 944 854 1036 q 964 722 956 851 l 817 722 q 731 915 796 846 q 563 983 665 983 q 345 878 415 983 q 275 556 275 774 q 342 233 275 338 q 549 128 408 128 q 709 192 647 128 q 789 369 771 256 l 936 369 q 879 159 928 247 q 747 24 831 71 q 549 -22 663 -22 m 526 28 l 649 28 l 624 -53 q 715 -92 683 -61 q 746 -169 746 -122 q 694 -265 746 -231 q 551 -300 643 -300 q 417 -267 467 -300 q 363 -175 367 -235 l 479 -175 q 506 -201 486 -192 q 554 -211 525 -211 q 597 -199 582 -211 q 613 -168 613 -187 q 598 -136 613 -149 q 556 -122 583 -124 l 490 -117 l 526 28 z "},"Ċ":{"ha":1042,"x_min":117,"x_max":964,"o":"m 549 -22 q 226 123 335 -22 q 117 556 117 268 q 228 988 117 843 q 563 1133 340 1133 q 767 1085 681 1133 q 905 944 854 1036 q 964 722 956 851 l 817 722 q 731 915 796 846 q 563 983 665 983 q 345 878 415 983 q 275 556 275 774 q 342 233 275 338 q 549 128 408 128 q 709 192 647 128 q 789 369 771 256 l 936 369 q 879 159 928 247 q 747 24 831 71 q 549 -22 663 -22 m 561 1239 q 472 1267 504 1239 q 439 1347 439 1296 q 472 1427 439 1399 q 561 1456 504 1456 q 651 1427 618 1456 q 683 1347 683 1399 q 651 1267 683 1296 q 561 1239 618 1239 z "},"D":{"ha":1042,"x_min":139,"x_max":958,"o":"m 139 0 l 139 1111 l 472 1111 q 835 970 713 1111 q 958 556 958 829 q 835 142 958 283 q 472 0 713 0 l 139 0 m 297 150 l 472 150 q 717 252 635 150 q 800 556 800 354 q 717 860 800 758 q 472 961 635 961 l 297 961 l 297 150 z "},"Ð":{"ha":1042,"x_min":56,"x_max":958,"o":"m 56 482 l 56 629 l 472 629 l 472 482 l 56 482 m 139 0 l 139 1111 l 472 1111 q 835 970 713 1111 q 958 556 958 829 q 835 142 958 283 q 472 0 713 0 l 139 0 m 297 150 l 472 150 q 717 252 635 150 q 800 556 800 354 q 717 860 800 758 q 472 961 635 961 l 297 961 l 297 150 z "},"Ď":{"ha":1042,"x_min":139,"x_max":958,"o":"m 139 0 l 139 1111 l 472 1111 q 835 970 713 1111 q 958 556 958 829 q 835 142 958 283 q 472 0 713 0 l 139 0 m 297 150 l 472 150 q 717 252 635 150 q 800 556 800 354 q 717 860 800 758 q 472 961 635 961 l 297 961 l 297 150 m 733 1444 l 589 1236 l 397 1236 l 253 1444 l 392 1444 l 539 1279 l 447 1279 l 594 1444 l 733 1444 z "},"Đ":{"ha":1042,"x_min":56,"x_max":958,"o":"m 56 482 l 56 629 l 472 629 l 472 482 l 56 482 m 139 0 l 139 1111 l 472 1111 q 835 970 713 1111 q 958 556 958 829 q 835 142 958 283 q 472 0 713 0 l 139 0 m 297 150 l 472 150 q 717 252 635 150 q 800 556 800 354 q 717 860 800 758 q 472 961 635 961 l 297 961 l 297 150 z "},"Ḍ":{"ha":1042,"x_min":139,"x_max":958,"o":"m 139 0 l 139 1111 l 472 1111 q 835 970 713 1111 q 958 556 958 829 q 835 142 958 283 q 472 0 713 0 l 139 0 m 297 150 l 472 150 q 717 252 635 150 q 800 556 800 354 q 717 860 800 758 q 472 961 635 961 l 297 961 l 297 150 m 493 -344 q 403 -316 436 -344 q 371 -236 371 -287 q 403 -156 371 -185 q 493 -128 436 -128 q 583 -156 550 -128 q 615 -236 615 -185 q 583 -316 615 -287 q 493 -344 550 -344 z "},"E":{"ha":1042,"x_min":208,"x_max":917,"o":"m 208 0 l 208 1111 l 917 1111 l 917 961 l 367 961 l 367 629 l 847 629 l 847 490 l 367 490 l 367 150 l 903 150 l 903 0 l 208 0 z "},"É":{"ha":1042,"x_min":208,"x_max":917,"o":"m 208 0 l 208 1111 l 917 1111 l 917 961 l 367 961 l 367 629 l 847 629 l 847 490 l 367 490 l 367 150 l 903 150 l 903 0 l 208 0 m 461 1236 l 606 1444 l 786 1444 l 600 1236 l 461 1236 z "},"Ě":{"ha":1042,"x_min":208,"x_max":917,"o":"m 208 0 l 208 1111 l 917 1111 l 917 961 l 367 961 l 367 629 l 847 629 l 847 490 l 367 490 l 367 150 l 903 150 l 903 0 l 208 0 m 815 1444 l 671 1236 l 479 1236 l 335 1444 l 474 1444 l 621 1279 l 529 1279 l 676 1444 l 815 1444 z "},"Ê":{"ha":1042,"x_min":208,"x_max":917,"o":"m 208 0 l 208 1111 l 917 1111 l 917 961 l 367 961 l 367 629 l 847 629 l 847 490 l 367 490 l 367 150 l 903 150 l 903 0 l 208 0 m 335 1236 l 479 1444 l 671 1444 l 815 1236 l 676 1236 l 529 1401 l 621 1401 l 474 1236 l 335 1236 z "},"Ë":{"ha":1042,"x_min":208,"x_max":917,"o":"m 208 0 l 208 1111 l 917 1111 l 917 961 l 367 961 l 367 629 l 847 629 l 847 490 l 367 490 l 367 150 l 903 150 l 903 0 l 208 0 m 393 1250 q 312 1276 342 1250 q 282 1347 282 1303 q 312 1418 282 1392 q 393 1444 342 1444 q 475 1418 446 1444 q 504 1347 504 1392 q 475 1276 504 1303 q 393 1250 446 1250 m 757 1250 q 676 1276 706 1250 q 646 1347 646 1303 q 676 1418 646 1392 q 757 1444 706 1444 q 839 1418 810 1444 q 868 1347 868 1392 q 839 1276 868 1303 q 757 1250 810 1250 z "},"Ė":{"ha":1042,"x_min":208,"x_max":917,"o":"m 208 0 l 208 1111 l 917 1111 l 917 961 l 367 961 l 367 629 l 847 629 l 847 490 l 367 490 l 367 150 l 903 150 l 903 0 l 208 0 m 575 1239 q 485 1267 518 1239 q 453 1347 453 1296 q 485 1427 453 1399 q 575 1456 518 1456 q 665 1427 632 1456 q 697 1347 697 1399 q 665 1267 697 1296 q 575 1239 632 1239 z "},"È":{"ha":1042,"x_min":208,"x_max":917,"o":"m 208 0 l 208 1111 l 917 1111 l 917 961 l 367 961 l 367 629 l 847 629 l 847 490 l 367 490 l 367 150 l 903 150 l 903 0 l 208 0 m 689 1236 l 550 1236 l 364 1444 l 544 1444 l 689 1236 z "},"Ē":{"ha":1042,"x_min":208,"x_max":917,"o":"m 208 0 l 208 1111 l 917 1111 l 917 961 l 367 961 l 367 629 l 847 629 l 847 490 l 367 490 l 367 150 l 903 150 l 903 0 l 208 0 m 339 1278 l 339 1403 l 811 1403 l 811 1278 l 339 1278 z "},"Ę":{"ha":1042,"x_min":208,"x_max":917,"o":"m 208 0 l 208 1111 l 917 1111 l 917 961 l 367 961 l 367 629 l 847 629 l 847 490 l 367 490 l 367 150 l 903 150 l 903 0 l 208 0 m 811 -300 q 683 -264 731 -300 q 636 -164 636 -228 q 665 -74 636 -118 q 742 0 693 -31 l 811 3 l 889 0 q 806 -60 836 -25 q 775 -131 775 -94 q 793 -173 775 -157 q 842 -189 811 -189 q 867 -187 857 -189 q 889 -183 876 -186 l 889 -292 q 854 -298 872 -296 q 811 -300 836 -300 z "},"Ẽ":{"ha":1042,"x_min":208,"x_max":917,"o":"m 208 0 l 208 1111 l 917 1111 l 917 961 l 367 961 l 367 629 l 847 629 l 847 490 l 367 490 l 367 150 l 903 150 l 903 0 l 208 0 m 314 1236 q 362 1391 324 1343 q 475 1439 400 1439 q 565 1422 531 1439 q 623 1387 599 1404 q 675 1369 647 1369 q 704 1388 694 1369 q 719 1444 714 1406 l 836 1444 q 788 1290 826 1339 q 675 1242 750 1242 q 585 1259 619 1242 q 527 1294 551 1276 q 475 1311 503 1311 q 447 1294 457 1311 q 431 1236 436 1276 l 314 1236 z "},"Ə":{"ha":1042,"x_min":83,"x_max":958,"o":"m 853 463 l 222 463 l 263 528 q 324 224 263 322 q 515 125 386 125 q 730 228 660 125 q 800 546 800 332 q 728 878 800 771 q 504 986 656 986 q 342 931 411 986 q 232 768 274 876 l 83 768 q 233 1038 124 943 q 504 1133 343 1133 q 844 985 729 1133 q 958 546 958 836 q 847 122 958 265 q 515 -22 735 -22 q 208 116 313 -22 q 104 525 104 254 q 106 579 104 560 q 108 604 107 599 l 853 604 l 853 463 z "},"F":{"ha":1042,"x_min":236,"x_max":944,"o":"m 236 0 l 236 1111 l 944 1111 l 944 961 l 394 961 l 394 613 l 875 613 l 875 474 l 394 474 l 394 0 l 236 0 z "},"G":{"ha":1042,"x_min":103,"x_max":949,"o":"m 503 -22 q 208 126 314 -22 q 103 556 103 274 q 215 988 103 842 q 546 1133 328 1133 q 750 1087 664 1133 q 887 955 836 1040 q 949 750 938 869 l 799 750 q 713 921 776 858 q 546 983 650 983 q 331 878 401 983 q 261 556 261 774 q 330 226 261 333 q 542 119 399 119 q 662 158 607 119 q 749 263 717 197 q 782 406 782 328 l 513 406 l 513 556 l 921 556 l 921 0 l 782 0 l 782 97 l 740 97 q 651 10 714 42 q 503 -22 588 -22 z "},"Ğ":{"ha":1042,"x_min":103,"x_max":949,"o":"m 503 -22 q 208 126 314 -22 q 103 556 103 274 q 215 988 103 842 q 546 1133 328 1133 q 750 1087 664 1133 q 887 955 836 1040 q 949 750 938 869 l 799 750 q 713 921 776 858 q 546 983 650 983 q 331 878 401 983 q 261 556 261 774 q 330 226 261 333 q 542 119 399 119 q 662 158 607 119 q 749 263 717 197 q 782 406 782 328 l 513 406 l 513 556 l 921 556 l 921 0 l 782 0 l 782 97 l 740 97 q 651 10 714 42 q 503 -22 588 -22 m 436 1431 q 469 1353 440 1379 q 550 1328 499 1328 q 631 1353 603 1328 q 664 1431 660 1379 l 803 1431 q 730 1275 793 1328 q 550 1222 667 1222 q 370 1275 433 1222 q 297 1431 307 1328 l 436 1431 z "},"Ǧ":{"ha":1042,"x_min":103,"x_max":949,"o":"m 503 -22 q 208 126 314 -22 q 103 556 103 274 q 215 988 103 842 q 546 1133 328 1133 q 750 1087 664 1133 q 887 955 836 1040 q 949 750 938 869 l 799 750 q 713 921 776 858 q 546 983 650 983 q 331 878 401 983 q 261 556 261 774 q 330 226 261 333 q 542 119 399 119 q 662 158 607 119 q 749 263 717 197 q 782 406 782 328 l 513 406 l 513 556 l 921 556 l 921 0 l 782 0 l 782 97 l 740 97 q 651 10 714 42 q 503 -22 588 -22 m 790 1444 l 646 1236 l 454 1236 l 310 1444 l 449 1444 l 596 1279 l 504 1279 l 651 1444 l 790 1444 z "},"Ģ":{"ha":1042,"x_min":103,"x_max":949,"o":"m 503 -22 q 208 126 314 -22 q 103 556 103 274 q 215 988 103 842 q 546 1133 328 1133 q 750 1087 664 1133 q 887 955 836 1040 q 949 750 938 869 l 799 750 q 713 921 776 858 q 546 983 650 983 q 331 878 401 983 q 261 556 261 774 q 330 226 261 333 q 542 119 399 119 q 662 158 607 119 q 749 263 717 197 q 782 406 782 328 l 513 406 l 513 556 l 921 556 l 921 0 l 782 0 l 782 97 l 740 97 q 651 10 714 42 q 503 -22 588 -22 m 547 -236 q 478 -215 504 -236 q 453 -160 453 -194 q 478 -104 453 -125 q 547 -83 504 -83 q 616 -104 590 -83 q 642 -160 642 -125 q 616 -215 642 -194 q 547 -236 590 -236 m 444 -347 q 521 -281 494 -314 q 547 -225 547 -247 l 547 -83 q 622 -108 596 -83 q 647 -181 647 -133 q 631 -264 647 -221 q 586 -347 615 -307 l 444 -347 z "},"Ġ":{"ha":1042,"x_min":103,"x_max":949,"o":"m 503 -22 q 208 126 314 -22 q 103 556 103 274 q 215 988 103 842 q 546 1133 328 1133 q 750 1087 664 1133 q 887 955 836 1040 q 949 750 938 869 l 799 750 q 713 921 776 858 q 546 983 650 983 q 331 878 401 983 q 261 556 261 774 q 330 226 261 333 q 542 119 399 119 q 662 158 607 119 q 749 263 717 197 q 782 406 782 328 l 513 406 l 513 556 l 921 556 l 921 0 l 782 0 l 782 97 l 740 97 q 651 10 714 42 q 503 -22 588 -22 m 550 1239 q 460 1267 493 1239 q 428 1347 428 1296 q 460 1427 428 1399 q 550 1456 493 1456 q 640 1427 607 1456 q 672 1347 672 1399 q 640 1267 672 1296 q 550 1239 607 1239 z "},"H":{"ha":1042,"x_min":139,"x_max":903,"o":"m 139 0 l 139 1111 l 297 1111 l 297 635 l 744 635 l 744 1111 l 903 1111 l 903 0 l 744 0 l 744 485 l 297 485 l 297 0 l 139 0 z "},"Ħ":{"ha":1042,"x_min":28,"x_max":1014,"o":"m 153 0 l 153 1111 l 311 1111 l 311 635 l 731 635 l 731 1111 l 889 1111 l 889 0 l 731 0 l 731 485 l 311 485 l 311 0 l 153 0 m 28 833 l 28 958 l 1014 958 l 1014 833 l 28 833 z "},"Ḥ":{"ha":1042,"x_min":139,"x_max":903,"o":"m 139 0 l 139 1111 l 297 1111 l 297 635 l 744 635 l 744 1111 l 903 1111 l 903 0 l 744 0 l 744 485 l 297 485 l 297 0 l 139 0 m 521 -344 q 431 -316 464 -344 q 399 -236 399 -287 q 431 -156 399 -185 q 521 -128 464 -128 q 610 -156 578 -128 q 643 -236 643 -185 q 610 -316 643 -287 q 521 -344 578 -344 z "},"I":{"ha":1042,"x_min":139,"x_max":903,"o":"m 139 0 l 139 150 l 442 150 l 442 961 l 139 961 l 139 1111 l 903 1111 l 903 961 l 600 961 l 600 150 l 903 150 l 903 0 l 139 0 z "},"Ĳ":{"ha":1042,"x_min":111,"x_max":931,"o":"m 111 0 l 111 1111 l 269 1111 l 269 0 l 111 0 m 547 -22 l 464 -22 l 464 128 l 547 128 q 713 190 654 128 q 772 361 772 251 l 772 1111 l 931 1111 l 931 347 q 884 149 931 232 q 752 22 838 67 q 547 -22 667 -22 z "},"Í":{"ha":1042,"x_min":139,"x_max":903,"o":"m 139 0 l 139 150 l 442 150 l 442 961 l 139 961 l 139 1111 l 903 1111 l 903 961 l 600 961 l 600 150 l 903 150 l 903 0 l 139 0 m 407 1236 l 551 1444 l 732 1444 l 546 1236 l 407 1236 z "},"Î":{"ha":1042,"x_min":139,"x_max":903,"o":"m 139 0 l 139 150 l 442 150 l 442 961 l 139 961 l 139 1111 l 903 1111 l 903 961 l 600 961 l 600 150 l 903 150 l 903 0 l 139 0 m 281 1236 l 425 1444 l 617 1444 l 761 1236 l 622 1236 l 475 1401 l 567 1401 l 419 1236 l 281 1236 z "},"Ï":{"ha":1042,"x_min":139,"x_max":903,"o":"m 139 0 l 139 150 l 442 150 l 442 961 l 139 961 l 139 1111 l 903 1111 l 903 961 l 600 961 l 600 150 l 903 150 l 903 0 l 139 0 m 339 1250 q 258 1276 288 1250 q 228 1347 228 1303 q 258 1418 228 1392 q 339 1444 288 1444 q 421 1418 392 1444 q 450 1347 450 1392 q 421 1276 450 1303 q 339 1250 392 1250 m 703 1250 q 622 1276 651 1250 q 592 1347 592 1303 q 622 1418 592 1392 q 703 1444 651 1444 q 785 1418 756 1444 q 814 1347 814 1392 q 785 1276 814 1303 q 703 1250 756 1250 z "},"İ":{"ha":1042,"x_min":139,"x_max":903,"o":"m 139 0 l 139 150 l 442 150 l 442 961 l 139 961 l 139 1111 l 903 1111 l 903 961 l 600 961 l 600 150 l 903 150 l 903 0 l 139 0 m 521 1239 q 431 1267 464 1239 q 399 1347 399 1296 q 431 1427 399 1399 q 521 1456 464 1456 q 610 1427 578 1456 q 643 1347 643 1399 q 610 1267 643 1296 q 521 1239 578 1239 z "},"Ị":{"ha":1042,"x_min":139,"x_max":903,"o":"m 139 0 l 139 150 l 442 150 l 442 961 l 139 961 l 139 1111 l 903 1111 l 903 961 l 600 961 l 600 150 l 903 150 l 903 0 l 139 0 m 521 -344 q 431 -316 464 -344 q 399 -236 399 -287 q 431 -156 399 -185 q 521 -128 464 -128 q 610 -156 578 -128 q 643 -236 643 -185 q 610 -316 643 -287 q 521 -344 578 -344 z "},"Ì":{"ha":1042,"x_min":139,"x_max":903,"o":"m 139 0 l 139 150 l 442 150 l 442 961 l 139 961 l 139 1111 l 903 1111 l 903 961 l 600 961 l 600 150 l 903 150 l 903 0 l 139 0 m 635 1236 l 496 1236 l 310 1444 l 490 1444 l 635 1236 z "},"Ī":{"ha":1042,"x_min":139,"x_max":903,"o":"m 139 0 l 139 150 l 442 150 l 442 961 l 139 961 l 139 1111 l 903 1111 l 903 961 l 600 961 l 600 150 l 903 150 l 903 0 l 139 0 m 285 1278 l 285 1403 l 757 1403 l 757 1278 l 285 1278 z "},"Į":{"ha":1042,"x_min":139,"x_max":903,"o":"m 139 0 l 139 150 l 442 150 l 442 961 l 139 961 l 139 1111 l 903 1111 l 903 961 l 600 961 l 600 150 l 903 150 l 903 0 l 139 0 m 811 -300 q 683 -264 731 -300 q 636 -164 636 -228 q 665 -74 636 -118 q 742 0 693 -31 l 811 3 l 889 0 q 806 -60 836 -25 q 775 -131 775 -94 q 793 -173 775 -157 q 842 -189 811 -189 q 867 -187 857 -189 q 889 -183 876 -186 l 889 -292 q 854 -298 872 -296 q 811 -300 836 -300 z "},"Ĩ":{"ha":1042,"x_min":139,"x_max":903,"o":"m 139 0 l 139 150 l 442 150 l 442 961 l 139 961 l 139 1111 l 903 1111 l 903 961 l 600 961 l 600 150 l 903 150 l 903 0 l 139 0 m 260 1236 q 308 1391 269 1343 q 421 1439 346 1439 q 510 1422 476 1439 q 569 1387 544 1404 q 621 1369 593 1369 q 650 1388 640 1369 q 665 1444 660 1406 l 782 1444 q 734 1290 772 1339 q 621 1242 696 1242 q 531 1259 565 1242 q 473 1294 497 1276 q 421 1311 449 1311 q 392 1294 403 1311 q 376 1236 382 1276 l 260 1236 z "},"J":{"ha":1042,"x_min":111,"x_max":875,"o":"m 492 -22 q 288 22 374 -22 q 157 149 203 67 q 111 347 111 232 l 111 486 l 267 486 l 267 361 q 326 190 267 251 q 492 128 386 128 q 658 190 599 128 q 717 361 717 251 l 717 958 l 192 958 l 192 1111 l 875 1111 l 875 347 q 828 149 875 232 q 697 22 782 67 q 492 -22 611 -22 z "},"K":{"ha":1042,"x_min":208,"x_max":969,"o":"m 208 1111 l 367 1111 l 367 0 l 208 0 l 208 1111 m 753 0 l 315 538 l 778 1111 l 969 1111 l 511 543 l 953 0 l 753 0 z "},"Ķ":{"ha":1042,"x_min":208,"x_max":969,"o":"m 208 1111 l 367 1111 l 367 0 l 208 0 l 208 1111 m 753 0 l 315 538 l 778 1111 l 969 1111 l 511 543 l 953 0 l 753 0 m 546 -236 q 477 -215 503 -236 q 451 -160 451 -194 q 477 -104 451 -125 q 546 -83 503 -83 q 615 -104 589 -83 q 640 -160 640 -125 q 615 -215 640 -194 q 546 -236 589 -236 m 443 -347 q 519 -281 493 -314 q 546 -225 546 -247 l 546 -83 q 620 -108 594 -83 q 646 -181 646 -133 q 630 -264 646 -221 q 585 -347 614 -307 l 443 -347 z "},"L":{"ha":1042,"x_min":264,"x_max":944,"o":"m 264 0 l 264 1111 l 422 1111 l 422 150 l 944 150 l 944 0 l 264 0 z "},"Ĺ":{"ha":1042,"x_min":264,"x_max":944,"o":"m 264 0 l 264 1111 l 422 1111 l 422 150 l 944 150 l 944 0 l 264 0 m 278 1236 l 422 1444 l 603 1444 l 417 1236 l 278 1236 z "},"Ľ":{"ha":1042,"x_min":264,"x_max":944,"o":"m 264 0 l 264 1111 l 422 1111 l 422 150 l 944 150 l 944 0 l 264 0 m 569 833 l 631 1111 l 783 1111 l 694 833 l 569 833 z "},"Ļ":{"ha":1042,"x_min":264,"x_max":944,"o":"m 264 0 l 264 1111 l 422 1111 l 422 150 l 944 150 l 944 0 l 264 0 m 601 -236 q 533 -215 558 -236 q 507 -160 507 -194 q 533 -104 507 -125 q 601 -83 558 -83 q 670 -104 644 -83 q 696 -160 696 -125 q 670 -215 696 -194 q 601 -236 644 -236 m 499 -347 q 575 -281 549 -314 q 601 -225 601 -247 l 601 -83 q 676 -108 650 -83 q 701 -181 701 -133 q 685 -264 701 -221 q 640 -347 669 -307 l 499 -347 z "},"Ŀ":{"ha":1042,"x_min":264,"x_max":944,"o":"m 264 0 l 264 1111 l 422 1111 l 422 150 l 944 150 l 944 0 l 264 0 m 714 425 q 613 459 649 425 q 576 556 576 493 q 613 652 576 618 q 714 686 649 686 q 815 652 779 686 q 851 556 851 618 q 815 459 851 493 q 714 425 779 425 z "},"Ł":{"ha":1042,"x_min":117,"x_max":944,"o":"m 117 331 l 117 483 l 672 789 l 672 636 l 117 331 m 264 0 l 264 1111 l 422 1111 l 422 150 l 944 150 l 944 0 l 264 0 z "},"M":{"ha":1042,"x_min":111,"x_max":931,"o":"m 111 0 l 111 1111 l 369 1111 l 518 458 l 532 458 l 681 1111 l 931 1111 l 931 0 l 783 0 l 783 694 l 789 1000 l 775 1000 l 633 375 l 408 375 l 267 1000 l 253 1000 l 258 694 l 258 0 l 111 0 z "},"N":{"ha":1042,"x_min":128,"x_max":914,"o":"m 128 0 l 128 1111 l 406 1111 l 756 97 l 769 97 l 764 347 l 764 1111 l 914 1111 l 914 0 l 636 0 l 286 1014 l 272 1014 l 278 764 l 278 0 l 128 0 z "},"Ń":{"ha":1042,"x_min":128,"x_max":914,"o":"m 128 0 l 128 1111 l 406 1111 l 756 97 l 769 97 l 764 347 l 764 1111 l 914 1111 l 914 0 l 636 0 l 286 1014 l 272 1014 l 278 764 l 278 0 l 128 0 m 407 1236 l 551 1444 l 732 1444 l 546 1236 l 407 1236 z "},"Ň":{"ha":1042,"x_min":128,"x_max":914,"o":"m 128 0 l 128 1111 l 406 1111 l 756 97 l 769 97 l 764 347 l 764 1111 l 914 1111 l 914 0 l 636 0 l 286 1014 l 272 1014 l 278 764 l 278 0 l 128 0 m 761 1444 l 617 1236 l 425 1236 l 281 1444 l 419 1444 l 567 1279 l 475 1279 l 622 1444 l 761 1444 z "},"Ņ":{"ha":1042,"x_min":128,"x_max":914,"o":"m 128 0 l 128 1111 l 406 1111 l 756 97 l 769 97 l 764 347 l 764 1111 l 914 1111 l 914 0 l 636 0 l 286 1014 l 272 1014 l 278 764 l 278 0 l 128 0 m 518 -236 q 449 -215 475 -236 q 424 -160 424 -194 q 449 -104 424 -125 q 518 -83 475 -83 q 587 -104 561 -83 q 613 -160 613 -125 q 587 -215 613 -194 q 518 -236 561 -236 m 415 -347 q 492 -281 465 -314 q 518 -225 518 -247 l 518 -83 q 592 -108 567 -83 q 618 -181 618 -133 q 602 -264 618 -221 q 557 -347 586 -307 l 415 -347 z "},"Ɲ":{"ha":1042,"x_min":-39,"x_max":914,"o":"m -39 -333 l -39 -200 l -11 -200 q 93 -165 58 -200 q 128 -60 128 -129 l 128 0 l 201 28 l 278 0 l 278 -51 q 206 -262 278 -190 q -8 -333 133 -333 l -39 -333 m 128 0 l 128 1111 l 406 1111 l 756 97 l 769 97 l 764 347 l 764 1111 l 914 1111 l 914 0 l 636 0 l 286 1014 l 272 1014 l 278 764 l 278 0 l 128 0 z "},"Ñ":{"ha":1042,"x_min":128,"x_max":914,"o":"m 128 0 l 128 1111 l 406 1111 l 756 97 l 769 97 l 764 347 l 764 1111 l 914 1111 l 914 0 l 636 0 l 286 1014 l 272 1014 l 278 764 l 278 0 l 128 0 m 260 1236 q 308 1391 269 1343 q 421 1439 346 1439 q 510 1422 476 1439 q 569 1387 544 1404 q 621 1369 593 1369 q 650 1388 640 1369 q 665 1444 660 1406 l 782 1444 q 734 1290 772 1339 q 621 1242 696 1242 q 531 1259 565 1242 q 473 1294 497 1276 q 421 1311 449 1311 q 392 1294 403 1311 q 376 1236 382 1276 l 260 1236 z "},"Ŋ":{"ha":1042,"x_min":128,"x_max":914,"o":"m 597 -333 l 597 -200 l 625 -200 q 729 -165 694 -200 q 764 -60 764 -129 l 764 0 l 838 28 l 914 0 l 914 -51 q 842 -262 914 -190 q 628 -333 769 -333 l 597 -333 m 128 0 l 128 1111 l 406 1111 l 756 97 l 769 97 l 764 347 l 764 1111 l 914 1111 l 914 0 l 636 0 l 286 1014 l 272 1014 l 278 764 l 278 0 l 128 0 z "},"O":{"ha":1042,"x_min":83,"x_max":958,"o":"m 521 -22 q 194 124 304 -22 q 83 556 83 269 q 194 988 83 842 q 521 1133 304 1133 q 848 988 738 1133 q 958 556 958 842 q 848 124 958 269 q 521 -22 738 -22 m 521 128 q 732 233 664 128 q 800 556 800 338 q 732 878 800 774 q 521 983 664 983 q 310 878 378 983 q 242 556 242 774 q 310 233 242 338 q 521 128 378 128 z "},"Ó":{"ha":1042,"x_min":83,"x_max":958,"o":"m 521 -22 q 194 124 304 -22 q 83 556 83 269 q 194 988 83 842 q 521 1133 304 1133 q 848 988 738 1133 q 958 556 958 842 q 848 124 958 269 q 521 -22 738 -22 m 521 128 q 732 233 664 128 q 800 556 800 338 q 732 878 800 774 q 521 983 664 983 q 310 878 378 983 q 242 556 242 774 q 310 233 242 338 q 521 128 378 128 m 407 1236 l 551 1444 l 732 1444 l 546 1236 l 407 1236 z "},"Ô":{"ha":1042,"x_min":83,"x_max":958,"o":"m 521 -22 q 194 124 304 -22 q 83 556 83 269 q 194 988 83 842 q 521 1133 304 1133 q 848 988 738 1133 q 958 556 958 842 q 848 124 958 269 q 521 -22 738 -22 m 521 128 q 732 233 664 128 q 800 556 800 338 q 732 878 800 774 q 521 983 664 983 q 310 878 378 983 q 242 556 242 774 q 310 233 242 338 q 521 128 378 128 m 281 1236 l 425 1444 l 617 1444 l 761 1236 l 622 1236 l 475 1401 l 567 1401 l 419 1236 l 281 1236 z "},"Ö":{"ha":1042,"x_min":83,"x_max":958,"o":"m 521 -22 q 194 124 304 -22 q 83 556 83 269 q 194 988 83 842 q 521 1133 304 1133 q 848 988 738 1133 q 958 556 958 842 q 848 124 958 269 q 521 -22 738 -22 m 521 128 q 732 233 664 128 q 800 556 800 338 q 732 878 800 774 q 521 983 664 983 q 310 878 378 983 q 242 556 242 774 q 310 233 242 338 q 521 128 378 128 m 339 1250 q 258 1276 288 1250 q 228 1347 228 1303 q 258 1418 228 1392 q 339 1444 288 1444 q 421 1418 392 1444 q 450 1347 450 1392 q 421 1276 450 1303 q 339 1250 392 1250 m 703 1250 q 622 1276 651 1250 q 592 1347 592 1303 q 622 1418 592 1392 q 703 1444 651 1444 q 785 1418 756 1444 q 814 1347 814 1392 q 785 1276 814 1303 q 703 1250 756 1250 z "},"Ọ":{"ha":1042,"x_min":83,"x_max":958,"o":"m 521 -22 q 194 124 304 -22 q 83 556 83 269 q 194 988 83 842 q 521 1133 304 1133 q 848 988 738 1133 q 958 556 958 842 q 848 124 958 269 q 521 -22 738 -22 m 521 128 q 732 233 664 128 q 800 556 800 338 q 732 878 800 774 q 521 983 664 983 q 310 878 378 983 q 242 556 242 774 q 310 233 242 338 q 521 128 378 128 m 521 -344 q 431 -316 464 -344 q 399 -236 399 -287 q 431 -156 399 -185 q 521 -128 464 -128 q 610 -156 578 -128 q 643 -236 643 -185 q 610 -316 643 -287 q 521 -344 578 -344 z "},"Ò":{"ha":1042,"x_min":83,"x_max":958,"o":"m 521 -22 q 194 124 304 -22 q 83 556 83 269 q 194 988 83 842 q 521 1133 304 1133 q 848 988 738 1133 q 958 556 958 842 q 848 124 958 269 q 521 -22 738 -22 m 521 128 q 732 233 664 128 q 800 556 800 338 q 732 878 800 774 q 521 983 664 983 q 310 878 378 983 q 242 556 242 774 q 310 233 242 338 q 521 128 378 128 m 635 1236 l 496 1236 l 310 1444 l 490 1444 l 635 1236 z "},"Ő":{"ha":1042,"x_min":83,"x_max":958,"o":"m 521 -22 q 194 124 304 -22 q 83 556 83 269 q 194 988 83 842 q 521 1133 304 1133 q 848 988 738 1133 q 958 556 958 842 q 848 124 958 269 q 521 -22 738 -22 m 521 128 q 732 233 664 128 q 800 556 800 338 q 732 878 800 774 q 521 983 664 983 q 310 878 378 983 q 242 556 242 774 q 310 233 242 338 q 521 128 378 128 m 274 1236 l 404 1444 l 582 1444 l 410 1236 l 274 1236 m 549 1236 l 721 1444 l 910 1444 l 696 1236 l 549 1236 z "},"Ō":{"ha":1042,"x_min":83,"x_max":958,"o":"m 521 -22 q 194 124 304 -22 q 83 556 83 269 q 194 988 83 842 q 521 1133 304 1133 q 848 988 738 1133 q 958 556 958 842 q 848 124 958 269 q 521 -22 738 -22 m 521 128 q 732 233 664 128 q 800 556 800 338 q 732 878 800 774 q 521 983 664 983 q 310 878 378 983 q 242 556 242 774 q 310 233 242 338 q 521 128 378 128 m 285 1278 l 285 1403 l 757 1403 l 757 1278 l 285 1278 z "},"Ø":{"ha":1042,"x_min":83,"x_max":958,"o":"m 807 1133 l 958 1133 l 235 -22 l 83 -22 l 807 1133 m 521 -22 q 194 124 304 -22 q 83 556 83 269 q 194 988 83 842 q 521 1133 304 1133 q 848 988 738 1133 q 958 556 958 842 q 848 124 958 269 q 521 -22 738 -22 m 521 128 q 732 233 664 128 q 800 556 800 338 q 732 878 800 774 q 521 983 664 983 q 310 878 378 983 q 242 556 242 774 q 310 233 242 338 q 521 128 378 128 z "},"Ǿ":{"ha":1042,"x_min":83,"x_max":958,"o":"m 807 1133 l 958 1133 l 235 -22 l 83 -22 l 807 1133 m 521 -22 q 194 124 304 -22 q 83 556 83 269 q 194 988 83 842 q 521 1133 304 1133 q 848 988 738 1133 q 958 556 958 842 q 848 124 958 269 q 521 -22 738 -22 m 521 128 q 732 233 664 128 q 800 556 800 338 q 732 878 800 774 q 521 983 664 983 q 310 878 378 983 q 242 556 242 774 q 310 233 242 338 q 521 128 378 128 m 407 1236 l 551 1444 l 732 1444 l 546 1236 l 407 1236 z "},"Õ":{"ha":1042,"x_min":83,"x_max":958,"o":"m 521 -22 q 194 124 304 -22 q 83 556 83 269 q 194 988 83 842 q 521 1133 304 1133 q 848 988 738 1133 q 958 556 958 842 q 848 124 958 269 q 521 -22 738 -22 m 521 128 q 732 233 664 128 q 800 556 800 338 q 732 878 800 774 q 521 983 664 983 q 310 878 378 983 q 242 556 242 774 q 310 233 242 338 q 521 128 378 128 m 260 1236 q 308 1391 269 1343 q 421 1439 346 1439 q 510 1422 476 1439 q 569 1387 544 1404 q 621 1369 593 1369 q 650 1388 640 1369 q 665 1444 660 1406 l 782 1444 q 734 1290 772 1339 q 621 1242 696 1242 q 531 1259 565 1242 q 473 1294 497 1276 q 421 1311 449 1311 q 392 1294 403 1311 q 376 1236 382 1276 l 260 1236 z "},"Œ":{"ha":1042,"x_min":56,"x_max":1028,"o":"m 340 -22 q 213 9 267 -22 q 124 109 158 40 q 72 288 89 178 q 56 556 56 399 q 72 823 56 713 q 124 1002 89 933 q 213 1102 158 1071 q 340 1133 267 1133 q 449 1112 406 1133 q 522 1044 493 1090 l 550 1044 l 550 1111 l 1028 1111 l 1028 961 l 708 961 l 708 629 l 972 629 l 972 490 l 708 490 l 708 150 l 1014 150 l 1014 0 l 550 0 l 550 67 l 522 67 q 449 -1 493 21 q 340 -22 406 -22 m 385 128 q 467 149 433 128 q 519 219 500 169 q 547 351 539 268 q 556 556 556 433 q 547 761 556 679 q 519 892 539 843 q 467 963 500 942 q 385 983 433 983 q 303 963 336 983 q 250 892 269 942 q 222 761 231 843 q 214 556 214 679 q 222 351 214 433 q 250 219 231 268 q 303 149 269 169 q 385 128 336 128 z "},"P":{"ha":1042,"x_min":194,"x_max":975,"o":"m 194 0 l 194 1111 l 622 1111 q 808 1071 729 1111 q 931 957 888 1031 q 975 783 975 883 q 931 612 975 685 q 808 499 888 539 q 622 458 729 458 l 353 458 l 353 0 l 194 0 m 353 603 l 628 603 q 766 651 715 603 q 817 782 817 699 q 766 913 817 865 q 628 961 715 961 l 353 961 l 353 603 z "},"Þ":{"ha":1042,"x_min":194,"x_max":975,"o":"m 194 0 l 194 1111 l 353 1111 l 353 896 l 622 896 q 808 856 729 896 q 931 742 888 815 q 975 568 975 668 q 931 397 975 469 q 808 283 888 324 q 622 243 729 243 l 353 243 l 353 0 l 194 0 m 353 388 l 628 388 q 766 435 715 388 q 817 567 817 483 q 766 698 817 650 q 628 746 715 746 l 353 746 l 353 388 z "},"Q":{"ha":1042,"x_min":83,"x_max":958,"o":"m 479 -174 l 479 14 l 563 14 l 563 -42 l 903 -143 l 903 -300 l 479 -174 m 521 -22 q 194 124 304 -22 q 83 556 83 269 q 194 988 83 842 q 521 1133 304 1133 q 848 988 738 1133 q 958 556 958 842 q 848 124 958 269 q 521 -22 738 -22 m 521 128 q 732 233 664 128 q 800 556 800 338 q 732 878 800 774 q 521 983 664 983 q 310 878 378 983 q 242 556 242 774 q 310 233 242 338 q 521 128 378 128 z "},"R":{"ha":1042,"x_min":172,"x_max":981,"o":"m 172 0 l 172 1111 l 600 1111 q 786 1072 707 1111 q 909 961 865 1033 q 953 790 953 889 q 908 628 953 697 q 785 519 864 558 q 600 479 706 479 l 331 479 l 331 0 l 172 0 m 797 0 l 472 507 l 647 507 l 981 0 l 797 0 m 331 617 l 603 617 q 742 665 689 617 q 794 789 794 713 q 742 914 794 867 q 603 961 689 961 l 331 961 l 331 617 z "},"Ŕ":{"ha":1042,"x_min":172,"x_max":981,"o":"m 172 0 l 172 1111 l 600 1111 q 786 1072 707 1111 q 909 961 865 1033 q 953 790 953 889 q 908 628 953 697 q 785 519 864 558 q 600 479 706 479 l 331 479 l 331 0 l 172 0 m 797 0 l 472 507 l 647 507 l 981 0 l 797 0 m 331 617 l 603 617 q 742 665 689 617 q 794 789 794 713 q 742 914 794 867 q 603 961 689 961 l 331 961 l 331 617 m 407 1236 l 551 1444 l 732 1444 l 546 1236 l 407 1236 z "},"Ř":{"ha":1042,"x_min":172,"x_max":981,"o":"m 172 0 l 172 1111 l 600 1111 q 786 1072 707 1111 q 909 961 865 1033 q 953 790 953 889 q 908 628 953 697 q 785 519 864 558 q 600 479 706 479 l 331 479 l 331 0 l 172 0 m 797 0 l 472 507 l 647 507 l 981 0 l 797 0 m 331 617 l 603 617 q 742 665 689 617 q 794 789 794 713 q 742 914 794 867 q 603 961 689 961 l 331 961 l 331 617 m 761 1444 l 617 1236 l 425 1236 l 281 1444 l 419 1444 l 567 1279 l 475 1279 l 622 1444 l 761 1444 z "},"Ŗ":{"ha":1042,"x_min":172,"x_max":981,"o":"m 172 0 l 172 1111 l 600 1111 q 786 1072 707 1111 q 909 961 865 1033 q 953 790 953 889 q 908 628 953 697 q 785 519 864 558 q 600 479 706 479 l 331 479 l 331 0 l 172 0 m 797 0 l 472 507 l 647 507 l 981 0 l 797 0 m 331 617 l 603 617 q 742 665 689 617 q 794 789 794 713 q 742 914 794 867 q 603 961 689 961 l 331 961 l 331 617 m 546 -236 q 477 -215 503 -236 q 451 -160 451 -194 q 477 -104 451 -125 q 546 -83 503 -83 q 615 -104 589 -83 q 640 -160 640 -125 q 615 -215 640 -194 q 546 -236 589 -236 m 443 -347 q 519 -281 493 -314 q 546 -225 546 -247 l 546 -83 q 620 -108 594 -83 q 646 -181 646 -133 q 630 -264 646 -221 q 585 -347 614 -307 l 443 -347 z "},"S":{"ha":1042,"x_min":122,"x_max":947,"o":"m 278 283 q 367 168 301 208 q 531 128 432 128 q 701 177 639 128 q 764 311 764 226 q 721 417 764 378 q 592 467 678 457 l 450 483 q 215 581 294 503 q 136 797 136 660 q 186 974 136 899 q 326 1091 236 1049 q 536 1133 417 1133 q 744 1093 654 1133 q 888 978 835 1053 q 947 800 940 904 l 794 800 q 705 935 772 888 q 536 983 638 983 q 357 933 422 983 q 292 797 292 883 q 335 692 292 731 q 464 642 379 653 l 606 625 q 841 528 763 607 q 919 311 919 449 q 871 136 919 211 q 735 19 822 61 q 531 -22 647 -22 q 323 15 413 -22 q 181 120 233 51 q 122 283 129 189 l 278 283 z "},"Ś":{"ha":1042,"x_min":122,"x_max":947,"o":"m 278 283 q 367 168 301 208 q 531 128 432 128 q 701 177 639 128 q 764 311 764 226 q 721 417 764 378 q 592 467 678 457 l 450 483 q 215 581 294 503 q 136 797 136 660 q 186 974 136 899 q 326 1091 236 1049 q 536 1133 417 1133 q 744 1093 654 1133 q 888 978 835 1053 q 947 800 940 904 l 794 800 q 705 935 772 888 q 536 983 638 983 q 357 933 422 983 q 292 797 292 883 q 335 692 292 731 q 464 642 379 653 l 606 625 q 841 528 763 607 q 919 311 919 449 q 871 136 919 211 q 735 19 822 61 q 531 -22 647 -22 q 323 15 413 -22 q 181 120 233 51 q 122 283 129 189 l 278 283 m 425 1236 l 569 1444 l 750 1444 l 564 1236 l 425 1236 z "},"Ꞌ":{"ha":1042,"x_min":471,"x_max":610,"o":"m 471 556 l 471 1111 l 610 1111 l 610 861 l 582 556 l 471 556 z "},"Š":{"ha":1042,"x_min":122,"x_max":947,"o":"m 278 283 q 367 168 301 208 q 531 128 432 128 q 701 177 639 128 q 764 311 764 226 q 721 417 764 378 q 592 467 678 457 l 450 483 q 215 581 294 503 q 136 797 136 660 q 186 974 136 899 q 326 1091 236 1049 q 536 1133 417 1133 q 744 1093 654 1133 q 888 978 835 1053 q 947 800 940 904 l 794 800 q 705 935 772 888 q 536 983 638 983 q 357 933 422 983 q 292 797 292 883 q 335 692 292 731 q 464 642 379 653 l 606 625 q 841 528 763 607 q 919 311 919 449 q 871 136 919 211 q 735 19 822 61 q 531 -22 647 -22 q 323 15 413 -22 q 181 120 233 51 q 122 283 129 189 l 278 283 m 779 1444 l 635 1236 l 443 1236 l 299 1444 l 438 1444 l 585 1279 l 493 1279 l 640 1444 l 779 1444 z "},"Ş":{"ha":1042,"x_min":122,"x_max":947,"o":"m 278 283 q 367 168 301 208 q 531 128 432 128 q 701 177 639 128 q 764 311 764 226 q 721 417 764 378 q 592 467 678 457 l 450 483 q 215 581 294 503 q 136 797 136 660 q 186 974 136 899 q 326 1091 236 1049 q 536 1133 417 1133 q 744 1093 654 1133 q 888 978 835 1053 q 947 800 940 904 l 794 800 q 705 935 772 888 q 536 983 638 983 q 357 933 422 983 q 292 797 292 883 q 335 692 292 731 q 464 642 379 653 l 606 625 q 841 528 763 607 q 919 311 919 449 q 871 136 919 211 q 735 19 822 61 q 531 -22 647 -22 q 323 15 413 -22 q 181 120 233 51 q 122 283 129 189 l 278 283 m 490 28 l 613 28 l 588 -53 q 678 -92 647 -61 q 710 -169 710 -122 q 658 -265 710 -231 q 515 -300 607 -300 q 381 -267 431 -300 q 326 -175 331 -235 l 443 -175 q 469 -201 450 -192 q 518 -211 489 -211 q 561 -199 546 -211 q 576 -168 576 -187 q 562 -136 576 -149 q 519 -122 547 -124 l 454 -117 l 490 28 z "},"Ș":{"ha":1042,"x_min":122,"x_max":947,"o":"m 278 283 q 367 168 301 208 q 531 128 432 128 q 701 177 639 128 q 764 311 764 226 q 721 417 764 378 q 592 467 678 457 l 450 483 q 215 581 294 503 q 136 797 136 660 q 186 974 136 899 q 326 1091 236 1049 q 536 1133 417 1133 q 744 1093 654 1133 q 888 978 835 1053 q 947 800 940 904 l 794 800 q 705 935 772 888 q 536 983 638 983 q 357 933 422 983 q 292 797 292 883 q 335 692 292 731 q 464 642 379 653 l 606 625 q 841 528 763 607 q 919 311 919 449 q 871 136 919 211 q 735 19 822 61 q 531 -22 647 -22 q 323 15 413 -22 q 181 120 233 51 q 122 283 129 189 l 278 283 m 522 -236 q 453 -215 479 -236 q 428 -160 428 -194 q 453 -104 428 -125 q 522 -83 479 -83 q 591 -104 565 -83 q 617 -160 617 -125 q 591 -215 617 -194 q 522 -236 565 -236 m 419 -347 q 496 -281 469 -314 q 522 -225 522 -247 l 522 -83 q 597 -108 571 -83 q 622 -181 622 -133 q 606 -264 622 -221 q 561 -347 590 -307 l 419 -347 z "},"Ṣ":{"ha":1042,"x_min":122,"x_max":947,"o":"m 278 283 q 367 168 301 208 q 531 128 432 128 q 701 177 639 128 q 764 311 764 226 q 721 417 764 378 q 592 467 678 457 l 450 483 q 215 581 294 503 q 136 797 136 660 q 186 974 136 899 q 326 1091 236 1049 q 536 1133 417 1133 q 744 1093 654 1133 q 888 978 835 1053 q 947 800 940 904 l 794 800 q 705 935 772 888 q 536 983 638 983 q 357 933 422 983 q 292 797 292 883 q 335 692 292 731 q 464 642 379 653 l 606 625 q 841 528 763 607 q 919 311 919 449 q 871 136 919 211 q 735 19 822 61 q 531 -22 647 -22 q 323 15 413 -22 q 181 120 233 51 q 122 283 129 189 l 278 283 m 525 -344 q 435 -316 468 -344 q 403 -236 403 -287 q 435 -156 403 -185 q 525 -128 468 -128 q 615 -156 582 -128 q 647 -236 647 -185 q 615 -316 647 -287 q 525 -344 582 -344 z "},"ẞ":{"ha":1042,"x_min":139,"x_max":972,"o":"m 139 0 l 139 733 q 240 1013 139 915 q 525 1111 340 1111 l 903 1111 l 903 961 l 590 599 l 557 656 l 600 656 q 799 617 715 656 q 927 506 882 578 q 972 333 972 433 q 873 89 972 178 q 600 0 774 0 l 464 0 l 464 150 l 594 150 q 756 199 697 150 q 814 333 814 249 q 756 468 814 419 q 594 517 697 517 l 464 517 l 464 656 l 771 1013 l 771 961 l 519 961 q 356 903 414 961 q 297 739 297 846 l 297 0 l 139 0 z "},"T":{"ha":1042,"x_min":83,"x_max":958,"o":"m 442 0 l 442 961 l 83 961 l 83 1111 l 958 1111 l 958 961 l 600 961 l 600 0 l 442 0 z "},"Ŧ":{"ha":1042,"x_min":83,"x_max":958,"o":"m 215 478 l 215 611 l 826 611 l 826 478 l 215 478 m 442 0 l 442 961 l 83 961 l 83 1111 l 958 1111 l 958 961 l 600 961 l 600 0 l 442 0 z "},"Ť":{"ha":1042,"x_min":83,"x_max":958,"o":"m 442 0 l 442 961 l 83 961 l 83 1111 l 958 1111 l 958 961 l 600 961 l 600 0 l 442 0 m 761 1444 l 617 1236 l 425 1236 l 281 1444 l 419 1444 l 567 1279 l 475 1279 l 622 1444 l 761 1444 z "},"Ţ":{"ha":1042,"x_min":83,"x_max":958,"o":"m 442 0 l 442 961 l 83 961 l 83 1111 l 958 1111 l 958 961 l 600 961 l 600 0 l 442 0 m 476 28 l 599 28 l 574 -53 q 665 -92 633 -61 q 696 -169 696 -122 q 644 -265 696 -231 q 501 -300 593 -300 q 367 -267 417 -300 q 313 -175 317 -235 l 429 -175 q 456 -201 436 -192 q 504 -211 475 -211 q 547 -199 532 -211 q 563 -168 563 -187 q 548 -136 563 -149 q 506 -122 533 -124 l 440 -117 l 476 28 z "},"Ț":{"ha":1042,"x_min":83,"x_max":958,"o":"m 442 0 l 442 961 l 83 961 l 83 1111 l 958 1111 l 958 961 l 600 961 l 600 0 l 442 0 m 518 -236 q 449 -215 475 -236 q 424 -160 424 -194 q 449 -104 424 -125 q 518 -83 475 -83 q 587 -104 561 -83 q 613 -160 613 -125 q 587 -215 613 -194 q 518 -236 561 -236 m 415 -347 q 492 -281 465 -314 q 518 -225 518 -247 l 518 -83 q 592 -108 567 -83 q 618 -181 618 -133 q 602 -264 618 -221 q 557 -347 586 -307 l 415 -347 z "},"Ṭ":{"ha":1042,"x_min":83,"x_max":958,"o":"m 442 0 l 442 961 l 83 961 l 83 1111 l 958 1111 l 958 961 l 600 961 l 600 0 l 442 0 m 521 -344 q 431 -316 464 -344 q 399 -236 399 -287 q 431 -156 399 -185 q 521 -128 464 -128 q 610 -156 578 -128 q 643 -236 643 -185 q 610 -316 643 -287 q 521 -344 578 -344 z "},"U":{"ha":1042,"x_min":125,"x_max":917,"o":"m 125 1111 l 283 1111 l 283 403 q 347 201 283 274 q 524 128 410 128 q 701 201 638 128 q 764 403 764 274 l 764 1111 l 917 1111 l 917 389 q 815 83 917 189 q 521 -22 714 -22 q 226 83 328 -22 q 125 389 125 189 l 125 1111 z "},"Ú":{"ha":1042,"x_min":125,"x_max":917,"o":"m 125 1111 l 283 1111 l 283 403 q 347 201 283 274 q 524 128 410 128 q 701 201 638 128 q 764 403 764 274 l 764 1111 l 917 1111 l 917 389 q 815 83 917 189 q 521 -22 714 -22 q 226 83 328 -22 q 125 389 125 189 l 125 1111 m 407 1236 l 551 1444 l 732 1444 l 546 1236 l 407 1236 z "},"Ŭ":{"ha":1042,"x_min":125,"x_max":917,"o":"m 125 1111 l 283 1111 l 283 403 q 347 201 283 274 q 524 128 410 128 q 701 201 638 128 q 764 403 764 274 l 764 1111 l 917 1111 l 917 389 q 815 83 917 189 q 521 -22 714 -22 q 226 83 328 -22 q 125 389 125 189 l 125 1111 m 407 1431 q 440 1353 411 1379 q 521 1328 469 1328 q 602 1353 574 1328 q 635 1431 631 1379 l 774 1431 q 701 1275 764 1328 q 521 1222 638 1222 q 341 1275 404 1222 q 268 1431 278 1328 l 407 1431 z "},"Û":{"ha":1042,"x_min":125,"x_max":917,"o":"m 125 1111 l 283 1111 l 283 403 q 347 201 283 274 q 524 128 410 128 q 701 201 638 128 q 764 403 764 274 l 764 1111 l 917 1111 l 917 389 q 815 83 917 189 q 521 -22 714 -22 q 226 83 328 -22 q 125 389 125 189 l 125 1111 m 281 1236 l 425 1444 l 617 1444 l 761 1236 l 622 1236 l 475 1401 l 567 1401 l 419 1236 l 281 1236 z "},"Ü":{"ha":1042,"x_min":125,"x_max":917,"o":"m 125 1111 l 283 1111 l 283 403 q 347 201 283 274 q 524 128 410 128 q 701 201 638 128 q 764 403 764 274 l 764 1111 l 917 1111 l 917 389 q 815 83 917 189 q 521 -22 714 -22 q 226 83 328 -22 q 125 389 125 189 l 125 1111 m 339 1250 q 258 1276 288 1250 q 228 1347 228 1303 q 258 1418 228 1392 q 339 1444 288 1444 q 421 1418 392 1444 q 450 1347 450 1392 q 421 1276 450 1303 q 339 1250 392 1250 m 703 1250 q 622 1276 651 1250 q 592 1347 592 1303 q 622 1418 592 1392 q 703 1444 651 1444 q 785 1418 756 1444 q 814 1347 814 1392 q 785 1276 814 1303 q 703 1250 756 1250 z "},"Ụ":{"ha":1042,"x_min":125,"x_max":917,"o":"m 125 1111 l 283 1111 l 283 403 q 347 201 283 274 q 524 128 410 128 q 701 201 638 128 q 764 403 764 274 l 764 1111 l 917 1111 l 917 389 q 815 83 917 189 q 521 -22 714 -22 q 226 83 328 -22 q 125 389 125 189 l 125 1111 m 521 -344 q 431 -316 464 -344 q 399 -236 399 -287 q 431 -156 399 -185 q 521 -128 464 -128 q 610 -156 578 -128 q 643 -236 643 -185 q 610 -316 643 -287 q 521 -344 578 -344 z "},"Ù":{"ha":1042,"x_min":125,"x_max":917,"o":"m 125 1111 l 283 1111 l 283 403 q 347 201 283 274 q 524 128 410 128 q 701 201 638 128 q 764 403 764 274 l 764 1111 l 917 1111 l 917 389 q 815 83 917 189 q 521 -22 714 -22 q 226 83 328 -22 q 125 389 125 189 l 125 1111 m 635 1236 l 496 1236 l 310 1444 l 490 1444 l 635 1236 z "},"Ű":{"ha":1042,"x_min":125,"x_max":917,"o":"m 125 1111 l 283 1111 l 283 403 q 347 201 283 274 q 524 128 410 128 q 701 201 638 128 q 764 403 764 274 l 764 1111 l 917 1111 l 917 389 q 815 83 917 189 q 521 -22 714 -22 q 226 83 328 -22 q 125 389 125 189 l 125 1111 m 274 1236 l 404 1444 l 582 1444 l 410 1236 l 274 1236 m 549 1236 l 721 1444 l 910 1444 l 696 1236 l 549 1236 z "},"Ū":{"ha":1042,"x_min":125,"x_max":917,"o":"m 125 1111 l 283 1111 l 283 403 q 347 201 283 274 q 524 128 410 128 q 701 201 638 128 q 764 403 764 274 l 764 1111 l 917 1111 l 917 389 q 815 83 917 189 q 521 -22 714 -22 q 226 83 328 -22 q 125 389 125 189 l 125 1111 m 285 1278 l 285 1403 l 757 1403 l 757 1278 l 285 1278 z "},"Ų":{"ha":1042,"x_min":125,"x_max":917,"o":"m 125 1111 l 283 1111 l 283 403 q 347 201 283 274 q 524 128 410 128 q 701 201 638 128 q 764 403 764 274 l 764 1111 l 917 1111 l 917 389 q 815 83 917 189 q 521 -22 714 -22 q 226 83 328 -22 q 125 389 125 189 l 125 1111 m 599 -300 q 471 -264 518 -300 q 424 -164 424 -228 q 452 -74 424 -118 q 529 0 481 -31 l 599 3 l 676 0 q 593 -60 624 -25 q 563 -131 563 -94 q 581 -173 563 -157 q 629 -189 599 -189 q 654 -187 644 -189 q 676 -183 664 -186 l 676 -292 q 642 -298 660 -296 q 599 -300 624 -300 z "},"Ů":{"ha":1042,"x_min":125,"x_max":917,"o":"m 125 1111 l 283 1111 l 283 403 q 347 201 283 274 q 524 128 410 128 q 701 201 638 128 q 764 403 764 274 l 764 1111 l 917 1111 l 917 389 q 815 83 917 189 q 521 -22 714 -22 q 226 83 328 -22 q 125 389 125 189 l 125 1111 m 521 1206 q 390 1247 440 1206 q 340 1354 340 1288 q 390 1462 340 1421 q 521 1503 440 1503 q 651 1462 601 1503 q 701 1354 701 1421 q 651 1247 701 1288 q 521 1206 601 1206 m 521 1283 q 583 1303 560 1283 q 607 1354 607 1324 q 583 1406 607 1386 q 521 1425 560 1425 q 458 1406 482 1425 q 435 1354 435 1386 q 458 1303 435 1324 q 521 1283 482 1283 z "},"Ũ":{"ha":1042,"x_min":125,"x_max":917,"o":"m 125 1111 l 283 1111 l 283 403 q 347 201 283 274 q 524 128 410 128 q 701 201 638 128 q 764 403 764 274 l 764 1111 l 917 1111 l 917 389 q 815 83 917 189 q 521 -22 714 -22 q 226 83 328 -22 q 125 389 125 189 l 125 1111 m 260 1236 q 308 1391 269 1343 q 421 1439 346 1439 q 510 1422 476 1439 q 569 1387 544 1404 q 621 1369 593 1369 q 650 1388 640 1369 q 665 1444 660 1406 l 782 1444 q 734 1290 772 1339 q 621 1242 696 1242 q 531 1259 565 1242 q 473 1294 497 1276 q 421 1311 449 1311 q 392 1294 403 1311 q 376 1236 382 1276 l 260 1236 z "},"V":{"ha":1042,"x_min":78,"x_max":964,"o":"m 244 1111 l 518 122 l 532 122 l 807 1111 l 964 1111 l 650 0 l 392 0 l 78 1111 l 244 1111 z "},"W":{"ha":1042,"x_min":33,"x_max":1008,"o":"m 182 1111 l 289 278 l 306 111 l 319 111 l 413 833 l 643 833 l 731 111 l 744 111 l 761 278 l 869 1111 l 1008 1111 l 854 0 l 621 0 l 531 750 l 517 750 l 419 0 l 188 0 l 33 1111 l 182 1111 z "},"Ẃ":{"ha":1042,"x_min":33,"x_max":1008,"o":"m 182 1111 l 289 278 l 306 111 l 319 111 l 413 833 l 643 833 l 731 111 l 744 111 l 761 278 l 869 1111 l 1008 1111 l 854 0 l 621 0 l 531 750 l 517 750 l 419 0 l 188 0 l 33 1111 l 182 1111 m 469 1236 l 614 1444 l 794 1444 l 608 1236 l 469 1236 z "},"Ŵ":{"ha":1042,"x_min":33,"x_max":1008,"o":"m 182 1111 l 289 278 l 306 111 l 319 111 l 413 833 l 643 833 l 731 111 l 744 111 l 761 278 l 869 1111 l 1008 1111 l 854 0 l 621 0 l 531 750 l 517 750 l 419 0 l 188 0 l 33 1111 l 182 1111 m 281 1236 l 425 1444 l 617 1444 l 761 1236 l 622 1236 l 475 1401 l 567 1401 l 419 1236 l 281 1236 z "},"Ẅ":{"ha":1042,"x_min":33,"x_max":1008,"o":"m 182 1111 l 289 278 l 306 111 l 319 111 l 413 833 l 643 833 l 731 111 l 744 111 l 761 278 l 869 1111 l 1008 1111 l 854 0 l 621 0 l 531 750 l 517 750 l 419 0 l 188 0 l 33 1111 l 182 1111 m 339 1250 q 258 1276 288 1250 q 228 1347 228 1303 q 258 1418 228 1392 q 339 1444 288 1444 q 421 1418 392 1444 q 450 1347 450 1392 q 421 1276 450 1303 q 339 1250 392 1250 m 703 1250 q 622 1276 651 1250 q 592 1347 592 1303 q 622 1418 592 1392 q 703 1444 651 1444 q 785 1418 756 1444 q 814 1347 814 1392 q 785 1276 814 1303 q 703 1250 756 1250 z "},"Ẁ":{"ha":1042,"x_min":33,"x_max":1008,"o":"m 182 1111 l 289 278 l 306 111 l 319 111 l 413 833 l 643 833 l 731 111 l 744 111 l 761 278 l 869 1111 l 1008 1111 l 854 0 l 621 0 l 531 750 l 517 750 l 419 0 l 188 0 l 33 1111 l 182 1111 m 622 1236 l 483 1236 l 297 1444 l 478 1444 l 622 1236 z "},"X":{"ha":1042,"x_min":74,"x_max":968,"o":"m 96 0 l 399 533 l 74 1111 l 256 1111 l 499 675 l 513 611 l 528 611 l 542 675 l 790 1111 l 968 1111 l 643 546 l 946 0 l 761 0 l 543 397 l 529 461 l 514 461 l 500 397 l 276 0 l 96 0 z "},"Y":{"ha":1042,"x_min":60,"x_max":982,"o":"m 235 1111 l 504 657 l 518 617 l 532 617 l 546 657 l 819 1111 l 982 1111 l 600 483 l 600 0 l 442 0 l 442 483 l 60 1111 l 235 1111 z "},"Ý":{"ha":1042,"x_min":60,"x_max":982,"o":"m 235 1111 l 504 657 l 518 617 l 532 617 l 546 657 l 819 1111 l 982 1111 l 600 483 l 600 0 l 442 0 l 442 483 l 60 1111 l 235 1111 m 407 1236 l 551 1444 l 732 1444 l 546 1236 l 407 1236 z "},"Ŷ":{"ha":1042,"x_min":60,"x_max":982,"o":"m 235 1111 l 504 657 l 518 617 l 532 617 l 546 657 l 819 1111 l 982 1111 l 600 483 l 600 0 l 442 0 l 442 483 l 60 1111 l 235 1111 m 281 1236 l 425 1444 l 617 1444 l 761 1236 l 622 1236 l 475 1401 l 567 1401 l 419 1236 l 281 1236 z "},"Ÿ":{"ha":1042,"x_min":60,"x_max":982,"o":"m 235 1111 l 504 657 l 518 617 l 532 617 l 546 657 l 819 1111 l 982 1111 l 600 483 l 600 0 l 442 0 l 442 483 l 60 1111 l 235 1111 m 339 1250 q 258 1276 288 1250 q 228 1347 228 1303 q 258 1418 228 1392 q 339 1444 288 1444 q 421 1418 392 1444 q 450 1347 450 1392 q 421 1276 450 1303 q 339 1250 392 1250 m 703 1250 q 622 1276 651 1250 q 592 1347 592 1303 q 622 1418 592 1392 q 703 1444 651 1444 q 785 1418 756 1444 q 814 1347 814 1392 q 785 1276 814 1303 q 703 1250 756 1250 z "},"Ỳ":{"ha":1042,"x_min":60,"x_max":982,"o":"m 235 1111 l 504 657 l 518 617 l 532 617 l 546 657 l 819 1111 l 982 1111 l 600 483 l 600 0 l 442 0 l 442 483 l 60 1111 l 235 1111 m 635 1236 l 496 1236 l 310 1444 l 490 1444 l 635 1236 z "},"Ȳ":{"ha":1042,"x_min":60,"x_max":982,"o":"m 235 1111 l 504 657 l 518 617 l 532 617 l 546 657 l 819 1111 l 982 1111 l 600 483 l 600 0 l 442 0 l 442 483 l 60 1111 l 235 1111 m 285 1278 l 285 1403 l 757 1403 l 757 1278 l 285 1278 z "},"Ỹ":{"ha":1042,"x_min":60,"x_max":982,"o":"m 235 1111 l 504 657 l 518 617 l 532 617 l 546 657 l 819 1111 l 982 1111 l 600 483 l 600 0 l 442 0 l 442 483 l 60 1111 l 235 1111 m 260 1236 q 308 1391 269 1343 q 421 1439 346 1439 q 510 1422 476 1439 q 569 1387 544 1404 q 621 1369 593 1369 q 650 1388 640 1369 q 665 1444 660 1406 l 782 1444 q 734 1290 772 1339 q 621 1242 696 1242 q 531 1259 565 1242 q 473 1294 497 1276 q 421 1311 449 1311 q 392 1294 403 1311 q 376 1236 382 1276 l 260 1236 z "},"Z":{"ha":1042,"x_min":153,"x_max":889,"o":"m 153 0 l 153 272 l 786 947 l 786 961 l 153 961 l 153 1111 l 889 1111 l 889 839 l 256 164 l 256 150 l 889 150 l 889 0 l 153 0 z "},"Ź":{"ha":1042,"x_min":153,"x_max":889,"o":"m 153 0 l 153 272 l 786 947 l 786 961 l 153 961 l 153 1111 l 889 1111 l 889 839 l 256 164 l 256 150 l 889 150 l 889 0 l 153 0 m 407 1236 l 551 1444 l 732 1444 l 546 1236 l 407 1236 z "},"Ž":{"ha":1042,"x_min":153,"x_max":889,"o":"m 153 0 l 153 272 l 786 947 l 786 961 l 153 961 l 153 1111 l 889 1111 l 889 839 l 256 164 l 256 150 l 889 150 l 889 0 l 153 0 m 761 1444 l 617 1236 l 425 1236 l 281 1444 l 419 1444 l 567 1279 l 475 1279 l 622 1444 l 761 1444 z "},"Ż":{"ha":1042,"x_min":153,"x_max":889,"o":"m 153 0 l 153 272 l 786 947 l 786 961 l 153 961 l 153 1111 l 889 1111 l 889 839 l 256 164 l 256 150 l 889 150 l 889 0 l 153 0 m 521 1239 q 431 1267 464 1239 q 399 1347 399 1296 q 431 1427 399 1399 q 521 1456 464 1456 q 610 1427 578 1456 q 643 1347 643 1399 q 610 1267 643 1296 q 521 1239 578 1239 z "},"Ẓ":{"ha":1042,"x_min":153,"x_max":889,"o":"m 153 0 l 153 272 l 786 947 l 786 961 l 153 961 l 153 1111 l 889 1111 l 889 839 l 256 164 l 256 150 l 889 150 l 889 0 l 153 0 m 521 -344 q 431 -316 464 -344 q 399 -236 399 -287 q 431 -156 399 -185 q 521 -128 464 -128 q 610 -156 578 -128 q 643 -236 643 -185 q 610 -316 643 -287 q 521 -344 578 -344 z "},"a":{"ha":1042,"x_min":111,"x_max":869,"o":"m 736 522 l 736 388 l 439 343 q 351 303 379 333 q 324 226 324 274 q 363 152 324 182 q 461 122 401 122 q 592 154 533 122 q 685 240 650 186 q 719 360 719 293 l 719 528 q 665 664 719 615 q 511 713 610 713 q 390 692 443 713 q 304 635 338 672 q 258 542 271 597 l 111 542 q 172 709 119 639 q 312 817 224 779 q 517 856 400 856 q 778 774 686 856 q 869 539 869 692 l 869 0 l 719 0 l 719 83 l 678 83 q 578 5 639 32 q 431 -22 517 -22 q 287 8 347 -22 q 194 94 226 39 q 161 222 161 149 q 229 391 161 325 q 424 475 297 457 l 736 522 z "},"á":{"ha":1042,"x_min":111,"x_max":869,"o":"m 736 522 l 736 388 l 439 343 q 351 303 379 333 q 324 226 324 274 q 363 152 324 182 q 461 122 401 122 q 592 154 533 122 q 685 240 650 186 q 719 360 719 293 l 719 528 q 665 664 719 615 q 511 713 610 713 q 390 692 443 713 q 304 635 338 672 q 258 542 271 597 l 111 542 q 172 709 119 639 q 312 817 224 779 q 517 856 400 856 q 778 774 686 856 q 869 539 869 692 l 869 0 l 719 0 l 719 83 l 678 83 q 578 5 639 32 q 431 -22 517 -22 q 287 8 347 -22 q 194 94 226 39 q 161 222 161 149 q 229 391 161 325 q 424 475 297 457 l 736 522 m 403 958 l 547 1167 l 728 1167 l 542 958 l 403 958 z "},"ă":{"ha":1042,"x_min":111,"x_max":869,"o":"m 736 522 l 736 388 l 439 343 q 351 303 379 333 q 324 226 324 274 q 363 152 324 182 q 461 122 401 122 q 592 154 533 122 q 685 240 650 186 q 719 360 719 293 l 719 528 q 665 664 719 615 q 511 713 610 713 q 390 692 443 713 q 304 635 338 672 q 258 542 271 597 l 111 542 q 172 709 119 639 q 312 817 224 779 q 517 856 400 856 q 778 774 686 856 q 869 539 869 692 l 869 0 l 719 0 l 719 83 l 678 83 q 578 5 639 32 q 431 -22 517 -22 q 287 8 347 -22 q 194 94 226 39 q 161 222 161 149 q 229 391 161 325 q 424 475 297 457 l 736 522 m 403 1153 q 436 1076 407 1101 q 517 1050 465 1050 q 598 1076 569 1050 q 631 1153 626 1101 l 769 1153 q 697 997 760 1050 q 517 944 633 944 q 337 997 400 944 q 264 1153 274 1050 l 403 1153 z "},"ǎ":{"ha":1042,"x_min":111,"x_max":869,"o":"m 736 522 l 736 388 l 439 343 q 351 303 379 333 q 324 226 324 274 q 363 152 324 182 q 461 122 401 122 q 592 154 533 122 q 685 240 650 186 q 719 360 719 293 l 719 528 q 665 664 719 615 q 511 713 610 713 q 390 692 443 713 q 304 635 338 672 q 258 542 271 597 l 111 542 q 172 709 119 639 q 312 817 224 779 q 517 856 400 856 q 778 774 686 856 q 869 539 869 692 l 869 0 l 719 0 l 719 83 l 678 83 q 578 5 639 32 q 431 -22 517 -22 q 287 8 347 -22 q 194 94 226 39 q 161 222 161 149 q 229 391 161 325 q 424 475 297 457 l 736 522 m 757 1167 l 613 958 l 421 958 l 276 1167 l 415 1167 l 563 1001 l 471 1001 l 618 1167 l 757 1167 z "},"â":{"ha":1042,"x_min":111,"x_max":869,"o":"m 736 522 l 736 388 l 439 343 q 351 303 379 333 q 324 226 324 274 q 363 152 324 182 q 461 122 401 122 q 592 154 533 122 q 685 240 650 186 q 719 360 719 293 l 719 528 q 665 664 719 615 q 511 713 610 713 q 390 692 443 713 q 304 635 338 672 q 258 542 271 597 l 111 542 q 172 709 119 639 q 312 817 224 779 q 517 856 400 856 q 778 774 686 856 q 869 539 869 692 l 869 0 l 719 0 l 719 83 l 678 83 q 578 5 639 32 q 431 -22 517 -22 q 287 8 347 -22 q 194 94 226 39 q 161 222 161 149 q 229 391 161 325 q 424 475 297 457 l 736 522 m 276 958 l 421 1167 l 613 1167 l 757 958 l 618 958 l 471 1124 l 563 1124 l 415 958 l 276 958 z "},"ä":{"ha":1042,"x_min":111,"x_max":869,"o":"m 736 522 l 736 388 l 439 343 q 351 303 379 333 q 324 226 324 274 q 363 152 324 182 q 461 122 401 122 q 592 154 533 122 q 685 240 650 186 q 719 360 719 293 l 719 528 q 665 664 719 615 q 511 713 610 713 q 390 692 443 713 q 304 635 338 672 q 258 542 271 597 l 111 542 q 172 709 119 639 q 312 817 224 779 q 517 856 400 856 q 778 774 686 856 q 869 539 869 692 l 869 0 l 719 0 l 719 83 l 678 83 q 578 5 639 32 q 431 -22 517 -22 q 287 8 347 -22 q 194 94 226 39 q 161 222 161 149 q 229 391 161 325 q 424 475 297 457 l 736 522 m 335 972 q 253 999 283 972 q 224 1069 224 1025 q 253 1140 224 1114 q 335 1167 283 1167 q 417 1140 388 1167 q 446 1069 446 1114 q 417 999 446 1025 q 335 972 388 972 m 699 972 q 617 999 647 972 q 588 1069 588 1025 q 617 1140 588 1114 q 699 1167 647 1167 q 781 1140 751 1167 q 810 1069 810 1114 q 781 999 810 1025 q 699 972 751 972 z "},"à":{"ha":1042,"x_min":111,"x_max":869,"o":"m 736 522 l 736 388 l 439 343 q 351 303 379 333 q 324 226 324 274 q 363 152 324 182 q 461 122 401 122 q 592 154 533 122 q 685 240 650 186 q 719 360 719 293 l 719 528 q 665 664 719 615 q 511 713 610 713 q 390 692 443 713 q 304 635 338 672 q 258 542 271 597 l 111 542 q 172 709 119 639 q 312 817 224 779 q 517 856 400 856 q 778 774 686 856 q 869 539 869 692 l 869 0 l 719 0 l 719 83 l 678 83 q 578 5 639 32 q 431 -22 517 -22 q 287 8 347 -22 q 194 94 226 39 q 161 222 161 149 q 229 391 161 325 q 424 475 297 457 l 736 522 m 631 958 l 492 958 l 306 1167 l 486 1167 l 631 958 z "},"ā":{"ha":1042,"x_min":111,"x_max":869,"o":"m 736 522 l 736 388 l 439 343 q 351 303 379 333 q 324 226 324 274 q 363 152 324 182 q 461 122 401 122 q 592 154 533 122 q 685 240 650 186 q 719 360 719 293 l 719 528 q 665 664 719 615 q 511 713 610 713 q 390 692 443 713 q 304 635 338 672 q 258 542 271 597 l 111 542 q 172 709 119 639 q 312 817 224 779 q 517 856 400 856 q 778 774 686 856 q 869 539 869 692 l 869 0 l 719 0 l 719 83 l 678 83 q 578 5 639 32 q 431 -22 517 -22 q 287 8 347 -22 q 194 94 226 39 q 161 222 161 149 q 229 391 161 325 q 424 475 297 457 l 736 522 m 281 1000 l 281 1125 l 753 1125 l 753 1000 l 281 1000 z "},"ą":{"ha":1042,"x_min":111,"x_max":869,"o":"m 736 522 l 736 388 l 439 343 q 351 303 379 333 q 324 226 324 274 q 363 152 324 182 q 461 122 401 122 q 592 154 533 122 q 685 240 650 186 q 719 360 719 293 l 719 528 q 665 664 719 615 q 511 713 610 713 q 390 692 443 713 q 304 635 338 672 q 258 542 271 597 l 111 542 q 172 709 119 639 q 312 817 224 779 q 517 856 400 856 q 778 774 686 856 q 869 539 869 692 l 869 0 l 719 0 l 719 83 l 678 83 q 578 5 639 32 q 431 -22 517 -22 q 287 8 347 -22 q 194 94 226 39 q 161 222 161 149 q 229 391 161 325 q 424 475 297 457 l 736 522 m 792 -300 q 664 -264 711 -300 q 617 -164 617 -228 q 645 -74 617 -118 q 722 0 674 -31 l 792 3 l 869 0 q 786 -60 817 -25 q 756 -131 756 -94 q 774 -173 756 -157 q 822 -189 792 -189 q 847 -187 838 -189 q 869 -183 857 -186 l 869 -292 q 835 -298 853 -296 q 792 -300 817 -300 z "},"å":{"ha":1042,"x_min":111,"x_max":869,"o":"m 736 522 l 736 388 l 439 343 q 351 303 379 333 q 324 226 324 274 q 363 152 324 182 q 461 122 401 122 q 592 154 533 122 q 685 240 650 186 q 719 360 719 293 l 719 528 q 665 664 719 615 q 511 713 610 713 q 390 692 443 713 q 304 635 338 672 q 258 542 271 597 l 111 542 q 172 709 119 639 q 312 817 224 779 q 517 856 400 856 q 778 774 686 856 q 869 539 869 692 l 869 0 l 719 0 l 719 83 l 678 83 q 578 5 639 32 q 431 -22 517 -22 q 287 8 347 -22 q 194 94 226 39 q 161 222 161 149 q 229 391 161 325 q 424 475 297 457 l 736 522 m 517 928 q 386 969 436 928 q 336 1076 336 1010 q 386 1184 336 1143 q 517 1225 436 1225 q 647 1184 597 1225 q 697 1076 697 1143 q 647 969 697 1010 q 517 928 597 928 m 517 1006 q 579 1026 556 1006 q 603 1076 603 1046 q 579 1128 603 1108 q 517 1147 556 1147 q 454 1128 478 1147 q 431 1076 431 1108 q 454 1026 431 1046 q 517 1006 478 1006 z "},"ǻ":{"ha":1042,"x_min":111,"x_max":869,"o":"m 736 522 l 736 388 l 439 343 q 351 303 379 333 q 324 226 324 274 q 363 152 324 182 q 461 122 401 122 q 592 154 533 122 q 685 240 650 186 q 719 360 719 293 l 719 528 q 665 664 719 615 q 511 713 610 713 q 390 692 443 713 q 304 635 338 672 q 258 542 271 597 l 111 542 q 172 709 119 639 q 312 817 224 779 q 517 856 400 856 q 778 774 686 856 q 869 539 869 692 l 869 0 l 719 0 l 719 83 l 678 83 q 578 5 639 32 q 431 -22 517 -22 q 287 8 347 -22 q 194 94 226 39 q 161 222 161 149 q 229 391 161 325 q 424 475 297 457 l 736 522 m 517 928 q 386 969 436 928 q 336 1076 336 1010 q 386 1184 336 1143 q 517 1225 436 1225 q 647 1184 597 1225 q 697 1076 697 1143 q 647 969 697 1010 q 517 928 597 928 m 517 1006 q 579 1026 556 1006 q 603 1076 603 1046 q 579 1128 603 1108 q 517 1147 556 1147 q 454 1128 478 1147 q 431 1076 431 1108 q 454 1026 431 1046 q 517 1006 478 1006 m 436 1294 l 581 1503 l 761 1503 l 575 1294 l 436 1294 z "},"ã":{"ha":1042,"x_min":111,"x_max":869,"o":"m 736 522 l 736 388 l 439 343 q 351 303 379 333 q 324 226 324 274 q 363 152 324 182 q 461 122 401 122 q 592 154 533 122 q 685 240 650 186 q 719 360 719 293 l 719 528 q 665 664 719 615 q 511 713 610 713 q 390 692 443 713 q 304 635 338 672 q 258 542 271 597 l 111 542 q 172 709 119 639 q 312 817 224 779 q 517 856 400 856 q 778 774 686 856 q 869 539 869 692 l 869 0 l 719 0 l 719 83 l 678 83 q 578 5 639 32 q 431 -22 517 -22 q 287 8 347 -22 q 194 94 226 39 q 161 222 161 149 q 229 391 161 325 q 424 475 297 457 l 736 522 m 256 958 q 303 1113 265 1065 q 417 1161 342 1161 q 506 1144 472 1161 q 565 1109 540 1126 q 617 1092 589 1092 q 646 1110 636 1092 q 661 1167 656 1128 l 778 1167 q 730 1013 768 1061 q 617 964 692 964 q 527 981 561 964 q 469 1016 493 999 q 417 1033 444 1033 q 388 1016 399 1033 q 372 958 378 999 l 256 958 z "},"æ":{"ha":1042,"x_min":33,"x_max":1008,"o":"m 750 -22 q 544 86 614 -22 q 475 424 475 194 q 540 751 475 646 q 744 856 606 856 q 882 809 828 856 q 963 668 936 763 q 989 426 989 574 q 988 397 989 411 q 986 367 988 382 l 569 367 l 569 503 l 899 503 l 847 424 q 836 594 847 531 q 801 688 825 658 q 736 717 776 717 q 663 685 692 717 q 619 589 633 654 q 606 424 606 524 q 620 251 606 319 q 665 150 635 183 q 742 117 696 117 q 820 151 789 117 q 867 256 851 185 l 1008 256 q 924 49 993 121 q 750 -22 856 -22 m 475 522 l 475 388 l 322 343 q 241 297 267 328 q 215 219 215 267 q 242 149 215 176 q 314 122 269 122 q 421 176 381 122 q 461 318 461 229 l 461 528 q 430 667 461 622 q 336 713 399 713 q 235 671 274 713 q 178 542 197 629 l 33 542 q 128 774 49 693 q 342 856 207 856 q 527 773 463 856 q 592 539 592 690 l 592 139 l 558 97 l 503 97 q 416 7 468 36 q 286 -22 364 -22 q 117 41 181 -22 q 53 208 53 104 q 115 374 53 308 q 307 475 176 439 l 475 522 z "},"ǽ":{"ha":1042,"x_min":33,"x_max":1008,"o":"m 750 -22 q 544 86 614 -22 q 475 424 475 194 q 540 751 475 646 q 744 856 606 856 q 882 809 828 856 q 963 668 936 763 q 989 426 989 574 q 988 397 989 411 q 986 367 988 382 l 569 367 l 569 503 l 899 503 l 847 424 q 836 594 847 531 q 801 688 825 658 q 736 717 776 717 q 663 685 692 717 q 619 589 633 654 q 606 424 606 524 q 620 251 606 319 q 665 150 635 183 q 742 117 696 117 q 820 151 789 117 q 867 256 851 185 l 1008 256 q 924 49 993 121 q 750 -22 856 -22 m 475 522 l 475 388 l 322 343 q 241 297 267 328 q 215 219 215 267 q 242 149 215 176 q 314 122 269 122 q 421 176 381 122 q 461 318 461 229 l 461 528 q 430 667 461 622 q 336 713 399 713 q 235 671 274 713 q 178 542 197 629 l 33 542 q 128 774 49 693 q 342 856 207 856 q 527 773 463 856 q 592 539 592 690 l 592 139 l 558 97 l 503 97 q 416 7 468 36 q 286 -22 364 -22 q 117 41 181 -22 q 53 208 53 104 q 115 374 53 308 q 307 475 176 439 l 475 522 m 407 958 l 551 1167 l 732 1167 l 546 958 l 407 958 z "},"b":{"ha":1042,"x_min":153,"x_max":953,"o":"m 578 -22 q 440 7 503 -22 q 347 83 376 36 l 306 83 l 306 0 l 153 0 l 153 1178 l 306 1178 l 306 750 l 347 750 q 440 827 376 799 q 578 856 503 856 q 775 801 690 856 q 906 647 860 746 q 953 417 953 549 q 906 186 953 285 q 775 33 860 88 q 578 -22 690 -22 m 550 122 q 733 201 667 122 q 800 417 800 281 q 733 632 800 553 q 550 711 667 711 q 367 632 433 711 q 300 417 300 553 q 367 201 300 281 q 550 122 433 122 z "},"c":{"ha":1042,"x_min":136,"x_max":936,"o":"m 540 -22 q 328 32 419 -22 q 187 184 238 86 q 136 413 136 282 q 188 645 136 546 q 335 800 240 744 q 554 856 429 856 q 751 813 667 856 q 883 692 835 769 q 936 511 932 615 l 796 511 q 713 658 778 604 q 549 711 647 711 q 358 631 426 711 q 289 413 289 551 q 356 200 289 278 q 540 122 424 122 q 688 169 626 122 q 774 297 749 217 l 914 297 q 855 130 906 201 q 723 18 804 58 q 540 -22 642 -22 z "},"ć":{"ha":1042,"x_min":136,"x_max":936,"o":"m 540 -22 q 328 32 419 -22 q 187 184 238 86 q 136 413 136 282 q 188 645 136 546 q 335 800 240 744 q 554 856 429 856 q 751 813 667 856 q 883 692 835 769 q 936 511 932 615 l 796 511 q 713 658 778 604 q 549 711 647 711 q 358 631 426 711 q 289 413 289 551 q 356 200 289 278 q 540 122 424 122 q 688 169 626 122 q 774 297 749 217 l 914 297 q 855 130 906 201 q 723 18 804 58 q 540 -22 642 -22 m 439 958 l 583 1167 l 764 1167 l 578 958 l 439 958 z "},"č":{"ha":1042,"x_min":136,"x_max":936,"o":"m 540 -22 q 328 32 419 -22 q 187 184 238 86 q 136 413 136 282 q 188 645 136 546 q 335 800 240 744 q 554 856 429 856 q 751 813 667 856 q 883 692 835 769 q 936 511 932 615 l 796 511 q 713 658 778 604 q 549 711 647 711 q 358 631 426 711 q 289 413 289 551 q 356 200 289 278 q 540 122 424 122 q 688 169 626 122 q 774 297 749 217 l 914 297 q 855 130 906 201 q 723 18 804 58 q 540 -22 642 -22 m 793 1167 l 649 958 l 457 958 l 313 1167 l 451 1167 l 599 1001 l 507 1001 l 654 1167 l 793 1167 z "},"ç":{"ha":1042,"x_min":136,"x_max":936,"o":"m 540 -22 q 328 32 419 -22 q 187 184 238 86 q 136 413 136 282 q 188 645 136 546 q 335 800 240 744 q 554 856 429 856 q 751 813 667 856 q 883 692 835 769 q 936 511 932 615 l 796 511 q 713 658 778 604 q 549 711 647 711 q 358 631 426 711 q 289 413 289 551 q 356 200 289 278 q 540 122 424 122 q 688 169 626 122 q 774 297 749 217 l 914 297 q 855 130 906 201 q 723 18 804 58 q 540 -22 642 -22 m 518 28 l 640 28 l 615 -53 q 706 -92 675 -61 q 738 -169 738 -122 q 686 -265 738 -231 q 543 -300 635 -300 q 408 -267 458 -300 q 354 -175 358 -235 l 471 -175 q 497 -201 478 -192 q 546 -211 517 -211 q 589 -199 574 -211 q 604 -168 604 -187 q 590 -136 604 -149 q 547 -122 575 -124 l 482 -117 l 518 28 z "},"ċ":{"ha":1042,"x_min":136,"x_max":936,"o":"m 540 -22 q 328 32 419 -22 q 187 184 238 86 q 136 413 136 282 q 188 645 136 546 q 335 800 240 744 q 554 856 429 856 q 751 813 667 856 q 883 692 835 769 q 936 511 932 615 l 796 511 q 713 658 778 604 q 549 711 647 711 q 358 631 426 711 q 289 413 289 551 q 356 200 289 278 q 540 122 424 122 q 688 169 626 122 q 774 297 749 217 l 914 297 q 855 130 906 201 q 723 18 804 58 q 540 -22 642 -22 m 553 961 q 463 990 496 961 q 431 1069 431 1018 q 463 1149 431 1121 q 553 1178 496 1178 q 642 1149 610 1178 q 675 1069 675 1121 q 642 990 675 1018 q 553 961 610 961 z "},"d":{"ha":1042,"x_min":89,"x_max":889,"o":"m 464 -22 q 267 33 351 -22 q 136 186 183 88 q 89 417 89 285 q 136 647 89 549 q 267 801 183 746 q 464 856 351 856 q 602 827 539 856 q 694 750 665 799 l 736 750 l 736 1178 l 889 1178 l 889 0 l 736 0 l 736 83 l 694 83 q 602 7 665 36 q 464 -22 539 -22 m 492 122 q 675 201 608 122 q 742 417 742 281 q 675 632 742 553 q 492 711 608 711 q 308 632 375 711 q 242 417 242 553 q 308 201 242 281 q 492 122 375 122 z "},"ð":{"ha":1042,"x_min":111,"x_max":931,"o":"m 507 -22 q 299 33 389 -22 q 160 186 210 88 q 111 417 111 285 q 163 642 111 546 q 305 791 215 738 q 507 844 394 844 q 574 839 542 844 q 631 821 607 833 l 647 836 q 507 987 597 907 q 314 1131 417 1067 l 438 1214 q 639 1048 549 1140 q 794 853 729 956 q 895 647 860 751 q 931 442 931 542 q 879 194 931 299 q 733 34 828 90 q 507 -22 639 -22 m 264 417 q 333 201 264 281 q 521 122 401 122 q 709 201 640 122 q 778 417 778 281 q 709 632 778 553 q 521 711 640 711 q 384 676 442 711 q 295 574 326 640 q 264 417 264 508 m 244 986 l 783 1135 l 810 1028 l 271 879 l 244 986 z "},"ď":{"ha":1042,"x_min":75,"x_max":1153,"o":"m 436 -22 q 243 31 324 -22 q 119 182 163 83 q 75 417 75 281 q 119 651 75 553 q 243 803 163 750 q 436 856 324 856 q 566 829 511 856 q 653 750 621 803 l 694 750 l 694 1178 l 847 1178 l 847 0 l 694 0 l 694 83 l 653 83 q 566 5 621 32 q 436 -22 511 -22 m 700 417 q 639 635 700 558 q 464 711 578 711 q 289 635 350 711 q 228 417 228 558 q 289 199 228 275 q 464 122 350 122 q 639 199 578 122 q 700 417 700 275 m 944 900 l 1000 1178 l 1153 1178 l 1069 900 l 944 900 z "},"đ":{"ha":1042,"x_min":89,"x_max":1014,"o":"m 514 942 l 514 1067 l 1014 1067 l 1014 942 l 514 942 m 464 -22 q 267 33 351 -22 q 136 186 183 88 q 89 417 89 285 q 136 647 89 549 q 267 801 183 746 q 464 856 351 856 q 602 827 539 856 q 694 750 665 799 l 736 750 l 736 1178 l 889 1178 l 889 0 l 736 0 l 736 83 l 694 83 q 602 7 665 36 q 464 -22 539 -22 m 492 122 q 675 201 608 122 q 742 417 742 281 q 675 632 742 553 q 492 711 608 711 q 308 632 375 711 q 242 417 242 553 q 308 201 242 281 q 492 122 375 122 z "},"ḍ":{"ha":1042,"x_min":89,"x_max":889,"o":"m 464 -22 q 267 33 351 -22 q 136 186 183 88 q 89 417 89 285 q 136 647 89 549 q 267 801 183 746 q 464 856 351 856 q 602 827 539 856 q 694 750 665 799 l 736 750 l 736 1178 l 889 1178 l 889 0 l 736 0 l 736 83 l 694 83 q 602 7 665 36 q 464 -22 539 -22 m 492 122 q 675 201 608 122 q 742 417 742 281 q 675 632 742 553 q 492 711 608 711 q 308 632 375 711 q 242 417 242 553 q 308 201 242 281 q 492 122 375 122 m 521 -344 q 431 -316 464 -344 q 399 -236 399 -287 q 431 -156 399 -185 q 521 -128 464 -128 q 610 -156 578 -128 q 643 -236 643 -185 q 610 -316 643 -287 q 521 -344 578 -344 z "},"e":{"ha":1042,"x_min":139,"x_max":928,"o":"m 257 503 l 813 503 l 761 424 q 703 640 761 564 q 539 717 646 717 q 356 638 422 717 q 289 424 289 560 q 356 197 289 278 q 544 117 422 117 q 683 153 622 117 q 783 256 743 189 l 928 256 q 852 110 907 172 q 718 13 797 47 q 544 -22 639 -22 q 328 32 419 -22 q 188 186 238 86 q 139 424 139 286 q 189 651 139 554 q 329 801 239 747 q 539 856 419 856 q 733 804 651 856 q 859 656 815 753 q 903 426 903 560 q 902 397 903 411 q 900 367 901 382 l 257 367 l 257 503 z "},"é":{"ha":1042,"x_min":139,"x_max":928,"o":"m 257 503 l 813 503 l 761 424 q 703 640 761 564 q 539 717 646 717 q 356 638 422 717 q 289 424 289 560 q 356 197 289 278 q 544 117 422 117 q 683 153 622 117 q 783 256 743 189 l 928 256 q 852 110 907 172 q 718 13 797 47 q 544 -22 639 -22 q 328 32 419 -22 q 188 186 238 86 q 139 424 139 286 q 189 651 139 554 q 329 801 239 747 q 539 856 419 856 q 733 804 651 856 q 859 656 815 753 q 903 426 903 560 q 902 397 903 411 q 900 367 901 382 l 257 367 l 257 503 m 419 958 l 564 1167 l 744 1167 l 558 958 l 419 958 z "},"ě":{"ha":1042,"x_min":139,"x_max":928,"o":"m 257 503 l 813 503 l 761 424 q 703 640 761 564 q 539 717 646 717 q 356 638 422 717 q 289 424 289 560 q 356 197 289 278 q 544 117 422 117 q 683 153 622 117 q 783 256 743 189 l 928 256 q 852 110 907 172 q 718 13 797 47 q 544 -22 639 -22 q 328 32 419 -22 q 188 186 238 86 q 139 424 139 286 q 189 651 139 554 q 329 801 239 747 q 539 856 419 856 q 733 804 651 856 q 859 656 815 753 q 903 426 903 560 q 902 397 903 411 q 900 367 901 382 l 257 367 l 257 503 m 774 1167 l 629 958 l 438 958 l 293 1167 l 432 1167 l 579 1001 l 488 1001 l 635 1167 l 774 1167 z "},"ê":{"ha":1042,"x_min":139,"x_max":928,"o":"m 257 503 l 813 503 l 761 424 q 703 640 761 564 q 539 717 646 717 q 356 638 422 717 q 289 424 289 560 q 356 197 289 278 q 544 117 422 117 q 683 153 622 117 q 783 256 743 189 l 928 256 q 852 110 907 172 q 718 13 797 47 q 544 -22 639 -22 q 328 32 419 -22 q 188 186 238 86 q 139 424 139 286 q 189 651 139 554 q 329 801 239 747 q 539 856 419 856 q 733 804 651 856 q 859 656 815 753 q 903 426 903 560 q 902 397 903 411 q 900 367 901 382 l 257 367 l 257 503 m 293 958 l 438 1167 l 629 1167 l 774 958 l 635 958 l 488 1124 l 579 1124 l 432 958 l 293 958 z "},"ë":{"ha":1042,"x_min":139,"x_max":928,"o":"m 257 503 l 813 503 l 761 424 q 703 640 761 564 q 539 717 646 717 q 356 638 422 717 q 289 424 289 560 q 356 197 289 278 q 544 117 422 117 q 683 153 622 117 q 783 256 743 189 l 928 256 q 852 110 907 172 q 718 13 797 47 q 544 -22 639 -22 q 328 32 419 -22 q 188 186 238 86 q 139 424 139 286 q 189 651 139 554 q 329 801 239 747 q 539 856 419 856 q 733 804 651 856 q 859 656 815 753 q 903 426 903 560 q 902 397 903 411 q 900 367 901 382 l 257 367 l 257 503 m 351 972 q 270 999 300 972 q 240 1069 240 1025 q 270 1140 240 1114 q 351 1167 300 1167 q 433 1140 404 1167 q 463 1069 463 1114 q 433 999 463 1025 q 351 972 404 972 m 715 972 q 634 999 664 972 q 604 1069 604 1025 q 634 1140 604 1114 q 715 1167 664 1167 q 797 1140 768 1167 q 826 1069 826 1114 q 797 999 826 1025 q 715 972 768 972 z "},"ė":{"ha":1042,"x_min":139,"x_max":928,"o":"m 257 503 l 813 503 l 761 424 q 703 640 761 564 q 539 717 646 717 q 356 638 422 717 q 289 424 289 560 q 356 197 289 278 q 544 117 422 117 q 683 153 622 117 q 783 256 743 189 l 928 256 q 852 110 907 172 q 718 13 797 47 q 544 -22 639 -22 q 328 32 419 -22 q 188 186 238 86 q 139 424 139 286 q 189 651 139 554 q 329 801 239 747 q 539 856 419 856 q 733 804 651 856 q 859 656 815 753 q 903 426 903 560 q 902 397 903 411 q 900 367 901 382 l 257 367 l 257 503 m 533 961 q 444 990 476 961 q 411 1069 411 1018 q 444 1149 411 1121 q 533 1178 476 1178 q 623 1149 590 1178 q 656 1069 656 1121 q 623 990 656 1018 q 533 961 590 961 z "},"è":{"ha":1042,"x_min":139,"x_max":928,"o":"m 257 503 l 813 503 l 761 424 q 703 640 761 564 q 539 717 646 717 q 356 638 422 717 q 289 424 289 560 q 356 197 289 278 q 544 117 422 117 q 683 153 622 117 q 783 256 743 189 l 928 256 q 852 110 907 172 q 718 13 797 47 q 544 -22 639 -22 q 328 32 419 -22 q 188 186 238 86 q 139 424 139 286 q 189 651 139 554 q 329 801 239 747 q 539 856 419 856 q 733 804 651 856 q 859 656 815 753 q 903 426 903 560 q 902 397 903 411 q 900 367 901 382 l 257 367 l 257 503 m 647 958 l 508 958 l 322 1167 l 503 1167 l 647 958 z "},"ē":{"ha":1042,"x_min":139,"x_max":928,"o":"m 257 503 l 813 503 l 761 424 q 703 640 761 564 q 539 717 646 717 q 356 638 422 717 q 289 424 289 560 q 356 197 289 278 q 544 117 422 117 q 683 153 622 117 q 783 256 743 189 l 928 256 q 852 110 907 172 q 718 13 797 47 q 544 -22 639 -22 q 328 32 419 -22 q 188 186 238 86 q 139 424 139 286 q 189 651 139 554 q 329 801 239 747 q 539 856 419 856 q 733 804 651 856 q 859 656 815 753 q 903 426 903 560 q 902 397 903 411 q 900 367 901 382 l 257 367 l 257 503 m 297 1000 l 297 1125 l 769 1125 l 769 1000 l 297 1000 z "},"ę":{"ha":1042,"x_min":139,"x_max":928,"o":"m 257 503 l 813 503 l 761 424 q 703 640 761 564 q 539 717 646 717 q 356 638 422 717 q 289 424 289 560 q 356 197 289 278 q 544 117 422 117 q 683 153 622 117 q 783 256 743 189 l 928 256 q 852 110 907 172 q 718 13 797 47 q 544 -22 639 -22 q 328 32 419 -22 q 188 186 238 86 q 139 424 139 286 q 189 651 139 554 q 329 801 239 747 q 539 856 419 856 q 733 804 651 856 q 859 656 815 753 q 903 426 903 560 q 902 397 903 411 q 900 367 901 382 l 257 367 l 257 503 m 757 -300 q 629 -264 676 -300 q 582 -164 582 -228 q 616 -60 582 -115 q 708 42 650 -6 l 928 256 q 889 158 919 213 q 814 54 858 104 q 746 -34 771 7 q 721 -117 721 -75 q 740 -169 721 -150 q 793 -189 760 -189 q 815 -187 804 -189 q 835 -183 825 -186 l 835 -292 q 800 -298 818 -296 q 757 -300 782 -300 z "},"ẽ":{"ha":1042,"x_min":139,"x_max":928,"o":"m 257 503 l 813 503 l 761 424 q 703 640 761 564 q 539 717 646 717 q 356 638 422 717 q 289 424 289 560 q 356 197 289 278 q 544 117 422 117 q 683 153 622 117 q 783 256 743 189 l 928 256 q 852 110 907 172 q 718 13 797 47 q 544 -22 639 -22 q 328 32 419 -22 q 188 186 238 86 q 139 424 139 286 q 189 651 139 554 q 329 801 239 747 q 539 856 419 856 q 733 804 651 856 q 859 656 815 753 q 903 426 903 560 q 902 397 903 411 q 900 367 901 382 l 257 367 l 257 503 m 272 958 q 320 1113 282 1065 q 433 1161 358 1161 q 523 1144 489 1161 q 581 1109 557 1126 q 633 1092 606 1092 q 663 1110 653 1092 q 678 1167 672 1128 l 794 1167 q 747 1013 785 1061 q 633 964 708 964 q 544 981 578 964 q 485 1016 510 999 q 433 1033 461 1033 q 405 1016 415 1033 q 389 958 394 999 l 272 958 z "},"ə":{"ha":1042,"x_min":114,"x_max":903,"o":"m 785 331 l 229 331 l 281 410 q 339 194 281 271 q 503 117 397 117 q 686 196 619 117 q 753 410 753 275 q 687 636 753 556 q 497 717 621 717 q 360 681 421 717 q 258 578 299 644 l 114 578 q 190 724 135 661 q 324 821 244 786 q 497 856 403 856 q 714 801 624 856 q 853 648 804 747 q 903 410 903 549 q 853 183 903 281 q 713 32 803 86 q 503 -22 624 -22 q 309 30 390 -22 q 183 178 228 82 q 139 407 139 274 q 140 438 139 422 q 142 467 140 453 l 785 467 l 785 331 z "},"f":{"ha":1042,"x_min":194,"x_max":989,"o":"m 550 0 l 397 0 l 397 689 l 194 689 l 194 833 l 397 833 l 397 914 q 475 1124 397 1049 q 692 1200 553 1200 q 902 1136 824 1200 q 989 958 981 1072 l 847 958 q 786 1033 825 1007 q 692 1058 747 1058 q 588 1017 625 1058 q 550 900 550 975 l 550 833 l 903 833 l 903 689 l 550 689 l 550 0 z "},"g":{"ha":1042,"x_min":117,"x_max":897,"o":"m 897 28 q 850 -144 897 -71 q 715 -259 803 -218 q 506 -300 628 -300 q 307 -266 393 -300 q 171 -171 221 -232 q 117 -28 121 -110 l 267 -28 q 353 -126 290 -90 q 506 -161 417 -161 q 681 -108 618 -161 q 744 42 744 -54 l 744 131 l 703 131 q 612 64 672 89 q 483 39 551 39 q 291 90 374 39 q 163 232 208 140 q 117 444 117 324 q 163 660 117 568 q 291 804 208 753 q 483 856 374 856 q 613 829 553 856 q 703 758 674 803 l 744 758 l 744 833 l 897 833 l 897 28 m 269 444 q 334 249 269 321 q 511 178 399 178 q 688 249 624 178 q 753 444 753 321 q 688 640 753 568 q 511 711 624 711 q 334 640 399 711 q 269 444 269 568 z "},"ğ":{"ha":1042,"x_min":117,"x_max":897,"o":"m 897 28 q 850 -144 897 -71 q 715 -259 803 -218 q 506 -300 628 -300 q 307 -266 393 -300 q 171 -171 221 -232 q 117 -28 121 -110 l 267 -28 q 353 -126 290 -90 q 506 -161 417 -161 q 681 -108 618 -161 q 744 42 744 -54 l 744 131 l 703 131 q 612 64 672 89 q 483 39 551 39 q 291 90 374 39 q 163 232 208 140 q 117 444 117 324 q 163 660 117 568 q 291 804 208 753 q 483 856 374 856 q 613 829 553 856 q 703 758 674 803 l 744 758 l 744 833 l 897 833 l 897 28 m 269 444 q 334 249 269 321 q 511 178 399 178 q 688 249 624 178 q 753 444 753 321 q 688 640 753 568 q 511 711 624 711 q 334 640 399 711 q 269 444 269 568 m 421 1153 q 454 1076 425 1101 q 535 1050 483 1050 q 616 1076 588 1050 q 649 1153 644 1101 l 788 1153 q 715 997 778 1050 q 535 944 651 944 q 355 997 418 944 q 282 1153 292 1050 l 421 1153 z "},"ǧ":{"ha":1042,"x_min":117,"x_max":897,"o":"m 897 28 q 850 -144 897 -71 q 715 -259 803 -218 q 506 -300 628 -300 q 307 -266 393 -300 q 171 -171 221 -232 q 117 -28 121 -110 l 267 -28 q 353 -126 290 -90 q 506 -161 417 -161 q 681 -108 618 -161 q 744 42 744 -54 l 744 131 l 703 131 q 612 64 672 89 q 483 39 551 39 q 291 90 374 39 q 163 232 208 140 q 117 444 117 324 q 163 660 117 568 q 291 804 208 753 q 483 856 374 856 q 613 829 553 856 q 703 758 674 803 l 744 758 l 744 833 l 897 833 l 897 28 m 269 444 q 334 249 269 321 q 511 178 399 178 q 688 249 624 178 q 753 444 753 321 q 688 640 753 568 q 511 711 624 711 q 334 640 399 711 q 269 444 269 568 m 775 1167 l 631 958 l 439 958 l 294 1167 l 433 1167 l 581 1001 l 489 1001 l 636 1167 l 775 1167 z "},"ģ":{"ha":1042,"x_min":117,"x_max":897,"o":"m 897 28 q 850 -144 897 -71 q 715 -259 803 -218 q 506 -300 628 -300 q 307 -266 393 -300 q 171 -171 221 -232 q 117 -28 121 -110 l 267 -28 q 353 -126 290 -90 q 506 -161 417 -161 q 681 -108 618 -161 q 744 42 744 -54 l 744 131 l 703 131 q 612 64 672 89 q 483 39 551 39 q 291 90 374 39 q 163 232 208 140 q 117 444 117 324 q 163 660 117 568 q 291 804 208 753 q 483 856 374 856 q 613 829 553 856 q 703 758 674 803 l 744 758 l 744 833 l 897 833 l 897 28 m 269 444 q 334 249 269 321 q 511 178 399 178 q 688 249 624 178 q 753 444 753 321 q 688 640 753 568 q 511 711 624 711 q 334 640 399 711 q 269 444 269 568 m 533 1069 q 602 1049 576 1069 q 628 993 628 1028 q 602 938 628 958 q 533 917 576 917 q 465 938 490 917 q 439 993 439 958 q 465 1049 439 1028 q 533 1069 490 1069 m 636 1181 q 560 1114 586 1147 q 533 1058 533 1081 l 533 917 q 460 942 486 917 q 433 1014 433 967 q 449 1098 433 1054 q 494 1181 465 1142 l 636 1181 z "},"ġ":{"ha":1042,"x_min":117,"x_max":897,"o":"m 897 28 q 850 -144 897 -71 q 715 -259 803 -218 q 506 -300 628 -300 q 307 -266 393 -300 q 171 -171 221 -232 q 117 -28 121 -110 l 267 -28 q 353 -126 290 -90 q 506 -161 417 -161 q 681 -108 618 -161 q 744 42 744 -54 l 744 131 l 703 131 q 612 64 672 89 q 483 39 551 39 q 291 90 374 39 q 163 232 208 140 q 117 444 117 324 q 163 660 117 568 q 291 804 208 753 q 483 856 374 856 q 613 829 553 856 q 703 758 674 803 l 744 758 l 744 833 l 897 833 l 897 28 m 269 444 q 334 249 269 321 q 511 178 399 178 q 688 249 624 178 q 753 444 753 321 q 688 640 753 568 q 511 711 624 711 q 334 640 399 711 q 269 444 269 568 m 535 961 q 445 990 478 961 q 413 1069 413 1018 q 445 1149 413 1121 q 535 1178 478 1178 q 624 1149 592 1178 q 657 1069 657 1121 q 624 990 657 1018 q 535 961 592 961 z "},"h":{"ha":1042,"x_min":167,"x_max":892,"o":"m 167 0 l 167 1178 l 319 1178 l 319 767 l 361 767 q 451 832 396 808 q 571 856 507 856 q 740 814 668 856 q 851 697 811 772 q 892 522 892 622 l 892 0 l 739 0 l 739 481 q 685 649 739 590 q 529 708 631 708 q 374 649 428 708 q 319 481 319 590 l 319 0 l 167 0 z "},"ħ":{"ha":1042,"x_min":42,"x_max":892,"o":"m 42 942 l 42 1067 l 542 1067 l 542 942 l 42 942 m 167 0 l 167 1178 l 319 1178 l 319 767 l 361 767 q 451 832 396 808 q 571 856 507 856 q 740 814 668 856 q 851 697 811 772 q 892 522 892 622 l 892 0 l 739 0 l 739 481 q 685 649 739 590 q 529 708 631 708 q 374 649 428 708 q 319 481 319 590 l 319 0 l 167 0 z "},"ḥ":{"ha":1042,"x_min":167,"x_max":892,"o":"m 167 0 l 167 1178 l 319 1178 l 319 767 l 361 767 q 451 832 396 808 q 571 856 507 856 q 740 814 668 856 q 851 697 811 772 q 892 522 892 622 l 892 0 l 739 0 l 739 481 q 685 649 739 590 q 529 708 631 708 q 374 649 428 708 q 319 481 319 590 l 319 0 l 167 0 m 521 -344 q 431 -316 464 -344 q 399 -236 399 -287 q 431 -156 399 -185 q 521 -128 464 -128 q 610 -156 578 -128 q 643 -236 643 -185 q 610 -316 643 -287 q 521 -344 578 -344 z "},"i":{"ha":1042,"x_min":215,"x_max":924,"o":"m 215 833 l 646 833 l 646 144 l 924 144 l 924 0 l 215 0 l 215 144 l 493 144 l 493 689 l 215 689 l 215 833 m 558 961 q 469 990 501 961 q 436 1069 436 1018 q 469 1149 436 1121 q 558 1178 501 1178 q 648 1149 615 1178 q 681 1069 681 1121 q 648 990 681 1018 q 558 961 615 961 z "},"ı":{"ha":1042,"x_min":215,"x_max":924,"o":"m 215 833 l 646 833 l 646 144 l 924 144 l 924 0 l 215 0 l 215 144 l 493 144 l 493 689 l 215 689 l 215 833 z "},"í":{"ha":1042,"x_min":215,"x_max":924,"o":"m 215 833 l 646 833 l 646 144 l 924 144 l 924 0 l 215 0 l 215 144 l 493 144 l 493 689 l 215 689 l 215 833 m 489 958 l 633 1167 l 814 1167 l 628 958 l 489 958 z "},"î":{"ha":1042,"x_min":215,"x_max":924,"o":"m 215 833 l 646 833 l 646 144 l 924 144 l 924 0 l 215 0 l 215 144 l 493 144 l 493 689 l 215 689 l 215 833 m 318 958 l 463 1167 l 654 1167 l 799 958 l 660 958 l 513 1124 l 604 1124 l 457 958 l 318 958 z "},"ï":{"ha":1042,"x_min":215,"x_max":924,"o":"m 215 833 l 646 833 l 646 144 l 924 144 l 924 0 l 215 0 l 215 144 l 493 144 l 493 689 l 215 689 l 215 833 m 376 972 q 295 999 325 972 q 265 1069 265 1025 q 295 1140 265 1114 q 376 1167 325 1167 q 458 1140 429 1167 q 488 1069 488 1114 q 458 999 488 1025 q 376 972 429 972 m 740 972 q 659 999 689 972 q 629 1069 629 1025 q 659 1140 629 1114 q 740 1167 689 1167 q 822 1140 793 1167 q 851 1069 851 1114 q 822 999 851 1025 q 740 972 793 972 z "},"ị":{"ha":1042,"x_min":215,"x_max":924,"o":"m 215 833 l 646 833 l 646 144 l 924 144 l 924 0 l 215 0 l 215 144 l 493 144 l 493 689 l 215 689 l 215 833 m 558 961 q 469 990 501 961 q 436 1069 436 1018 q 469 1149 436 1121 q 558 1178 501 1178 q 648 1149 615 1178 q 681 1069 681 1121 q 648 990 681 1018 q 558 961 615 961 m 558 -344 q 469 -316 501 -344 q 436 -236 436 -287 q 469 -156 436 -185 q 558 -128 501 -128 q 648 -156 615 -128 q 681 -236 681 -185 q 648 -316 681 -287 q 558 -344 615 -344 z "},"ì":{"ha":1042,"x_min":215,"x_max":924,"o":"m 215 833 l 646 833 l 646 144 l 924 144 l 924 0 l 215 0 l 215 144 l 493 144 l 493 689 l 215 689 l 215 833 m 628 958 l 489 958 l 303 1167 l 483 1167 l 628 958 z "},"ĳ":{"ha":1042,"x_min":121,"x_max":921,"o":"m 319 833 l 319 0 l 167 0 l 167 833 l 319 833 m 243 961 q 153 990 186 961 q 121 1069 121 1018 q 153 1149 121 1121 q 243 1178 186 1178 q 333 1149 300 1178 q 365 1069 365 1121 q 333 990 365 1018 q 243 961 300 961 m 875 833 l 875 -22 q 799 -228 875 -156 q 581 -300 722 -300 l 464 -300 l 464 -161 l 581 -161 q 685 -121 647 -161 q 722 -8 722 -81 l 722 833 l 875 833 m 799 961 q 709 990 742 961 q 676 1069 676 1018 q 709 1149 676 1121 q 799 1178 742 1178 q 888 1149 856 1178 q 921 1069 921 1121 q 888 990 921 1018 q 799 961 856 961 z "},"ī":{"ha":1042,"x_min":215,"x_max":924,"o":"m 215 833 l 646 833 l 646 144 l 924 144 l 924 0 l 215 0 l 215 144 l 493 144 l 493 689 l 215 689 l 215 833 m 322 1000 l 322 1125 l 794 1125 l 794 1000 l 322 1000 z "},"į":{"ha":1042,"x_min":215,"x_max":924,"o":"m 215 833 l 646 833 l 646 144 l 924 144 l 924 0 l 215 0 l 215 144 l 493 144 l 493 689 l 215 689 l 215 833 m 558 961 q 469 990 501 961 q 436 1069 436 1018 q 469 1149 436 1121 q 558 1178 501 1178 q 648 1149 615 1178 q 681 1069 681 1121 q 648 990 681 1018 q 558 961 615 961 m 832 -300 q 704 -264 751 -300 q 657 -164 657 -228 q 685 -74 657 -118 q 763 0 714 -31 l 832 3 l 910 0 q 826 -60 857 -25 q 796 -131 796 -94 q 814 -173 796 -157 q 863 -189 832 -189 q 888 -187 878 -189 q 910 -183 897 -186 l 910 -292 q 875 -298 893 -296 q 832 -300 857 -300 z "},"ĩ":{"ha":1042,"x_min":215,"x_max":924,"o":"m 215 833 l 646 833 l 646 144 l 924 144 l 924 0 l 215 0 l 215 144 l 493 144 l 493 689 l 215 689 l 215 833 m 297 958 q 345 1113 307 1065 q 458 1161 383 1161 q 548 1144 514 1161 q 606 1109 582 1126 q 658 1092 631 1092 q 688 1110 678 1092 q 703 1167 697 1128 l 819 1167 q 772 1013 810 1061 q 658 964 733 964 q 569 981 603 964 q 510 1016 535 999 q 458 1033 486 1033 q 430 1016 440 1033 q 414 958 419 999 l 297 958 z "},"j":{"ha":1042,"x_min":151,"x_max":789,"o":"m 201 833 l 743 833 l 743 -22 q 667 -228 743 -156 q 449 -300 590 -300 q 238 -239 315 -300 q 151 -64 161 -178 l 296 -64 q 355 -136 317 -111 q 449 -161 393 -161 q 553 -121 515 -161 q 590 -8 590 -81 l 590 689 l 201 689 l 201 833 m 667 961 q 577 990 610 961 q 544 1069 544 1018 q 577 1149 544 1121 q 667 1178 610 1178 q 756 1149 724 1178 q 789 1069 789 1121 q 756 990 789 1018 q 667 961 724 961 z "},"ȷ":{"ha":1042,"x_min":151,"x_max":743,"o":"m 201 833 l 743 833 l 743 -22 q 667 -228 743 -156 q 449 -300 590 -300 q 238 -239 315 -300 q 151 -64 161 -178 l 296 -64 q 355 -136 317 -111 q 449 -161 393 -161 q 553 -121 515 -161 q 590 -8 590 -81 l 590 689 l 201 689 l 201 833 z "},"k":{"ha":1042,"x_min":239,"x_max":953,"o":"m 738 0 l 342 406 l 751 833 l 953 833 l 546 411 l 947 0 l 738 0 m 239 0 l 239 1178 l 392 1178 l 392 0 l 239 0 z "},"ķ":{"ha":1042,"x_min":239,"x_max":953,"o":"m 738 0 l 342 406 l 751 833 l 953 833 l 546 411 l 947 0 l 738 0 m 239 0 l 239 1178 l 392 1178 l 392 0 l 239 0 m 560 -236 q 491 -215 517 -236 q 465 -160 465 -194 q 491 -104 465 -125 q 560 -83 517 -83 q 628 -104 603 -83 q 654 -160 654 -125 q 628 -215 654 -194 q 560 -236 603 -236 m 457 -347 q 533 -281 507 -314 q 560 -225 560 -247 l 560 -83 q 634 -108 608 -83 q 660 -181 660 -133 q 644 -264 660 -221 q 599 -347 628 -307 l 457 -347 z "},"ĸ":{"ha":1042,"x_min":231,"x_max":944,"o":"m 729 0 l 333 406 l 743 833 l 944 833 l 538 411 l 939 0 l 729 0 m 231 0 l 231 833 l 383 833 l 383 0 l 231 0 z "},"l":{"ha":1042,"x_min":194,"x_max":903,"o":"m 194 1178 l 625 1178 l 625 144 l 903 144 l 903 0 l 194 0 l 194 144 l 472 144 l 472 1033 l 194 1033 l 194 1178 z "},"ĺ":{"ha":1042,"x_min":194,"x_max":903,"o":"m 194 1178 l 625 1178 l 625 144 l 903 144 l 903 0 l 194 0 l 194 144 l 472 144 l 472 1033 l 194 1033 l 194 1178 m 481 1303 l 625 1511 l 806 1511 l 619 1303 l 481 1303 z "},"ľ":{"ha":1042,"x_min":194,"x_max":936,"o":"m 194 1178 l 625 1178 l 625 144 l 903 144 l 903 0 l 194 0 l 194 144 l 472 144 l 472 1033 l 194 1033 l 194 1178 m 722 900 l 783 1178 l 936 1178 l 847 900 l 722 900 z "},"ļ":{"ha":1042,"x_min":194,"x_max":903,"o":"m 194 1178 l 625 1178 l 625 144 l 903 144 l 903 0 l 194 0 l 194 144 l 472 144 l 472 1033 l 194 1033 l 194 1178 m 546 -236 q 477 -215 503 -236 q 451 -160 451 -194 q 477 -104 451 -125 q 546 -83 503 -83 q 615 -104 589 -83 q 640 -160 640 -125 q 615 -215 640 -194 q 546 -236 589 -236 m 443 -347 q 519 -281 493 -314 q 546 -225 546 -247 l 546 -83 q 620 -108 594 -83 q 646 -181 646 -133 q 630 -264 646 -221 q 585 -347 614 -307 l 443 -347 z "},"ŀ":{"ha":1042,"x_min":125,"x_max":949,"o":"m 125 1178 l 556 1178 l 556 144 l 833 144 l 833 0 l 125 0 l 125 144 l 403 144 l 403 1033 l 125 1033 l 125 1178 m 811 458 q 710 492 746 458 q 674 589 674 526 q 710 685 674 651 q 811 719 746 719 q 913 685 876 719 q 949 589 949 651 q 913 492 949 526 q 811 458 876 458 z "},"ł":{"ha":1042,"x_min":194,"x_max":903,"o":"m 236 410 l 236 554 l 819 874 l 819 729 l 236 410 m 194 1178 l 625 1178 l 625 144 l 903 144 l 903 0 l 194 0 l 194 144 l 472 144 l 472 1033 l 194 1033 l 194 1178 z "},"m":{"ha":1042,"x_min":111,"x_max":936,"o":"m 111 833 l 264 833 l 264 767 l 374 767 l 283 711 q 328 817 288 778 q 433 856 368 856 q 535 810 493 856 q 586 692 576 765 l 496 758 l 674 758 l 590 711 q 640 816 594 776 q 753 856 685 856 q 885 791 835 856 q 936 619 936 726 l 936 0 l 783 0 l 783 556 q 760 651 783 619 q 692 683 738 683 q 623 651 646 683 q 600 556 600 619 l 600 0 l 447 0 l 447 556 q 424 651 447 619 q 356 683 401 683 q 287 651 310 683 q 264 556 264 619 l 264 0 l 111 0 l 111 833 z "},"n":{"ha":1042,"x_min":167,"x_max":892,"o":"m 167 0 l 167 833 l 319 833 l 319 767 l 361 767 q 451 832 396 808 q 571 856 507 856 q 740 814 668 856 q 851 697 811 772 q 892 522 892 622 l 892 0 l 739 0 l 739 481 q 685 649 739 590 q 529 708 631 708 q 374 649 428 708 q 319 481 319 590 l 319 0 l 167 0 z "},"ń":{"ha":1042,"x_min":167,"x_max":892,"o":"m 167 0 l 167 833 l 319 833 l 319 767 l 361 767 q 451 832 396 808 q 571 856 507 856 q 740 814 668 856 q 851 697 811 772 q 892 522 892 622 l 892 0 l 739 0 l 739 481 q 685 649 739 590 q 529 708 631 708 q 374 649 428 708 q 319 481 319 590 l 319 0 l 167 0 m 407 958 l 551 1167 l 732 1167 l 546 958 l 407 958 z "},"ň":{"ha":1042,"x_min":167,"x_max":892,"o":"m 167 0 l 167 833 l 319 833 l 319 767 l 361 767 q 451 832 396 808 q 571 856 507 856 q 740 814 668 856 q 851 697 811 772 q 892 522 892 622 l 892 0 l 739 0 l 739 481 q 685 649 739 590 q 529 708 631 708 q 374 649 428 708 q 319 481 319 590 l 319 0 l 167 0 m 761 1167 l 617 958 l 425 958 l 281 1167 l 419 1167 l 567 1001 l 475 1001 l 622 1167 l 761 1167 z "},"ņ":{"ha":1042,"x_min":167,"x_max":892,"o":"m 167 0 l 167 833 l 319 833 l 319 767 l 361 767 q 451 832 396 808 q 571 856 507 856 q 740 814 668 856 q 851 697 811 772 q 892 522 892 622 l 892 0 l 739 0 l 739 481 q 685 649 739 590 q 529 708 631 708 q 374 649 428 708 q 319 481 319 590 l 319 0 l 167 0 m 518 -236 q 449 -215 475 -236 q 424 -160 424 -194 q 449 -104 424 -125 q 518 -83 475 -83 q 587 -104 561 -83 q 613 -160 613 -125 q 587 -215 613 -194 q 518 -236 561 -236 m 415 -347 q 492 -281 465 -314 q 518 -225 518 -247 l 518 -83 q 592 -108 567 -83 q 618 -181 618 -133 q 602 -264 618 -221 q 557 -347 586 -307 l 415 -347 z "},"ɲ":{"ha":1042,"x_min":14,"x_max":892,"o":"m 14 -300 l 14 -169 l 42 -169 q 167 -32 167 -169 l 167 0 l 243 28 l 319 0 l 319 -24 q 250 -230 319 -160 q 44 -300 181 -300 l 14 -300 m 167 0 l 167 833 l 319 833 l 319 767 l 361 767 q 451 832 396 808 q 571 856 507 856 q 740 814 668 856 q 851 697 811 772 q 892 522 892 622 l 892 0 l 739 0 l 739 481 q 685 649 739 590 q 529 708 631 708 q 374 649 428 708 q 319 481 319 590 l 319 0 l 167 0 z "},"ñ":{"ha":1042,"x_min":167,"x_max":892,"o":"m 167 0 l 167 833 l 319 833 l 319 767 l 361 767 q 451 832 396 808 q 571 856 507 856 q 740 814 668 856 q 851 697 811 772 q 892 522 892 622 l 892 0 l 739 0 l 739 481 q 685 649 739 590 q 529 708 631 708 q 374 649 428 708 q 319 481 319 590 l 319 0 l 167 0 m 260 958 q 308 1113 269 1065 q 421 1161 346 1161 q 510 1144 476 1161 q 569 1109 544 1126 q 621 1092 593 1092 q 650 1110 640 1092 q 665 1167 660 1128 l 782 1167 q 734 1013 772 1061 q 621 964 696 964 q 531 981 565 964 q 473 1016 497 999 q 421 1033 449 1033 q 392 1016 403 1033 q 376 958 382 999 l 260 958 z "},"ŋ":{"ha":1042,"x_min":167,"x_max":892,"o":"m 586 -300 l 586 -169 l 614 -169 q 739 -32 739 -169 l 739 0 l 815 28 l 892 0 l 892 -24 q 822 -230 892 -160 q 617 -300 753 -300 l 586 -300 m 167 0 l 167 833 l 319 833 l 319 767 l 361 767 q 451 832 396 808 q 571 856 507 856 q 740 814 668 856 q 851 697 811 772 q 892 522 892 622 l 892 0 l 739 0 l 739 481 q 685 649 739 590 q 529 708 631 708 q 374 649 428 708 q 319 481 319 590 l 319 0 l 167 0 z "},"o":{"ha":1042,"x_min":111,"x_max":931,"o":"m 521 -22 q 306 33 399 -22 q 163 186 214 88 q 111 417 111 285 q 163 647 111 549 q 306 801 214 746 q 521 856 399 856 q 736 801 644 856 q 879 647 828 746 q 931 417 931 549 q 879 186 931 285 q 736 33 828 88 q 521 -22 644 -22 m 521 122 q 709 201 640 122 q 778 417 778 281 q 709 632 778 553 q 521 711 640 711 q 333 632 401 711 q 264 417 264 553 q 333 201 264 281 q 521 122 401 122 z "},"ó":{"ha":1042,"x_min":111,"x_max":931,"o":"m 521 -22 q 306 33 399 -22 q 163 186 214 88 q 111 417 111 285 q 163 647 111 549 q 306 801 214 746 q 521 856 399 856 q 736 801 644 856 q 879 647 828 746 q 931 417 931 549 q 879 186 931 285 q 736 33 828 88 q 521 -22 644 -22 m 521 122 q 709 201 640 122 q 778 417 778 281 q 709 632 778 553 q 521 711 640 711 q 333 632 401 711 q 264 417 264 553 q 333 201 264 281 q 521 122 401 122 m 407 958 l 551 1167 l 732 1167 l 546 958 l 407 958 z "},"ô":{"ha":1042,"x_min":111,"x_max":931,"o":"m 521 -22 q 306 33 399 -22 q 163 186 214 88 q 111 417 111 285 q 163 647 111 549 q 306 801 214 746 q 521 856 399 856 q 736 801 644 856 q 879 647 828 746 q 931 417 931 549 q 879 186 931 285 q 736 33 828 88 q 521 -22 644 -22 m 521 122 q 709 201 640 122 q 778 417 778 281 q 709 632 778 553 q 521 711 640 711 q 333 632 401 711 q 264 417 264 553 q 333 201 264 281 q 521 122 401 122 m 281 958 l 425 1167 l 617 1167 l 761 958 l 622 958 l 475 1124 l 567 1124 l 419 958 l 281 958 z "},"ö":{"ha":1042,"x_min":111,"x_max":931,"o":"m 521 -22 q 306 33 399 -22 q 163 186 214 88 q 111 417 111 285 q 163 647 111 549 q 306 801 214 746 q 521 856 399 856 q 736 801 644 856 q 879 647 828 746 q 931 417 931 549 q 879 186 931 285 q 736 33 828 88 q 521 -22 644 -22 m 521 122 q 709 201 640 122 q 778 417 778 281 q 709 632 778 553 q 521 711 640 711 q 333 632 401 711 q 264 417 264 553 q 333 201 264 281 q 521 122 401 122 m 339 972 q 258 999 288 972 q 228 1069 228 1025 q 258 1140 228 1114 q 339 1167 288 1167 q 421 1140 392 1167 q 450 1069 450 1114 q 421 999 450 1025 q 339 972 392 972 m 703 972 q 622 999 651 972 q 592 1069 592 1025 q 622 1140 592 1114 q 703 1167 651 1167 q 785 1140 756 1167 q 814 1069 814 1114 q 785 999 814 1025 q 703 972 756 972 z "},"ọ":{"ha":1042,"x_min":111,"x_max":931,"o":"m 521 -22 q 306 33 399 -22 q 163 186 214 88 q 111 417 111 285 q 163 647 111 549 q 306 801 214 746 q 521 856 399 856 q 736 801 644 856 q 879 647 828 746 q 931 417 931 549 q 879 186 931 285 q 736 33 828 88 q 521 -22 644 -22 m 521 122 q 709 201 640 122 q 778 417 778 281 q 709 632 778 553 q 521 711 640 711 q 333 632 401 711 q 264 417 264 553 q 333 201 264 281 q 521 122 401 122 m 521 -344 q 431 -316 464 -344 q 399 -236 399 -287 q 431 -156 399 -185 q 521 -128 464 -128 q 610 -156 578 -128 q 643 -236 643 -185 q 610 -316 643 -287 q 521 -344 578 -344 z "},"ò":{"ha":1042,"x_min":111,"x_max":931,"o":"m 521 -22 q 306 33 399 -22 q 163 186 214 88 q 111 417 111 285 q 163 647 111 549 q 306 801 214 746 q 521 856 399 856 q 736 801 644 856 q 879 647 828 746 q 931 417 931 549 q 879 186 931 285 q 736 33 828 88 q 521 -22 644 -22 m 521 122 q 709 201 640 122 q 778 417 778 281 q 709 632 778 553 q 521 711 640 711 q 333 632 401 711 q 264 417 264 553 q 333 201 264 281 q 521 122 401 122 m 635 958 l 496 958 l 310 1167 l 490 1167 l 635 958 z "},"ő":{"ha":1042,"x_min":111,"x_max":931,"o":"m 521 -22 q 306 33 399 -22 q 163 186 214 88 q 111 417 111 285 q 163 647 111 549 q 306 801 214 746 q 521 856 399 856 q 736 801 644 856 q 879 647 828 746 q 931 417 931 549 q 879 186 931 285 q 736 33 828 88 q 521 -22 644 -22 m 521 122 q 709 201 640 122 q 778 417 778 281 q 709 632 778 553 q 521 711 640 711 q 333 632 401 711 q 264 417 264 553 q 333 201 264 281 q 521 122 401 122 m 274 958 l 404 1167 l 582 1167 l 410 958 l 274 958 m 549 958 l 721 1167 l 910 1167 l 696 958 l 549 958 z "},"ō":{"ha":1042,"x_min":111,"x_max":931,"o":"m 521 -22 q 306 33 399 -22 q 163 186 214 88 q 111 417 111 285 q 163 647 111 549 q 306 801 214 746 q 521 856 399 856 q 736 801 644 856 q 879 647 828 746 q 931 417 931 549 q 879 186 931 285 q 736 33 828 88 q 521 -22 644 -22 m 521 122 q 709 201 640 122 q 778 417 778 281 q 709 632 778 553 q 521 711 640 711 q 333 632 401 711 q 264 417 264 553 q 333 201 264 281 q 521 122 401 122 m 285 1000 l 285 1125 l 757 1125 l 757 1000 l 285 1000 z "},"ø":{"ha":1042,"x_min":111,"x_max":931,"o":"m 776 856 l 931 856 l 265 -22 l 111 -22 l 776 856 m 521 -22 q 306 33 399 -22 q 163 186 214 88 q 111 417 111 285 q 163 647 111 549 q 306 801 214 746 q 521 856 399 856 q 736 801 644 856 q 879 647 828 746 q 931 417 931 549 q 879 186 931 285 q 736 33 828 88 q 521 -22 644 -22 m 521 122 q 709 201 640 122 q 778 417 778 281 q 709 632 778 553 q 521 711 640 711 q 333 632 401 711 q 264 417 264 553 q 333 201 264 281 q 521 122 401 122 z "},"ǿ":{"ha":1042,"x_min":111,"x_max":931,"o":"m 776 856 l 931 856 l 265 -22 l 111 -22 l 776 856 m 521 -22 q 306 33 399 -22 q 163 186 214 88 q 111 417 111 285 q 163 647 111 549 q 306 801 214 746 q 521 856 399 856 q 736 801 644 856 q 879 647 828 746 q 931 417 931 549 q 879 186 931 285 q 736 33 828 88 q 521 -22 644 -22 m 521 122 q 709 201 640 122 q 778 417 778 281 q 709 632 778 553 q 521 711 640 711 q 333 632 401 711 q 264 417 264 553 q 333 201 264 281 q 521 122 401 122 m 407 958 l 551 1167 l 732 1167 l 546 958 l 407 958 z "},"õ":{"ha":1042,"x_min":111,"x_max":931,"o":"m 521 -22 q 306 33 399 -22 q 163 186 214 88 q 111 417 111 285 q 163 647 111 549 q 306 801 214 746 q 521 856 399 856 q 736 801 644 856 q 879 647 828 746 q 931 417 931 549 q 879 186 931 285 q 736 33 828 88 q 521 -22 644 -22 m 521 122 q 709 201 640 122 q 778 417 778 281 q 709 632 778 553 q 521 711 640 711 q 333 632 401 711 q 264 417 264 553 q 333 201 264 281 q 521 122 401 122 m 260 958 q 308 1113 269 1065 q 421 1161 346 1161 q 510 1144 476 1161 q 569 1109 544 1126 q 621 1092 593 1092 q 650 1110 640 1092 q 665 1167 660 1128 l 782 1167 q 734 1013 772 1061 q 621 964 696 964 q 531 981 565 964 q 473 1016 497 999 q 421 1033 449 1033 q 392 1016 403 1033 q 376 958 382 999 l 260 958 z "},"œ":{"ha":1042,"x_min":64,"x_max":1008,"o":"m 338 -22 q 183 25 244 -22 q 93 169 122 72 q 64 417 64 267 q 93 664 64 567 q 183 808 122 761 q 338 856 244 856 q 492 808 432 856 q 582 664 553 761 q 611 417 611 567 q 582 169 611 267 q 492 25 553 72 q 338 -22 432 -22 m 346 122 q 419 154 390 122 q 461 251 447 186 q 475 417 475 317 q 461 583 475 518 q 419 679 447 647 q 346 711 390 711 q 273 679 301 711 q 231 583 244 647 q 217 417 217 518 q 231 251 217 317 q 273 154 244 186 q 346 122 301 122 m 758 -22 q 608 26 668 -22 q 520 172 549 74 q 492 424 492 271 q 519 667 492 572 q 606 809 547 763 q 753 856 664 856 q 888 813 836 856 q 965 675 940 769 q 989 426 989 581 q 988 397 989 411 q 986 367 988 382 l 586 367 l 586 503 l 899 503 l 847 424 q 838 594 847 531 q 806 688 828 658 q 747 717 783 717 q 678 685 706 717 q 638 589 651 654 q 625 424 625 524 q 639 251 625 319 q 681 150 653 183 q 753 117 710 117 q 823 153 793 117 q 867 256 853 189 l 1008 256 q 928 49 993 121 q 758 -22 864 -22 z "},"p":{"ha":1042,"x_min":153,"x_max":953,"o":"m 153 -278 l 153 833 l 306 833 l 306 750 l 347 750 q 440 827 376 799 q 578 856 503 856 q 775 801 690 856 q 906 647 860 746 q 953 417 953 549 q 906 186 953 285 q 775 33 860 88 q 578 -22 690 -22 q 440 7 503 -22 q 347 83 376 36 l 306 83 l 306 -278 l 153 -278 m 550 122 q 733 201 667 122 q 800 417 800 281 q 733 632 800 553 q 550 711 667 711 q 367 632 433 711 q 300 417 300 553 q 367 201 300 281 q 550 122 433 122 z "},"þ":{"ha":1042,"x_min":153,"x_max":953,"o":"m 578 -22 q 440 7 503 -22 q 347 83 376 36 l 306 83 l 306 -278 l 153 -278 l 153 1178 l 306 1178 l 306 750 l 347 750 q 440 827 376 799 q 578 856 503 856 q 775 801 690 856 q 906 647 860 746 q 953 417 953 549 q 906 186 953 285 q 775 33 860 88 q 578 -22 690 -22 m 300 417 q 367 201 300 281 q 550 122 433 122 q 733 201 667 122 q 800 417 800 281 q 733 632 800 553 q 550 711 667 711 q 367 632 433 711 q 300 417 300 553 z "},"q":{"ha":1042,"x_min":89,"x_max":889,"o":"m 736 -278 l 736 83 l 694 83 q 602 7 665 36 q 464 -22 539 -22 q 267 33 351 -22 q 136 186 183 88 q 89 417 89 285 q 136 647 89 549 q 267 801 183 746 q 464 856 351 856 q 602 827 539 856 q 694 750 665 799 l 736 750 l 736 833 l 889 833 l 889 -278 l 736 -278 m 492 122 q 675 201 608 122 q 742 417 742 281 q 675 632 742 553 q 492 711 608 711 q 308 632 375 711 q 242 417 242 553 q 308 201 242 281 q 492 122 375 122 z "},"r":{"ha":1042,"x_min":139,"x_max":944,"o":"m 139 833 l 483 833 l 483 769 l 525 769 q 599 833 553 811 q 706 856 646 856 q 881 783 817 856 q 944 583 944 711 l 944 472 l 786 472 l 786 561 q 656 711 786 711 q 535 644 575 711 q 494 444 494 576 l 494 144 l 783 144 l 783 0 l 167 0 l 167 144 l 342 144 l 342 689 l 139 689 l 139 833 z "},"ŕ":{"ha":1042,"x_min":139,"x_max":944,"o":"m 139 833 l 483 833 l 483 769 l 525 769 q 599 833 553 811 q 706 856 646 856 q 881 783 817 856 q 944 583 944 711 l 944 472 l 786 472 l 786 561 q 656 711 786 711 q 535 644 575 711 q 494 444 494 576 l 494 144 l 783 144 l 783 0 l 167 0 l 167 144 l 342 144 l 342 689 l 139 689 l 139 833 m 435 958 l 579 1167 l 760 1167 l 574 958 l 435 958 z "},"ř":{"ha":1042,"x_min":139,"x_max":944,"o":"m 139 833 l 483 833 l 483 769 l 525 769 q 599 833 553 811 q 706 856 646 856 q 881 783 817 856 q 944 583 944 711 l 944 472 l 786 472 l 786 561 q 656 711 786 711 q 535 644 575 711 q 494 444 494 576 l 494 144 l 783 144 l 783 0 l 167 0 l 167 144 l 342 144 l 342 689 l 139 689 l 139 833 m 789 1167 l 644 958 l 453 958 l 308 1167 l 447 1167 l 594 1001 l 503 1001 l 650 1167 l 789 1167 z "},"ŗ":{"ha":1042,"x_min":139,"x_max":944,"o":"m 139 833 l 483 833 l 483 769 l 525 769 q 599 833 553 811 q 706 856 646 856 q 881 783 817 856 q 944 583 944 711 l 944 472 l 786 472 l 786 561 q 656 711 786 711 q 535 644 575 711 q 494 444 494 576 l 494 144 l 783 144 l 783 0 l 167 0 l 167 144 l 342 144 l 342 689 l 139 689 l 139 833 m 415 -236 q 347 -215 372 -236 q 321 -160 321 -194 q 347 -104 321 -125 q 415 -83 372 -83 q 484 -104 458 -83 q 510 -160 510 -125 q 484 -215 510 -194 q 415 -236 458 -236 m 313 -347 q 389 -281 363 -314 q 415 -225 415 -247 l 415 -83 q 490 -108 464 -83 q 515 -181 515 -133 q 499 -264 515 -221 q 454 -347 483 -307 l 313 -347 z "},"s":{"ha":1042,"x_min":161,"x_max":908,"o":"m 301 256 q 381 157 322 192 q 533 122 440 122 q 679 151 631 122 q 728 239 728 181 q 688 299 728 275 q 569 333 649 322 l 450 350 q 235 428 303 371 q 167 592 167 486 q 263 786 167 717 q 531 856 358 856 q 803 778 704 856 q 908 561 903 700 l 769 561 q 688 672 749 633 q 528 711 626 711 q 372 682 425 711 q 319 594 319 653 q 359 535 319 558 q 478 500 399 511 l 597 483 q 813 405 746 463 q 881 242 881 347 q 839 99 881 158 q 719 9 797 40 q 531 -22 642 -22 q 265 51 363 -22 q 161 256 168 125 l 301 256 z "},"ś":{"ha":1042,"x_min":161,"x_max":908,"o":"m 301 256 q 381 157 322 192 q 533 122 440 122 q 679 151 631 122 q 728 239 728 181 q 688 299 728 275 q 569 333 649 322 l 450 350 q 235 428 303 371 q 167 592 167 486 q 263 786 167 717 q 531 856 358 856 q 803 778 704 856 q 908 561 903 700 l 769 561 q 688 672 749 633 q 528 711 626 711 q 372 682 425 711 q 319 594 319 653 q 359 535 319 558 q 478 500 399 511 l 597 483 q 813 405 746 463 q 881 242 881 347 q 839 99 881 158 q 719 9 797 40 q 531 -22 642 -22 q 265 51 363 -22 q 161 256 168 125 l 301 256 m 418 958 l 563 1167 l 743 1167 l 557 958 l 418 958 z "},"ꞌ":{"ha":1042,"x_min":474,"x_max":613,"o":"m 474 528 l 474 1056 l 613 1056 l 613 819 l 585 528 l 474 528 z "},"š":{"ha":1042,"x_min":161,"x_max":908,"o":"m 301 256 q 381 157 322 192 q 533 122 440 122 q 679 151 631 122 q 728 239 728 181 q 688 299 728 275 q 569 333 649 322 l 450 350 q 235 428 303 371 q 167 592 167 486 q 263 786 167 717 q 531 856 358 856 q 803 778 704 856 q 908 561 903 700 l 769 561 q 688 672 749 633 q 528 711 626 711 q 372 682 425 711 q 319 594 319 653 q 359 535 319 558 q 478 500 399 511 l 597 483 q 813 405 746 463 q 881 242 881 347 q 839 99 881 158 q 719 9 797 40 q 531 -22 642 -22 q 265 51 363 -22 q 161 256 168 125 l 301 256 m 772 1167 l 628 958 l 436 958 l 292 1167 l 431 1167 l 578 1001 l 486 1001 l 633 1167 l 772 1167 z "},"ş":{"ha":1042,"x_min":161,"x_max":908,"o":"m 301 256 q 381 157 322 192 q 533 122 440 122 q 679 151 631 122 q 728 239 728 181 q 688 299 728 275 q 569 333 649 322 l 450 350 q 235 428 303 371 q 167 592 167 486 q 263 786 167 717 q 531 856 358 856 q 803 778 704 856 q 908 561 903 700 l 769 561 q 688 672 749 633 q 528 711 626 711 q 372 682 425 711 q 319 594 319 653 q 359 535 319 558 q 478 500 399 511 l 597 483 q 813 405 746 463 q 881 242 881 347 q 839 99 881 158 q 719 9 797 40 q 531 -22 642 -22 q 265 51 363 -22 q 161 256 168 125 l 301 256 m 497 28 l 619 28 l 594 -53 q 685 -92 654 -61 q 717 -169 717 -122 q 665 -265 717 -231 q 522 -300 614 -300 q 388 -267 438 -300 q 333 -175 338 -235 l 450 -175 q 476 -201 457 -192 q 525 -211 496 -211 q 568 -199 553 -211 q 583 -168 583 -187 q 569 -136 583 -149 q 526 -122 554 -124 l 461 -117 l 497 28 z "},"ș":{"ha":1042,"x_min":161,"x_max":908,"o":"m 301 256 q 381 157 322 192 q 533 122 440 122 q 679 151 631 122 q 728 239 728 181 q 688 299 728 275 q 569 333 649 322 l 450 350 q 235 428 303 371 q 167 592 167 486 q 263 786 167 717 q 531 856 358 856 q 803 778 704 856 q 908 561 903 700 l 769 561 q 688 672 749 633 q 528 711 626 711 q 372 682 425 711 q 319 594 319 653 q 359 535 319 558 q 478 500 399 511 l 597 483 q 813 405 746 463 q 881 242 881 347 q 839 99 881 158 q 719 9 797 40 q 531 -22 642 -22 q 265 51 363 -22 q 161 256 168 125 l 301 256 m 529 -236 q 460 -215 486 -236 q 435 -160 435 -194 q 460 -104 435 -125 q 529 -83 486 -83 q 598 -104 572 -83 q 624 -160 624 -125 q 598 -215 624 -194 q 529 -236 572 -236 m 426 -347 q 503 -281 476 -314 q 529 -225 529 -247 l 529 -83 q 603 -108 578 -83 q 629 -181 629 -133 q 613 -264 629 -221 q 568 -347 597 -307 l 426 -347 z "},"ṣ":{"ha":1042,"x_min":161,"x_max":908,"o":"m 301 256 q 381 157 322 192 q 533 122 440 122 q 679 151 631 122 q 728 239 728 181 q 688 299 728 275 q 569 333 649 322 l 450 350 q 235 428 303 371 q 167 592 167 486 q 263 786 167 717 q 531 856 358 856 q 803 778 704 856 q 908 561 903 700 l 769 561 q 688 672 749 633 q 528 711 626 711 q 372 682 425 711 q 319 594 319 653 q 359 535 319 558 q 478 500 399 511 l 597 483 q 813 405 746 463 q 881 242 881 347 q 839 99 881 158 q 719 9 797 40 q 531 -22 642 -22 q 265 51 363 -22 q 161 256 168 125 l 301 256 m 532 -344 q 442 -316 475 -344 q 410 -236 410 -287 q 442 -156 410 -185 q 532 -128 475 -128 q 622 -156 589 -128 q 654 -236 654 -185 q 622 -316 654 -287 q 532 -344 589 -344 z "},"ß":{"ha":1042,"x_min":153,"x_max":953,"o":"m 475 0 l 597 0 q 784 42 704 0 q 908 160 864 85 q 953 336 953 236 q 895 535 953 456 q 739 636 838 615 l 739 661 q 828 750 796 690 q 861 886 861 810 q 817 1049 861 978 q 697 1160 774 1119 q 522 1200 621 1200 q 251 1097 350 1200 q 153 817 153 994 l 153 0 l 306 0 l 306 803 q 363 988 306 921 q 522 1056 421 1056 q 656 1004 604 1056 q 708 872 708 953 q 658 738 708 788 q 522 689 608 689 l 475 689 l 475 550 l 569 550 q 734 496 674 550 q 794 347 794 442 q 733 200 794 256 q 569 144 671 144 l 475 144 l 475 0 z "},"t":{"ha":1042,"x_min":117,"x_max":910,"o":"m 472 1050 l 472 833 l 881 833 l 881 689 l 472 689 l 472 278 q 508 162 472 201 q 611 122 543 122 q 717 165 678 122 q 774 292 756 207 l 910 292 q 822 59 901 140 q 606 -22 743 -22 q 394 56 468 -22 q 319 278 319 135 l 319 689 l 117 689 l 117 833 l 319 833 l 319 1050 l 472 1050 z "},"ŧ":{"ha":1042,"x_min":117,"x_max":910,"o":"m 472 1050 l 472 833 l 881 833 l 881 689 l 472 689 l 472 278 q 508 162 472 201 q 611 122 543 122 q 717 165 678 122 q 774 292 756 207 l 910 292 q 822 59 901 140 q 606 -22 743 -22 q 394 56 468 -22 q 319 278 319 135 l 319 689 l 117 689 l 117 833 l 319 833 l 319 1050 l 472 1050 m 117 450 l 117 578 l 853 578 l 853 450 l 117 450 z "},"ť":{"ha":1042,"x_min":117,"x_max":910,"o":"m 472 1050 l 472 833 l 881 833 l 881 689 l 472 689 l 472 278 q 508 162 472 201 q 611 122 543 122 q 717 165 678 122 q 774 292 756 207 l 910 292 q 822 59 901 140 q 606 -22 743 -22 q 394 56 468 -22 q 319 278 319 135 l 319 689 l 117 689 l 117 833 l 319 833 l 319 1050 l 472 1050 m 569 900 l 631 1178 l 783 1178 l 694 900 l 569 900 z "},"ţ":{"ha":1042,"x_min":117,"x_max":910,"o":"m 472 1050 l 472 833 l 881 833 l 881 689 l 472 689 l 472 278 q 508 162 472 201 q 611 122 543 122 q 717 165 678 122 q 774 292 756 207 l 910 292 q 822 59 901 140 q 606 -22 743 -22 q 394 56 468 -22 q 319 278 319 135 l 319 689 l 117 689 l 117 833 l 319 833 l 319 1050 l 472 1050 m 582 28 l 704 28 l 679 -53 q 770 -92 739 -61 q 801 -169 801 -122 q 750 -265 801 -231 q 607 -300 699 -300 q 472 -267 522 -300 q 418 -175 422 -235 l 535 -175 q 561 -201 542 -192 q 610 -211 581 -211 q 653 -199 638 -211 q 668 -168 668 -187 q 653 -136 668 -149 q 611 -122 639 -124 l 546 -117 l 582 28 z "},"ț":{"ha":1042,"x_min":117,"x_max":910,"o":"m 472 1050 l 472 833 l 881 833 l 881 689 l 472 689 l 472 278 q 508 162 472 201 q 611 122 543 122 q 717 165 678 122 q 774 292 756 207 l 910 292 q 822 59 901 140 q 606 -22 743 -22 q 394 56 468 -22 q 319 278 319 135 l 319 689 l 117 689 l 117 833 l 319 833 l 319 1050 l 472 1050 m 614 -236 q 545 -215 571 -236 q 519 -160 519 -194 q 545 -104 519 -125 q 614 -83 571 -83 q 683 -104 657 -83 q 708 -160 708 -125 q 683 -215 708 -194 q 614 -236 657 -236 m 511 -347 q 588 -281 561 -314 q 614 -225 614 -247 l 614 -83 q 688 -108 663 -83 q 714 -181 714 -133 q 698 -264 714 -221 q 653 -347 682 -307 l 511 -347 z "},"ṭ":{"ha":1042,"x_min":117,"x_max":910,"o":"m 472 1050 l 472 833 l 881 833 l 881 689 l 472 689 l 472 278 q 508 162 472 201 q 611 122 543 122 q 717 165 678 122 q 774 292 756 207 l 910 292 q 822 59 901 140 q 606 -22 743 -22 q 394 56 468 -22 q 319 278 319 135 l 319 689 l 117 689 l 117 833 l 319 833 l 319 1050 l 472 1050 m 617 -344 q 527 -316 560 -344 q 494 -236 494 -287 q 527 -156 494 -185 q 617 -128 560 -128 q 706 -156 674 -128 q 739 -236 739 -185 q 706 -316 739 -287 q 617 -344 674 -344 z "},"u":{"ha":1042,"x_min":150,"x_max":875,"o":"m 875 833 l 875 0 l 722 0 l 722 67 l 681 67 q 590 1 646 25 q 471 -22 535 -22 q 303 19 375 -22 q 190 136 231 61 q 150 311 150 211 l 150 833 l 303 833 l 303 353 q 357 184 303 243 q 513 125 411 125 q 668 184 614 125 q 722 353 722 243 l 722 833 l 875 833 z "},"ú":{"ha":1042,"x_min":150,"x_max":875,"o":"m 875 833 l 875 0 l 722 0 l 722 67 l 681 67 q 590 1 646 25 q 471 -22 535 -22 q 303 19 375 -22 q 190 136 231 61 q 150 311 150 211 l 150 833 l 303 833 l 303 353 q 357 184 303 243 q 513 125 411 125 q 668 184 614 125 q 722 353 722 243 l 722 833 l 875 833 m 407 958 l 551 1167 l 732 1167 l 546 958 l 407 958 z "},"ŭ":{"ha":1042,"x_min":150,"x_max":875,"o":"m 875 833 l 875 0 l 722 0 l 722 67 l 681 67 q 590 1 646 25 q 471 -22 535 -22 q 303 19 375 -22 q 190 136 231 61 q 150 311 150 211 l 150 833 l 303 833 l 303 353 q 357 184 303 243 q 513 125 411 125 q 668 184 614 125 q 722 353 722 243 l 722 833 l 875 833 m 407 1153 q 440 1076 411 1101 q 521 1050 469 1050 q 602 1076 574 1050 q 635 1153 631 1101 l 774 1153 q 701 997 764 1050 q 521 944 638 944 q 341 997 404 944 q 268 1153 278 1050 l 407 1153 z "},"û":{"ha":1042,"x_min":150,"x_max":875,"o":"m 875 833 l 875 0 l 722 0 l 722 67 l 681 67 q 590 1 646 25 q 471 -22 535 -22 q 303 19 375 -22 q 190 136 231 61 q 150 311 150 211 l 150 833 l 303 833 l 303 353 q 357 184 303 243 q 513 125 411 125 q 668 184 614 125 q 722 353 722 243 l 722 833 l 875 833 m 281 958 l 425 1167 l 617 1167 l 761 958 l 622 958 l 475 1124 l 567 1124 l 419 958 l 281 958 z "},"ü":{"ha":1042,"x_min":150,"x_max":875,"o":"m 875 833 l 875 0 l 722 0 l 722 67 l 681 67 q 590 1 646 25 q 471 -22 535 -22 q 303 19 375 -22 q 190 136 231 61 q 150 311 150 211 l 150 833 l 303 833 l 303 353 q 357 184 303 243 q 513 125 411 125 q 668 184 614 125 q 722 353 722 243 l 722 833 l 875 833 m 339 972 q 258 999 288 972 q 228 1069 228 1025 q 258 1140 228 1114 q 339 1167 288 1167 q 421 1140 392 1167 q 450 1069 450 1114 q 421 999 450 1025 q 339 972 392 972 m 703 972 q 622 999 651 972 q 592 1069 592 1025 q 622 1140 592 1114 q 703 1167 651 1167 q 785 1140 756 1167 q 814 1069 814 1114 q 785 999 814 1025 q 703 972 756 972 z "},"ụ":{"ha":1042,"x_min":150,"x_max":875,"o":"m 875 833 l 875 0 l 722 0 l 722 67 l 681 67 q 590 1 646 25 q 471 -22 535 -22 q 303 19 375 -22 q 190 136 231 61 q 150 311 150 211 l 150 833 l 303 833 l 303 353 q 357 184 303 243 q 513 125 411 125 q 668 184 614 125 q 722 353 722 243 l 722 833 l 875 833 m 521 -344 q 431 -316 464 -344 q 399 -236 399 -287 q 431 -156 399 -185 q 521 -128 464 -128 q 610 -156 578 -128 q 643 -236 643 -185 q 610 -316 643 -287 q 521 -344 578 -344 z "},"ù":{"ha":1042,"x_min":150,"x_max":875,"o":"m 875 833 l 875 0 l 722 0 l 722 67 l 681 67 q 590 1 646 25 q 471 -22 535 -22 q 303 19 375 -22 q 190 136 231 61 q 150 311 150 211 l 150 833 l 303 833 l 303 353 q 357 184 303 243 q 513 125 411 125 q 668 184 614 125 q 722 353 722 243 l 722 833 l 875 833 m 635 958 l 496 958 l 310 1167 l 490 1167 l 635 958 z "},"ű":{"ha":1042,"x_min":150,"x_max":910,"o":"m 875 833 l 875 0 l 722 0 l 722 67 l 681 67 q 590 1 646 25 q 471 -22 535 -22 q 303 19 375 -22 q 190 136 231 61 q 150 311 150 211 l 150 833 l 303 833 l 303 353 q 357 184 303 243 q 513 125 411 125 q 668 184 614 125 q 722 353 722 243 l 722 833 l 875 833 m 274 958 l 404 1167 l 582 1167 l 410 958 l 274 958 m 549 958 l 721 1167 l 910 1167 l 696 958 l 549 958 z "},"ū":{"ha":1042,"x_min":150,"x_max":875,"o":"m 875 833 l 875 0 l 722 0 l 722 67 l 681 67 q 590 1 646 25 q 471 -22 535 -22 q 303 19 375 -22 q 190 136 231 61 q 150 311 150 211 l 150 833 l 303 833 l 303 353 q 357 184 303 243 q 513 125 411 125 q 668 184 614 125 q 722 353 722 243 l 722 833 l 875 833 m 285 1000 l 285 1125 l 757 1125 l 757 1000 l 285 1000 z "},"ų":{"ha":1042,"x_min":150,"x_max":875,"o":"m 875 833 l 875 0 l 722 0 l 722 67 l 681 67 q 590 1 646 25 q 471 -22 535 -22 q 303 19 375 -22 q 190 136 231 61 q 150 311 150 211 l 150 833 l 303 833 l 303 353 q 357 184 303 243 q 513 125 411 125 q 668 184 614 125 q 722 353 722 243 l 722 833 l 875 833 m 797 -300 q 669 -264 717 -300 q 622 -164 622 -228 q 651 -74 622 -118 q 728 0 679 -31 l 797 3 l 875 0 q 792 -60 822 -25 q 761 -131 761 -94 q 779 -173 761 -157 q 828 -189 797 -189 q 853 -187 843 -189 q 875 -183 863 -186 l 875 -292 q 840 -298 858 -296 q 797 -300 822 -300 z "},"ů":{"ha":1042,"x_min":150,"x_max":875,"o":"m 875 833 l 875 0 l 722 0 l 722 67 l 681 67 q 590 1 646 25 q 471 -22 535 -22 q 303 19 375 -22 q 190 136 231 61 q 150 311 150 211 l 150 833 l 303 833 l 303 353 q 357 184 303 243 q 513 125 411 125 q 668 184 614 125 q 722 353 722 243 l 722 833 l 875 833 m 521 928 q 390 969 440 928 q 340 1076 340 1010 q 390 1184 340 1143 q 521 1225 440 1225 q 651 1184 601 1225 q 701 1076 701 1143 q 651 969 701 1010 q 521 928 601 928 m 521 1006 q 583 1026 560 1006 q 607 1076 607 1046 q 583 1128 607 1108 q 521 1147 560 1147 q 458 1128 482 1147 q 435 1076 435 1108 q 458 1026 435 1046 q 521 1006 482 1006 z "},"ũ":{"ha":1042,"x_min":150,"x_max":875,"o":"m 875 833 l 875 0 l 722 0 l 722 67 l 681 67 q 590 1 646 25 q 471 -22 535 -22 q 303 19 375 -22 q 190 136 231 61 q 150 311 150 211 l 150 833 l 303 833 l 303 353 q 357 184 303 243 q 513 125 411 125 q 668 184 614 125 q 722 353 722 243 l 722 833 l 875 833 m 260 958 q 308 1113 269 1065 q 421 1161 346 1161 q 510 1144 476 1161 q 569 1109 544 1126 q 621 1092 593 1092 q 650 1110 640 1092 q 665 1167 660 1128 l 782 1167 q 734 1013 772 1061 q 621 964 696 964 q 531 981 565 964 q 473 1016 497 999 q 421 1033 449 1033 q 392 1016 403 1033 q 376 958 382 999 l 260 958 z "},"v":{"ha":1042,"x_min":97,"x_max":944,"o":"m 97 833 l 264 833 l 519 135 l 533 135 l 788 833 l 944 833 l 639 0 l 403 0 l 97 833 z "},"w":{"ha":1042,"x_min":46,"x_max":996,"o":"m 210 0 l 46 833 l 207 833 l 286 347 l 313 111 l 326 111 l 414 833 l 642 833 l 729 111 l 743 111 l 768 347 l 850 833 l 996 833 l 832 0 l 615 0 l 528 728 l 514 728 l 426 0 l 210 0 z "},"ẃ":{"ha":1042,"x_min":46,"x_max":996,"o":"m 210 0 l 46 833 l 207 833 l 286 347 l 313 111 l 326 111 l 414 833 l 642 833 l 729 111 l 743 111 l 768 347 l 850 833 l 996 833 l 832 0 l 615 0 l 528 728 l 514 728 l 426 0 l 210 0 m 464 958 l 608 1167 l 789 1167 l 603 958 l 464 958 z "},"ŵ":{"ha":1042,"x_min":46,"x_max":996,"o":"m 210 0 l 46 833 l 207 833 l 286 347 l 313 111 l 326 111 l 414 833 l 642 833 l 729 111 l 743 111 l 768 347 l 850 833 l 996 833 l 832 0 l 615 0 l 528 728 l 514 728 l 426 0 l 210 0 m 281 958 l 425 1167 l 617 1167 l 761 958 l 622 958 l 475 1124 l 567 1124 l 419 958 l 281 958 z "},"ẅ":{"ha":1042,"x_min":46,"x_max":996,"o":"m 210 0 l 46 833 l 207 833 l 286 347 l 313 111 l 326 111 l 414 833 l 642 833 l 729 111 l 743 111 l 768 347 l 850 833 l 996 833 l 832 0 l 615 0 l 528 728 l 514 728 l 426 0 l 210 0 m 339 972 q 258 999 288 972 q 228 1069 228 1025 q 258 1140 228 1114 q 339 1167 288 1167 q 421 1140 392 1167 q 450 1069 450 1114 q 421 999 450 1025 q 339 972 392 972 m 703 972 q 622 999 651 972 q 592 1069 592 1025 q 622 1140 592 1114 q 703 1167 651 1167 q 785 1140 756 1167 q 814 1069 814 1114 q 785 999 814 1025 q 703 972 756 972 z "},"ẁ":{"ha":1042,"x_min":46,"x_max":996,"o":"m 210 0 l 46 833 l 207 833 l 286 347 l 313 111 l 326 111 l 414 833 l 642 833 l 729 111 l 743 111 l 768 347 l 850 833 l 996 833 l 832 0 l 615 0 l 528 728 l 514 728 l 426 0 l 210 0 m 597 958 l 458 958 l 272 1167 l 453 1167 l 597 958 z "},"x":{"ha":1042,"x_min":108,"x_max":933,"o":"m 125 0 l 393 396 l 108 833 l 292 833 l 500 514 l 515 474 l 529 474 l 544 514 l 763 833 l 933 833 l 646 410 l 917 0 l 731 0 l 539 289 l 524 329 l 510 329 l 494 289 l 300 0 l 125 0 z "},"y":{"ha":1042,"x_min":100,"x_max":944,"o":"m 100 833 l 268 833 l 511 208 l 613 208 l 567 69 l 399 69 l 100 833 m 944 833 l 608 -119 q 519 -252 578 -204 q 386 -300 461 -300 q 210 -241 275 -300 q 136 -72 144 -182 l 275 -72 q 317 -140 294 -119 q 378 -161 340 -161 q 434 -140 413 -161 q 474 -72 456 -119 l 789 833 l 944 833 z "},"ý":{"ha":1042,"x_min":100,"x_max":944,"o":"m 100 833 l 268 833 l 511 208 l 613 208 l 567 69 l 399 69 l 100 833 m 944 833 l 608 -119 q 519 -252 578 -204 q 386 -300 461 -300 q 210 -241 275 -300 q 136 -72 144 -182 l 275 -72 q 317 -140 294 -119 q 378 -161 340 -161 q 434 -140 413 -161 q 474 -72 456 -119 l 789 833 l 944 833 m 411 958 l 556 1167 l 736 1167 l 550 958 l 411 958 z "},"ŷ":{"ha":1042,"x_min":100,"x_max":944,"o":"m 100 833 l 268 833 l 511 208 l 613 208 l 567 69 l 399 69 l 100 833 m 944 833 l 608 -119 q 519 -252 578 -204 q 386 -300 461 -300 q 210 -241 275 -300 q 136 -72 144 -182 l 275 -72 q 317 -140 294 -119 q 378 -161 340 -161 q 434 -140 413 -161 q 474 -72 456 -119 l 789 833 l 944 833 m 285 958 l 429 1167 l 621 1167 l 765 958 l 626 958 l 479 1124 l 571 1124 l 424 958 l 285 958 z "},"ÿ":{"ha":1042,"x_min":100,"x_max":944,"o":"m 100 833 l 268 833 l 511 208 l 613 208 l 567 69 l 399 69 l 100 833 m 944 833 l 608 -119 q 519 -252 578 -204 q 386 -300 461 -300 q 210 -241 275 -300 q 136 -72 144 -182 l 275 -72 q 317 -140 294 -119 q 378 -161 340 -161 q 434 -140 413 -161 q 474 -72 456 -119 l 789 833 l 944 833 m 343 972 q 262 999 292 972 q 232 1069 232 1025 q 262 1140 232 1114 q 343 1167 292 1167 q 425 1140 396 1167 q 454 1069 454 1114 q 425 999 454 1025 q 343 972 396 972 m 707 972 q 626 999 656 972 q 596 1069 596 1025 q 626 1140 596 1114 q 707 1167 656 1167 q 789 1140 760 1167 q 818 1069 818 1114 q 789 999 818 1025 q 707 972 760 972 z "},"ỳ":{"ha":1042,"x_min":100,"x_max":944,"o":"m 100 833 l 268 833 l 511 208 l 613 208 l 567 69 l 399 69 l 100 833 m 944 833 l 608 -119 q 519 -252 578 -204 q 386 -300 461 -300 q 210 -241 275 -300 q 136 -72 144 -182 l 275 -72 q 317 -140 294 -119 q 378 -161 340 -161 q 434 -140 413 -161 q 474 -72 456 -119 l 789 833 l 944 833 m 639 958 l 500 958 l 314 1167 l 494 1167 l 639 958 z "},"ȳ":{"ha":1042,"x_min":100,"x_max":944,"o":"m 100 833 l 268 833 l 511 208 l 613 208 l 567 69 l 399 69 l 100 833 m 944 833 l 608 -119 q 519 -252 578 -204 q 386 -300 461 -300 q 210 -241 275 -300 q 136 -72 144 -182 l 275 -72 q 317 -140 294 -119 q 378 -161 340 -161 q 434 -140 413 -161 q 474 -72 456 -119 l 789 833 l 944 833 m 289 1000 l 289 1125 l 761 1125 l 761 1000 l 289 1000 z "},"ỹ":{"ha":1042,"x_min":100,"x_max":944,"o":"m 100 833 l 268 833 l 511 208 l 613 208 l 567 69 l 399 69 l 100 833 m 944 833 l 608 -119 q 519 -252 578 -204 q 386 -300 461 -300 q 210 -241 275 -300 q 136 -72 144 -182 l 275 -72 q 317 -140 294 -119 q 378 -161 340 -161 q 434 -140 413 -161 q 474 -72 456 -119 l 789 833 l 944 833 m 264 958 q 312 1113 274 1065 q 425 1161 350 1161 q 515 1144 481 1161 q 573 1109 549 1126 q 625 1092 597 1092 q 654 1110 644 1092 q 669 1167 664 1128 l 786 1167 q 738 1013 776 1061 q 625 964 700 964 q 535 981 569 964 q 477 1016 501 999 q 425 1033 453 1033 q 397 1016 407 1033 q 381 958 386 999 l 264 958 z "},"z":{"ha":1042,"x_min":183,"x_max":858,"o":"m 183 833 l 858 833 l 858 564 l 275 158 l 275 144 l 858 144 l 858 0 l 183 0 l 183 269 l 767 675 l 767 689 l 183 689 l 183 833 z "},"ź":{"ha":1042,"x_min":183,"x_max":858,"o":"m 183 833 l 858 833 l 858 564 l 275 158 l 275 144 l 858 144 l 858 0 l 183 0 l 183 269 l 767 675 l 767 689 l 183 689 l 183 833 m 407 958 l 551 1167 l 732 1167 l 546 958 l 407 958 z "},"ž":{"ha":1042,"x_min":183,"x_max":858,"o":"m 183 833 l 858 833 l 858 564 l 275 158 l 275 144 l 858 144 l 858 0 l 183 0 l 183 269 l 767 675 l 767 689 l 183 689 l 183 833 m 761 1167 l 617 958 l 425 958 l 281 1167 l 419 1167 l 567 1001 l 475 1001 l 622 1167 l 761 1167 z "},"ż":{"ha":1042,"x_min":183,"x_max":858,"o":"m 183 833 l 858 833 l 858 564 l 275 158 l 275 144 l 858 144 l 858 0 l 183 0 l 183 269 l 767 675 l 767 689 l 183 689 l 183 833 m 521 961 q 431 990 464 961 q 399 1069 399 1018 q 431 1149 399 1121 q 521 1178 464 1178 q 610 1149 578 1178 q 643 1069 643 1121 q 610 990 643 1018 q 521 961 578 961 z "},"ẓ":{"ha":1042,"x_min":183,"x_max":858,"o":"m 183 833 l 858 833 l 858 564 l 275 158 l 275 144 l 858 144 l 858 0 l 183 0 l 183 269 l 767 675 l 767 689 l 183 689 l 183 833 m 521 -344 q 431 -316 464 -344 q 399 -236 399 -287 q 431 -156 399 -185 q 521 -128 464 -128 q 610 -156 578 -128 q 643 -236 643 -185 q 610 -316 643 -287 q 521 -344 578 -344 z "},"ª":{"ha":1042,"x_min":315,"x_max":714,"o":"m 471 656 q 379 692 415 656 q 343 783 343 728 q 379 876 343 840 q 481 924 415 913 l 601 944 l 601 854 l 501 838 q 473 824 483 835 q 463 797 463 813 q 475 769 463 779 q 508 758 488 758 q 570 783 546 758 q 594 842 594 808 l 594 947 q 576 1006 594 983 q 526 1029 558 1029 q 467 1009 492 1029 q 433 956 442 989 l 315 956 q 380 1088 325 1040 q 528 1135 435 1135 q 666 1090 618 1135 q 714 963 714 1044 l 714 667 l 594 667 l 594 711 l 583 711 q 540 670 569 685 q 471 656 511 656 z "},"º":{"ha":1042,"x_min":292,"x_max":750,"o":"m 521 654 q 355 720 418 654 q 292 894 292 786 q 355 1069 292 1003 q 521 1135 418 1135 q 687 1069 624 1135 q 750 894 750 1003 q 687 720 750 786 q 521 654 624 654 m 521 763 q 601 798 572 763 q 631 894 631 833 q 601 991 631 956 q 521 1026 572 1026 q 440 991 469 1026 q 411 894 411 956 q 440 798 411 833 q 521 763 469 763 z "},"А":{"ha":1042,"x_min":78,"x_max":964,"o":"m 78 0 l 392 1111 l 650 1111 l 964 0 l 797 0 l 524 989 l 510 989 l 235 0 l 78 0 m 257 376 l 257 526 l 785 526 l 785 376 l 257 376 z "},"Б":{"ha":1042,"x_min":181,"x_max":944,"o":"m 181 0 l 181 1111 l 903 1111 l 903 961 l 339 961 l 339 653 l 592 653 q 778 613 699 653 q 901 499 857 572 q 944 328 944 426 q 901 154 944 228 q 778 40 857 81 q 592 0 699 0 l 181 0 m 339 150 l 597 150 q 735 198 685 150 q 786 329 786 246 q 735 460 786 413 q 597 508 685 508 l 339 508 l 339 150 z "},"В":{"ha":1042,"x_min":181,"x_max":944,"o":"m 181 0 l 181 1111 l 550 1111 q 824 1030 724 1111 q 925 808 925 949 q 883 669 925 728 q 764 586 840 610 l 764 564 q 897 470 850 538 q 944 308 944 403 q 839 83 944 165 q 550 0 733 0 l 181 0 m 339 147 l 550 147 q 726 192 665 147 q 786 319 786 238 q 726 447 786 401 q 550 492 665 492 l 339 492 l 339 147 m 339 631 l 550 631 q 715 674 658 631 q 772 797 772 717 q 715 921 772 878 q 550 964 658 964 l 339 964 l 339 631 z "},"Г":{"ha":1042,"x_min":264,"x_max":944,"o":"m 264 1111 l 944 1111 l 944 961 l 422 961 l 422 0 l 264 0 l 264 1111 z "},"Ґ":{"ha":1042,"x_min":264,"x_max":944,"o":"m 792 1097 l 792 1350 l 944 1350 l 944 1097 l 792 1097 m 264 1111 l 944 1111 l 944 961 l 422 961 l 422 0 l 264 0 l 264 1111 z "},"Д":{"ha":1042,"x_min":56,"x_max":986,"o":"m 56 -239 l 56 150 l 128 150 q 158 219 144 185 q 183 300 172 254 q 203 411 194 346 q 219 570 213 476 q 231 797 225 664 q 239 1111 236 931 l 861 1111 l 861 150 l 986 150 l 986 -239 l 833 -239 l 833 0 l 208 0 l 208 -239 l 56 -239 m 289 150 l 703 150 l 703 961 l 389 961 q 378 662 385 785 q 363 456 372 539 q 343 317 354 372 q 318 224 332 263 q 289 150 304 185 z "},"Е":{"ha":1042,"x_min":208,"x_max":917,"o":"m 208 0 l 208 1111 l 917 1111 l 917 961 l 367 961 l 367 629 l 847 629 l 847 490 l 367 490 l 367 150 l 903 150 l 903 0 l 208 0 z "},"Ё":{"ha":1042,"x_min":208,"x_max":917,"o":"m 208 0 l 208 1111 l 917 1111 l 917 961 l 367 961 l 367 629 l 847 629 l 847 490 l 367 490 l 367 150 l 903 150 l 903 0 l 208 0 m 393 1250 q 312 1276 342 1250 q 282 1347 282 1303 q 312 1418 282 1392 q 393 1444 342 1444 q 475 1418 446 1444 q 504 1347 504 1392 q 475 1276 504 1303 q 393 1250 446 1250 m 757 1250 q 676 1276 706 1250 q 646 1347 646 1303 q 676 1418 646 1392 q 757 1444 706 1444 q 839 1418 810 1444 q 868 1347 868 1392 q 839 1276 868 1303 q 757 1250 810 1250 z "},"Ж":{"ha":1042,"x_min":25,"x_max":1017,"o":"m 835 0 l 668 397 l 654 461 l 589 461 l 589 611 l 653 611 l 667 675 l 853 1111 l 1017 1111 l 772 546 l 1006 0 l 835 0 m 36 0 l 269 546 l 25 1111 l 189 1111 l 375 675 l 389 611 l 453 611 l 453 461 l 388 461 l 374 397 l 207 0 l 36 0 m 442 0 l 442 1111 l 600 1111 l 600 0 l 442 0 z "},"З":{"ha":1042,"x_min":118,"x_max":924,"o":"m 918 297 q 868 131 918 203 q 732 18 818 58 q 535 -22 646 -22 q 322 19 413 -22 q 181 140 232 61 q 126 325 131 218 l 282 325 q 363 179 296 231 q 532 128 431 128 q 649 150 599 128 q 728 213 700 172 q 757 306 757 253 q 699 440 757 389 q 546 492 642 492 l 396 492 l 396 639 l 546 639 q 705 685 644 639 q 765 807 765 732 q 702 934 765 885 q 536 983 639 983 q 363 928 431 983 q 274 772 294 874 l 118 772 q 178 965 125 885 q 324 1090 232 1046 q 539 1133 415 1133 q 740 1094 653 1133 q 875 985 826 1056 q 924 815 924 914 q 872 663 924 726 q 738 581 821 600 l 738 558 q 869 467 819 536 q 918 297 918 397 z "},"И":{"ha":1042,"x_min":128,"x_max":914,"o":"m 914 0 l 756 0 l 756 764 l 761 1014 l 747 1014 l 406 0 l 128 0 l 128 1111 l 286 1111 l 286 347 l 281 97 l 294 97 l 636 1111 l 914 1111 l 914 0 z "},"Й":{"ha":1042,"x_min":128,"x_max":914,"o":"m 914 0 l 756 0 l 756 764 l 761 1014 l 747 1014 l 406 0 l 128 0 l 128 1111 l 286 1111 l 286 347 l 281 97 l 294 97 l 636 1111 l 914 1111 l 914 0 m 407 1431 q 440 1353 411 1379 q 521 1328 469 1328 q 602 1353 574 1328 q 635 1431 631 1379 l 774 1431 q 701 1275 764 1328 q 521 1222 638 1222 q 341 1275 404 1222 q 268 1431 278 1328 l 407 1431 z "},"К":{"ha":1042,"x_min":208,"x_max":969,"o":"m 208 1111 l 367 1111 l 367 0 l 208 0 l 208 1111 m 753 0 l 315 538 l 778 1111 l 969 1111 l 511 543 l 953 0 l 753 0 z "},"Л":{"ha":1042,"x_min":28,"x_max":903,"o":"m 744 0 l 744 961 l 361 961 l 361 1111 l 903 1111 l 903 0 l 744 0 m 28 -11 l 28 139 l 56 139 q 119 147 92 139 q 167 188 147 156 q 198 290 186 219 q 215 486 210 361 l 240 1111 l 393 1111 l 364 389 q 342 197 360 272 q 298 80 325 122 q 235 18 271 38 q 157 -6 199 -1 q 69 -11 115 -11 l 28 -11 z "},"М":{"ha":1042,"x_min":111,"x_max":931,"o":"m 111 0 l 111 1111 l 369 1111 l 518 458 l 532 458 l 681 1111 l 931 1111 l 931 0 l 783 0 l 783 694 l 789 1000 l 775 1000 l 633 375 l 408 375 l 267 1000 l 253 1000 l 258 694 l 258 0 l 111 0 z "},"Н":{"ha":1042,"x_min":139,"x_max":903,"o":"m 139 0 l 139 1111 l 297 1111 l 297 635 l 744 635 l 744 1111 l 903 1111 l 903 0 l 744 0 l 744 485 l 297 485 l 297 0 l 139 0 z "},"О":{"ha":1042,"x_min":83,"x_max":958,"o":"m 521 -22 q 194 124 304 -22 q 83 556 83 269 q 194 988 83 842 q 521 1133 304 1133 q 848 988 738 1133 q 958 556 958 842 q 848 124 958 269 q 521 -22 738 -22 m 521 128 q 732 233 664 128 q 800 556 800 338 q 732 878 800 774 q 521 983 664 983 q 310 878 378 983 q 242 556 242 774 q 310 233 242 338 q 521 128 378 128 z "},"П":{"ha":1042,"x_min":139,"x_max":903,"o":"m 139 1111 l 903 1111 l 903 0 l 744 0 l 744 958 l 297 958 l 297 0 l 139 0 l 139 1111 z "},"Р":{"ha":1042,"x_min":194,"x_max":975,"o":"m 194 0 l 194 1111 l 622 1111 q 808 1071 729 1111 q 931 957 888 1031 q 975 783 975 883 q 931 612 975 685 q 808 499 888 539 q 622 458 729 458 l 353 458 l 353 0 l 194 0 m 353 603 l 628 603 q 766 651 715 603 q 817 782 817 699 q 766 913 817 865 q 628 961 715 961 l 353 961 l 353 603 z "},"С":{"ha":1042,"x_min":117,"x_max":964,"o":"m 549 -22 q 226 123 335 -22 q 117 556 117 268 q 228 988 117 843 q 563 1133 340 1133 q 767 1085 681 1133 q 905 944 854 1036 q 964 722 956 851 l 817 722 q 731 915 796 846 q 563 983 665 983 q 345 878 415 983 q 275 556 275 774 q 342 233 275 338 q 549 128 408 128 q 709 192 647 128 q 789 369 771 256 l 936 369 q 879 159 928 247 q 747 24 831 71 q 549 -22 663 -22 z "},"Т":{"ha":1042,"x_min":83,"x_max":958,"o":"m 442 0 l 442 961 l 83 961 l 83 1111 l 958 1111 l 958 961 l 600 961 l 600 0 l 442 0 z "},"У":{"ha":1042,"x_min":97,"x_max":967,"o":"m 268 1111 l 556 496 l 706 496 l 656 363 l 451 363 l 97 1111 l 268 1111 m 811 1111 l 967 1111 l 693 215 q 635 81 668 133 q 558 3 601 28 q 456 -22 514 -22 q 296 38 356 -22 q 217 215 236 97 l 358 215 q 393 140 371 164 q 450 117 415 117 q 504 144 482 117 q 547 240 526 172 l 811 1111 z "},"Ў":{"ha":1042,"x_min":97,"x_max":967,"o":"m 268 1111 l 556 496 l 706 496 l 656 363 l 451 363 l 97 1111 l 268 1111 m 811 1111 l 967 1111 l 693 215 q 635 81 668 133 q 558 3 601 28 q 456 -22 514 -22 q 296 38 356 -22 q 217 215 236 97 l 358 215 q 393 140 371 164 q 450 117 415 117 q 504 144 482 117 q 547 240 526 172 l 811 1111 m 442 1431 q 475 1353 446 1379 q 556 1328 504 1328 q 637 1353 608 1328 q 669 1431 665 1379 l 808 1431 q 735 1275 799 1328 q 556 1222 672 1222 q 376 1275 439 1222 q 303 1431 313 1328 l 442 1431 z "},"Ф":{"ha":1042,"x_min":50,"x_max":992,"o":"m 442 -42 l 442 103 l 428 103 q 226 158 311 103 q 96 314 142 213 q 50 556 50 415 q 96 797 50 696 q 226 953 142 899 q 428 1008 311 1008 l 442 1008 l 442 1153 l 600 1153 l 600 1008 l 614 1008 q 816 953 732 1008 q 946 797 900 899 q 992 556 992 696 q 946 314 992 415 q 816 158 900 213 q 614 103 732 103 l 600 103 l 600 -42 l 442 -42 m 428 253 l 442 253 l 442 858 l 428 858 q 309 823 358 858 q 234 720 260 788 q 208 556 208 653 q 234 391 208 458 q 309 288 260 324 q 428 253 358 253 m 600 253 l 614 253 q 733 288 685 253 q 808 391 782 324 q 833 556 833 458 q 808 720 833 653 q 733 823 782 788 q 614 858 685 858 l 600 858 l 600 253 z "},"Х":{"ha":1042,"x_min":74,"x_max":968,"o":"m 96 0 l 399 533 l 74 1111 l 256 1111 l 499 675 l 513 611 l 528 611 l 542 675 l 790 1111 l 968 1111 l 643 546 l 946 0 l 761 0 l 543 397 l 529 461 l 514 461 l 500 397 l 276 0 l 96 0 z "},"Ч":{"ha":1042,"x_min":111,"x_max":875,"o":"m 111 1111 l 269 1111 l 269 776 q 324 607 269 660 q 500 554 379 554 q 608 565 558 554 q 717 599 657 575 l 717 1111 l 875 1111 l 875 0 l 717 0 l 717 449 q 594 415 653 425 q 458 404 536 404 q 111 763 111 404 l 111 1111 z "},"Ц":{"ha":1042,"x_min":139,"x_max":1000,"o":"m 139 0 l 139 1111 l 297 1111 l 297 150 l 717 150 l 717 1111 l 875 1111 l 875 150 l 1000 150 l 1000 -239 l 847 -239 l 847 0 l 139 0 z "},"Ш":{"ha":1042,"x_min":78,"x_max":964,"o":"m 78 1111 l 231 1111 l 231 150 l 444 150 l 444 1111 l 597 1111 l 597 150 l 811 150 l 811 1111 l 964 1111 l 964 0 l 78 0 l 78 1111 z "},"Щ":{"ha":1042,"x_min":75,"x_max":1031,"o":"m 75 1111 l 228 1111 l 228 150 l 417 150 l 417 1111 l 569 1111 l 569 150 l 758 150 l 758 1111 l 911 1111 l 911 150 l 1031 150 l 1031 -239 l 881 -239 l 881 0 l 75 0 l 75 1111 z "},"Ь":{"ha":1042,"x_min":194,"x_max":975,"o":"m 194 1111 l 353 1111 l 353 653 l 622 653 q 808 613 729 653 q 931 499 888 572 q 975 328 975 426 q 931 154 975 228 q 808 40 888 81 q 622 0 729 0 l 194 0 l 194 1111 m 353 508 l 353 150 l 628 150 q 766 198 715 150 q 817 329 817 246 q 766 460 817 413 q 628 508 715 508 l 353 508 z "},"Ы":{"ha":1042,"x_min":111,"x_max":931,"o":"m 111 1111 l 269 1111 l 269 708 l 353 708 q 582 615 500 708 q 664 356 664 522 q 582 94 664 188 q 353 0 500 0 l 111 0 l 111 1111 m 269 564 l 269 150 l 353 150 q 467 202 429 150 q 506 357 506 254 q 467 512 506 460 q 353 564 429 564 l 269 564 m 772 1111 l 931 1111 l 931 0 l 772 0 l 772 1111 z "},"Ъ":{"ha":1042,"x_min":67,"x_max":975,"o":"m 67 1111 l 436 1111 l 436 653 l 622 653 q 808 613 729 653 q 931 499 888 572 q 975 328 975 426 q 931 154 975 228 q 808 40 888 81 q 622 0 729 0 l 278 0 l 278 967 l 67 967 l 67 1111 m 436 150 l 628 150 q 766 198 715 150 q 817 329 817 246 q 766 460 817 413 q 628 508 715 508 l 436 508 l 436 150 z "},"Є":{"ha":1042,"x_min":117,"x_max":964,"o":"m 681 483 l 250 483 l 250 628 l 681 628 l 681 483 m 549 -22 q 226 123 335 -22 q 117 556 117 268 q 228 988 117 843 q 563 1133 340 1133 q 767 1085 681 1133 q 905 944 854 1036 q 964 722 956 851 l 817 722 q 731 915 796 846 q 563 983 665 983 q 345 878 415 983 q 275 556 275 774 q 342 233 275 338 q 549 128 408 128 q 709 192 647 128 q 789 369 771 256 l 936 369 q 879 159 928 247 q 747 24 831 71 q 549 -22 663 -22 z "},"Э":{"ha":1042,"x_min":78,"x_max":925,"o":"m 361 483 l 361 628 l 792 628 l 792 483 l 361 483 m 493 -22 q 295 24 379 -22 q 163 159 211 71 q 106 369 114 247 l 253 369 q 334 192 272 256 q 493 128 396 128 q 700 233 633 128 q 767 556 767 338 q 697 878 767 774 q 479 983 628 983 q 312 915 378 983 q 225 722 246 846 l 78 722 q 137 944 86 851 q 274 1085 188 1036 q 479 1133 361 1133 q 813 988 701 1133 q 925 556 925 843 q 817 123 925 268 q 493 -22 708 -22 z "},"І":{"ha":1042,"x_min":139,"x_max":903,"o":"m 139 0 l 139 150 l 442 150 l 442 961 l 139 961 l 139 1111 l 903 1111 l 903 961 l 600 961 l 600 150 l 903 150 l 903 0 l 139 0 z "},"Ї":{"ha":1042,"x_min":139,"x_max":903,"o":"m 139 0 l 139 150 l 442 150 l 442 961 l 139 961 l 139 1111 l 903 1111 l 903 961 l 600 961 l 600 150 l 903 150 l 903 0 l 139 0 m 339 1250 q 258 1276 288 1250 q 228 1347 228 1303 q 258 1418 228 1392 q 339 1444 288 1444 q 421 1418 392 1444 q 450 1347 450 1392 q 421 1276 450 1303 q 339 1250 392 1250 m 703 1250 q 622 1276 651 1250 q 592 1347 592 1303 q 622 1418 592 1392 q 703 1444 651 1444 q 785 1418 756 1444 q 814 1347 814 1392 q 785 1276 814 1303 q 703 1250 756 1250 z "},"Ю":{"ha":1042,"x_min":69,"x_max":1017,"o":"m 69 1111 l 228 1111 l 228 635 l 394 635 l 394 485 l 228 485 l 228 0 l 69 0 l 69 1111 m 692 -22 q 542 12 604 -22 q 438 116 479 46 q 378 295 397 186 q 358 556 358 404 q 378 816 358 707 q 438 995 397 925 q 542 1099 479 1065 q 692 1133 604 1133 q 838 1099 776 1133 q 940 995 900 1065 q 998 816 979 925 q 1017 556 1017 707 q 998 295 1017 404 q 940 116 979 186 q 838 12 900 46 q 692 -22 776 -22 m 686 128 q 767 151 733 128 q 820 224 800 174 q 849 357 840 275 q 858 556 858 439 q 849 754 858 672 q 820 887 840 836 q 767 960 800 938 q 686 983 733 983 q 606 960 639 983 q 552 887 572 938 q 523 754 532 836 q 514 556 514 672 q 523 357 514 439 q 552 224 532 275 q 606 151 572 174 q 686 128 639 128 z "},"Я":{"ha":1042,"x_min":61,"x_max":869,"o":"m 711 0 l 711 451 l 456 451 q 268 491 347 451 q 146 603 189 531 q 103 776 103 676 q 146 956 103 881 q 268 1071 189 1031 q 456 1111 347 1111 l 869 1111 l 869 0 l 711 0 m 61 0 l 422 479 l 597 479 l 244 0 l 61 0 m 467 589 l 711 589 l 711 961 l 467 961 q 316 911 371 961 q 261 775 261 861 q 316 639 261 689 q 467 589 371 589 z "},"Ҫ":{"ha":1042,"x_min":117,"x_max":964,"o":"m 549 -22 q 226 123 335 -22 q 117 556 117 268 q 228 988 117 843 q 563 1133 340 1133 q 767 1085 681 1133 q 905 944 854 1036 q 964 722 956 851 l 817 722 q 731 915 796 846 q 563 983 665 983 q 345 878 415 983 q 275 556 275 774 q 342 233 275 338 q 549 128 408 128 q 709 192 647 128 q 789 369 771 256 l 936 369 q 879 159 928 247 q 747 24 831 71 q 549 -22 663 -22 m 526 28 l 649 28 l 624 -53 q 715 -92 683 -61 q 746 -169 746 -122 q 694 -265 746 -231 q 551 -300 643 -300 q 417 -267 467 -300 q 363 -175 367 -235 l 479 -175 q 506 -201 486 -192 q 554 -211 525 -211 q 597 -199 582 -211 q 613 -168 613 -187 q 598 -136 613 -149 q 556 -122 583 -124 l 490 -117 l 526 28 z "},"Ӑ":{"ha":1042,"x_min":78,"x_max":964,"o":"m 78 0 l 392 1111 l 650 1111 l 964 0 l 797 0 l 524 989 l 510 989 l 235 0 l 78 0 m 257 376 l 257 526 l 785 526 l 785 376 l 257 376 m 407 1431 q 440 1353 411 1379 q 521 1328 469 1328 q 602 1353 574 1328 q 635 1431 631 1379 l 774 1431 q 701 1275 764 1328 q 521 1222 638 1222 q 341 1275 404 1222 q 268 1431 278 1328 l 407 1431 z "},"Ӗ":{"ha":1042,"x_min":208,"x_max":917,"o":"m 208 0 l 208 1111 l 917 1111 l 917 961 l 367 961 l 367 629 l 847 629 l 847 490 l 367 490 l 367 150 l 903 150 l 903 0 l 208 0 m 461 1431 q 494 1353 465 1379 q 575 1328 524 1328 q 656 1353 628 1328 q 689 1431 685 1379 l 828 1431 q 755 1275 818 1328 q 575 1222 692 1222 q 395 1275 458 1222 q 322 1431 332 1328 l 461 1431 z "},"Ӳ":{"ha":1042,"x_min":97,"x_max":967,"o":"m 268 1111 l 556 496 l 706 496 l 656 363 l 451 363 l 97 1111 l 268 1111 m 811 1111 l 967 1111 l 693 215 q 635 81 668 133 q 558 3 601 28 q 456 -22 514 -22 q 296 38 356 -22 q 217 215 236 97 l 358 215 q 393 140 371 164 q 450 117 415 117 q 504 144 482 117 q 547 240 526 172 l 811 1111 m 308 1236 l 439 1444 l 617 1444 l 444 1236 l 308 1236 m 583 1236 l 756 1444 l 944 1444 l 731 1236 l 583 1236 z "},"а":{"ha":1042,"x_min":111,"x_max":869,"o":"m 736 522 l 736 388 l 439 343 q 351 303 379 333 q 324 226 324 274 q 363 152 324 182 q 461 122 401 122 q 592 154 533 122 q 685 240 650 186 q 719 360 719 293 l 719 528 q 665 664 719 615 q 511 713 610 713 q 390 692 443 713 q 304 635 338 672 q 258 542 271 597 l 111 542 q 172 709 119 639 q 312 817 224 779 q 517 856 400 856 q 778 774 686 856 q 869 539 869 692 l 869 0 l 719 0 l 719 83 l 678 83 q 578 5 639 32 q 431 -22 517 -22 q 287 8 347 -22 q 194 94 226 39 q 161 222 161 149 q 229 391 161 325 q 424 475 297 457 l 736 522 z "},"б":{"ha":1042,"x_min":111,"x_max":931,"o":"m 522 -22 q 218 110 325 -22 q 111 486 111 243 q 216 947 111 794 q 539 1108 321 1100 l 675 1114 q 733 1131 718 1117 q 750 1181 749 1146 l 903 1181 q 876 1046 900 1092 q 804 983 853 1000 q 675 961 756 965 l 539 956 q 352 881 418 950 q 269 675 286 813 l 289 675 q 397 768 329 736 q 551 800 464 800 q 751 749 665 800 q 883 606 836 697 q 931 392 931 514 q 880 174 931 268 q 738 29 829 81 q 522 -22 646 -22 m 528 122 q 711 194 644 122 q 778 392 778 267 q 711 589 778 517 q 528 661 644 661 q 344 589 411 661 q 278 392 278 517 q 344 194 278 267 q 528 122 411 122 z "},"в":{"ha":1042,"x_min":192,"x_max":900,"o":"m 192 0 l 192 833 l 600 833 q 812 773 738 833 q 886 600 886 713 q 854 501 886 544 q 767 439 822 458 l 767 422 q 865 351 829 401 q 900 233 900 300 q 824 60 900 121 q 608 0 749 0 l 192 0 m 344 142 l 608 142 q 711 169 675 142 q 747 247 747 196 q 711 326 747 299 q 608 353 675 353 l 344 353 l 344 142 m 344 486 l 600 486 q 703 513 667 486 q 739 589 739 540 q 703 665 739 638 q 600 692 667 692 l 344 692 l 344 486 z "},"г":{"ha":1042,"x_min":292,"x_max":903,"o":"m 292 0 l 292 833 l 903 833 l 903 689 l 444 689 l 444 0 l 292 0 z "},"ґ":{"ha":1042,"x_min":292,"x_max":903,"o":"m 750 819 l 750 1072 l 903 1072 l 903 819 l 750 819 m 292 0 l 292 833 l 903 833 l 903 689 l 444 689 l 444 0 l 292 0 z "},"д":{"ha":1042,"x_min":69,"x_max":972,"o":"m 69 -211 l 69 144 l 133 144 q 176 208 158 174 q 206 290 194 242 q 224 411 217 339 q 237 586 232 483 q 246 833 242 689 l 856 833 l 856 144 l 972 144 l 972 -211 l 828 -211 l 828 0 l 214 0 l 214 -211 l 69 -211 m 303 144 l 703 144 l 703 689 l 386 689 q 374 475 381 563 q 359 327 368 388 q 337 224 350 267 q 303 144 324 181 z "},"е":{"ha":1042,"x_min":139,"x_max":928,"o":"m 257 503 l 813 503 l 761 424 q 703 640 761 564 q 539 717 646 717 q 356 638 422 717 q 289 424 289 560 q 356 197 289 278 q 544 117 422 117 q 683 153 622 117 q 783 256 743 189 l 928 256 q 852 110 907 172 q 718 13 797 47 q 544 -22 639 -22 q 328 32 419 -22 q 188 186 238 86 q 139 424 139 286 q 189 651 139 554 q 329 801 239 747 q 539 856 419 856 q 733 804 651 856 q 859 656 815 753 q 903 426 903 560 q 902 397 903 411 q 900 367 901 382 l 257 367 l 257 503 z "},"ё":{"ha":1042,"x_min":139,"x_max":928,"o":"m 257 503 l 813 503 l 761 424 q 703 640 761 564 q 539 717 646 717 q 356 638 422 717 q 289 424 289 560 q 356 197 289 278 q 544 117 422 117 q 683 153 622 117 q 783 256 743 189 l 928 256 q 852 110 907 172 q 718 13 797 47 q 544 -22 639 -22 q 328 32 419 -22 q 188 186 238 86 q 139 424 139 286 q 189 651 139 554 q 329 801 239 747 q 539 856 419 856 q 733 804 651 856 q 859 656 815 753 q 903 426 903 560 q 902 397 903 411 q 900 367 901 382 l 257 367 l 257 503 m 351 972 q 270 999 300 972 q 240 1069 240 1025 q 270 1140 240 1114 q 351 1167 300 1167 q 433 1140 404 1167 q 463 1069 463 1114 q 433 999 463 1025 q 351 972 404 972 m 715 972 q 634 999 664 972 q 604 1069 604 1025 q 634 1140 604 1114 q 715 1167 664 1167 q 797 1140 768 1167 q 826 1069 826 1114 q 797 999 826 1025 q 715 972 768 972 z "},"ж":{"ha":1042,"x_min":42,"x_max":1000,"o":"m 811 0 l 642 289 l 628 335 l 583 335 l 583 468 l 631 468 l 644 514 l 838 833 l 1000 833 l 742 410 l 986 0 l 811 0 m 56 0 l 300 410 l 42 833 l 204 833 l 397 514 l 411 468 l 458 468 l 458 335 l 414 335 l 400 289 l 231 0 l 56 0 m 444 0 l 444 833 l 597 833 l 597 0 l 444 0 z "},"з":{"ha":1042,"x_min":167,"x_max":903,"o":"m 542 -22 q 284 52 382 -22 q 178 256 186 126 l 324 256 q 397 156 339 192 q 542 119 456 119 q 649 135 603 119 q 720 178 694 150 q 746 244 746 207 q 706 326 746 297 q 596 356 665 356 l 456 356 l 456 483 l 600 483 q 710 513 669 483 q 750 592 750 542 q 724 654 750 626 q 653 698 699 682 q 546 714 607 714 q 389 669 451 714 q 311 547 326 625 l 167 547 q 276 774 175 692 q 546 856 378 856 q 735 823 656 856 q 859 733 815 790 q 903 603 903 676 q 869 505 903 549 q 779 439 836 461 l 779 422 q 868 348 836 400 q 900 231 900 296 q 856 98 900 154 q 731 10 811 42 q 542 -22 650 -22 z "},"и":{"ha":1042,"x_min":153,"x_max":889,"o":"m 153 0 l 153 833 l 306 833 l 306 333 l 300 94 l 317 94 l 625 833 l 889 833 l 889 0 l 736 0 l 736 500 l 742 739 l 725 739 l 417 0 l 153 0 z "},"й":{"ha":1042,"x_min":153,"x_max":889,"o":"m 153 0 l 153 833 l 306 833 l 306 333 l 300 94 l 317 94 l 625 833 l 889 833 l 889 0 l 736 0 l 736 500 l 742 739 l 725 739 l 417 0 l 153 0 m 392 1153 q 425 1076 396 1101 q 506 1050 454 1050 q 587 1076 558 1050 q 619 1153 615 1101 l 758 1153 q 685 997 749 1050 q 506 944 622 944 q 326 997 389 944 q 253 1153 263 1050 l 392 1153 z "},"к":{"ha":1042,"x_min":231,"x_max":944,"o":"m 729 0 l 333 406 l 743 833 l 944 833 l 538 411 l 939 0 l 729 0 m 231 0 l 231 833 l 383 833 l 383 0 l 231 0 z "},"л":{"ha":1042,"x_min":83,"x_max":875,"o":"m 83 -11 l 83 131 l 111 131 q 175 138 150 131 q 215 173 200 146 q 240 257 231 200 q 253 411 249 314 l 272 833 l 875 833 l 875 0 l 722 0 l 722 689 l 413 689 l 399 369 q 374 159 393 236 q 323 46 356 82 q 241 -1 290 10 q 125 -11 192 -11 l 83 -11 z "},"м":{"ha":1042,"x_min":117,"x_max":925,"o":"m 117 0 l 117 833 l 369 833 l 518 236 l 532 236 l 681 833 l 925 833 l 925 0 l 781 0 l 781 417 l 786 722 l 772 722 l 631 153 l 411 153 l 269 722 l 256 722 l 261 417 l 261 0 l 117 0 z "},"н":{"ha":1042,"x_min":167,"x_max":875,"o":"m 167 0 l 167 833 l 319 833 l 319 482 l 722 482 l 722 833 l 875 833 l 875 0 l 722 0 l 722 338 l 319 338 l 319 0 l 167 0 z "},"о":{"ha":1042,"x_min":111,"x_max":931,"o":"m 521 -22 q 306 33 399 -22 q 163 186 214 88 q 111 417 111 285 q 163 647 111 549 q 306 801 214 746 q 521 856 399 856 q 736 801 644 856 q 879 647 828 746 q 931 417 931 549 q 879 186 931 285 q 736 33 828 88 q 521 -22 644 -22 m 521 122 q 709 201 640 122 q 778 417 778 281 q 709 632 778 553 q 521 711 640 711 q 333 632 401 711 q 264 417 264 553 q 333 201 264 281 q 521 122 401 122 z "},"п":{"ha":1042,"x_min":175,"x_max":867,"o":"m 175 0 l 175 833 l 867 833 l 867 0 l 714 0 l 714 689 l 328 689 l 328 0 l 175 0 z "},"р":{"ha":1042,"x_min":153,"x_max":953,"o":"m 153 -278 l 153 833 l 306 833 l 306 750 l 347 750 q 440 827 376 799 q 578 856 503 856 q 775 801 690 856 q 906 647 860 746 q 953 417 953 549 q 906 186 953 285 q 775 33 860 88 q 578 -22 690 -22 q 440 7 503 -22 q 347 83 376 36 l 306 83 l 306 -278 l 153 -278 m 550 122 q 733 201 667 122 q 800 417 800 281 q 733 632 800 553 q 550 711 667 711 q 367 632 433 711 q 300 417 300 553 q 367 201 300 281 q 550 122 433 122 z "},"с":{"ha":1042,"x_min":136,"x_max":936,"o":"m 540 -22 q 328 32 419 -22 q 187 184 238 86 q 136 413 136 282 q 188 645 136 546 q 335 800 240 744 q 554 856 429 856 q 751 813 667 856 q 883 692 835 769 q 936 511 932 615 l 796 511 q 713 658 778 604 q 549 711 647 711 q 358 631 426 711 q 289 413 289 551 q 356 200 289 278 q 540 122 424 122 q 688 169 626 122 q 774 297 749 217 l 914 297 q 855 130 906 201 q 723 18 804 58 q 540 -22 642 -22 z "},"т":{"ha":1042,"x_min":139,"x_max":903,"o":"m 444 0 l 444 689 l 139 689 l 139 833 l 903 833 l 903 689 l 597 689 l 597 0 l 444 0 z "},"у":{"ha":1042,"x_min":100,"x_max":944,"o":"m 100 833 l 268 833 l 511 208 l 613 208 l 567 69 l 399 69 l 100 833 m 944 833 l 608 -119 q 519 -252 578 -204 q 386 -300 461 -300 q 210 -241 275 -300 q 136 -72 144 -182 l 275 -72 q 317 -140 294 -119 q 378 -161 340 -161 q 434 -140 413 -161 q 474 -72 456 -119 l 789 833 l 944 833 z "},"ў":{"ha":1042,"x_min":100,"x_max":944,"o":"m 100 833 l 268 833 l 511 208 l 613 208 l 567 69 l 399 69 l 100 833 m 944 833 l 608 -119 q 519 -252 578 -204 q 386 -300 461 -300 q 210 -241 275 -300 q 136 -72 144 -182 l 275 -72 q 317 -140 294 -119 q 378 -161 340 -161 q 434 -140 413 -161 q 474 -72 456 -119 l 789 833 l 944 833 m 411 1153 q 444 1076 415 1101 q 525 1050 474 1050 q 606 1076 578 1050 q 639 1153 635 1101 l 778 1153 q 705 997 768 1050 q 525 944 642 944 q 345 997 408 944 q 272 1153 282 1050 l 411 1153 z "},"ф":{"ha":1042,"x_min":69,"x_max":972,"o":"m 444 -278 l 444 -22 l 417 -22 q 235 33 313 -22 q 113 187 157 88 q 69 418 69 286 q 113 648 69 550 q 235 801 157 746 q 417 856 313 856 l 444 856 l 444 1111 l 597 1111 l 597 856 l 625 856 q 808 801 729 856 q 929 648 886 746 q 972 418 972 550 q 929 187 972 286 q 808 33 886 88 q 625 -22 729 -22 l 597 -22 l 597 -278 l 444 -278 m 417 122 l 444 122 l 444 711 l 417 711 q 274 633 326 711 q 222 418 222 554 q 246 260 222 326 q 313 158 269 194 q 417 122 357 122 m 597 122 l 625 122 q 729 158 686 122 q 796 260 772 194 q 819 418 819 326 q 767 633 819 554 q 625 711 715 711 l 597 711 l 597 122 z "},"х":{"ha":1042,"x_min":108,"x_max":933,"o":"m 125 0 l 393 396 l 108 833 l 292 833 l 500 514 l 515 474 l 529 474 l 544 514 l 763 833 l 933 833 l 646 410 l 917 0 l 731 0 l 539 289 l 524 329 l 510 329 l 494 289 l 300 0 l 125 0 z "},"ч":{"ha":1042,"x_min":139,"x_max":847,"o":"m 694 0 l 694 313 q 596 289 649 297 q 475 281 543 281 q 222 357 304 281 q 139 583 139 433 l 139 833 l 292 833 l 292 583 q 340 462 292 501 q 494 422 388 422 q 601 430 554 422 q 694 454 647 438 l 694 833 l 847 833 l 847 0 l 694 0 z "},"ц":{"ha":1042,"x_min":167,"x_max":975,"o":"m 831 -211 l 831 0 l 167 0 l 167 833 l 319 833 l 319 144 l 706 144 l 706 833 l 858 833 l 858 144 l 975 144 l 975 -211 l 831 -211 z "},"ш":{"ha":1042,"x_min":86,"x_max":956,"o":"m 86 0 l 86 833 l 233 833 l 233 144 l 447 144 l 447 833 l 594 833 l 594 144 l 808 144 l 808 833 l 956 833 l 956 0 l 86 0 z "},"щ":{"ha":1042,"x_min":86,"x_max":1006,"o":"m 861 -211 l 861 0 l 86 0 l 86 833 l 233 833 l 233 144 l 414 144 l 414 833 l 561 833 l 561 144 l 742 144 l 742 833 l 889 833 l 889 144 l 1006 144 l 1006 -211 l 861 -211 z "},"ь":{"ha":1042,"x_min":222,"x_max":931,"o":"m 222 0 l 222 833 l 375 833 l 375 558 l 625 558 q 849 484 767 558 q 931 279 931 410 q 849 74 931 149 q 625 0 767 0 l 222 0 m 375 144 l 625 144 q 738 180 699 144 q 778 281 778 215 q 738 381 778 346 q 625 417 699 417 l 375 417 l 375 144 z "},"ы":{"ha":1042,"x_min":83,"x_max":958,"o":"m 83 0 l 83 833 l 236 833 l 236 558 l 360 558 q 585 484 503 558 q 667 279 667 410 q 585 74 667 149 q 360 0 503 0 l 83 0 m 236 144 l 374 144 q 476 181 439 144 q 514 281 514 217 q 476 381 514 344 q 374 417 439 417 l 236 417 l 236 144 m 806 0 l 806 833 l 958 833 l 958 0 l 806 0 z "},"ъ":{"ha":1042,"x_min":69,"x_max":978,"o":"m 297 0 l 297 689 l 69 689 l 69 833 l 450 833 l 450 558 l 672 558 q 896 484 814 558 q 978 279 978 410 q 896 74 978 149 q 672 0 814 0 l 297 0 m 450 144 l 672 144 q 785 180 746 144 q 825 281 825 215 q 785 381 825 346 q 672 417 746 417 l 450 417 l 450 144 z "},"є":{"ha":1042,"x_min":136,"x_max":936,"o":"m 272 346 l 272 479 l 667 479 l 667 346 l 272 346 m 540 -22 q 328 32 419 -22 q 187 184 238 86 q 136 413 136 282 q 188 645 136 546 q 335 800 240 744 q 554 856 429 856 q 751 813 667 856 q 883 692 835 769 q 936 511 932 615 l 796 511 q 713 658 778 604 q 549 711 647 711 q 358 631 426 711 q 289 413 289 551 q 356 200 289 278 q 540 122 424 122 q 688 169 626 122 q 774 297 749 217 l 914 297 q 855 130 906 201 q 723 18 804 58 q 540 -22 642 -22 z "},"э":{"ha":1042,"x_min":106,"x_max":906,"o":"m 769 346 l 375 346 l 375 479 l 769 479 l 769 346 m 501 -22 q 319 18 400 -22 q 187 130 238 58 q 128 297 136 201 l 268 297 q 355 169 293 217 q 501 122 417 122 q 685 200 618 122 q 753 413 753 278 q 684 631 753 551 q 493 711 615 711 q 331 658 396 711 q 246 511 265 604 l 106 511 q 158 692 110 615 q 291 813 207 769 q 488 856 375 856 q 708 800 614 856 q 853 645 801 744 q 906 413 906 546 q 855 184 906 282 q 714 32 804 86 q 501 -22 624 -22 z "},"і":{"ha":1042,"x_min":215,"x_max":924,"o":"m 215 833 l 646 833 l 646 144 l 924 144 l 924 0 l 215 0 l 215 144 l 493 144 l 493 689 l 215 689 l 215 833 m 558 961 q 469 990 501 961 q 436 1069 436 1018 q 469 1149 436 1121 q 558 1178 501 1178 q 648 1149 615 1178 q 681 1069 681 1121 q 648 990 681 1018 q 558 961 615 961 z "},"ї":{"ha":1042,"x_min":215,"x_max":924,"o":"m 215 833 l 646 833 l 646 144 l 924 144 l 924 0 l 215 0 l 215 144 l 493 144 l 493 689 l 215 689 l 215 833 m 376 972 q 295 999 325 972 q 265 1069 265 1025 q 295 1140 265 1114 q 376 1167 325 1167 q 458 1140 429 1167 q 488 1069 488 1114 q 458 999 488 1025 q 376 972 429 972 m 740 972 q 659 999 689 972 q 629 1069 629 1025 q 659 1140 629 1114 q 740 1167 689 1167 q 822 1140 793 1167 q 851 1069 851 1114 q 822 999 851 1025 q 740 972 793 972 z "},"ю":{"ha":1042,"x_min":83,"x_max":1014,"o":"m 686 -22 q 505 27 578 -22 q 395 175 432 76 q 358 418 358 274 q 395 660 358 563 q 505 806 432 757 q 686 856 578 856 q 867 806 794 856 q 977 660 940 757 q 1014 418 1014 563 q 977 175 1014 274 q 867 27 940 76 q 686 -22 794 -22 m 83 0 l 83 833 l 236 833 l 236 482 l 381 482 l 381 338 l 236 338 l 236 0 l 83 0 m 685 122 q 783 154 744 122 q 842 252 822 186 q 861 418 861 318 q 842 583 861 518 q 783 679 822 647 q 685 711 744 711 q 586 679 625 711 q 528 583 547 647 q 508 418 508 518 q 528 252 508 318 q 586 154 547 186 q 685 122 625 122 z "},"я":{"ha":1042,"x_min":144,"x_max":853,"o":"m 700 0 l 700 306 l 478 306 q 315 338 383 306 q 209 428 246 369 q 172 569 172 488 q 209 710 172 651 q 315 801 246 769 q 478 833 383 833 l 853 833 l 853 0 l 700 0 m 144 0 l 394 333 l 571 333 l 325 0 l 144 0 m 478 444 l 700 444 l 700 689 l 478 689 q 365 657 406 689 q 325 567 325 625 q 365 476 325 508 q 478 444 406 444 z "},"ҫ":{"ha":1042,"x_min":136,"x_max":936,"o":"m 540 -22 q 328 32 419 -22 q 187 184 238 86 q 136 413 136 282 q 188 645 136 546 q 335 800 240 744 q 554 856 429 856 q 751 813 667 856 q 883 692 835 769 q 936 511 932 615 l 796 511 q 713 658 778 604 q 549 711 647 711 q 358 631 426 711 q 289 413 289 551 q 356 200 289 278 q 540 122 424 122 q 688 169 626 122 q 774 297 749 217 l 914 297 q 855 130 906 201 q 723 18 804 58 q 540 -22 642 -22 m 518 28 l 640 28 l 615 -53 q 706 -92 675 -61 q 738 -169 738 -122 q 686 -265 738 -231 q 543 -300 635 -300 q 408 -267 458 -300 q 354 -175 358 -235 l 471 -175 q 497 -201 478 -192 q 546 -211 517 -211 q 589 -199 574 -211 q 604 -168 604 -187 q 590 -136 604 -149 q 547 -122 575 -124 l 482 -117 l 518 28 z "},"ӑ":{"ha":1042,"x_min":111,"x_max":869,"o":"m 736 522 l 736 388 l 439 343 q 351 303 379 333 q 324 226 324 274 q 363 152 324 182 q 461 122 401 122 q 592 154 533 122 q 685 240 650 186 q 719 360 719 293 l 719 528 q 665 664 719 615 q 511 713 610 713 q 390 692 443 713 q 304 635 338 672 q 258 542 271 597 l 111 542 q 172 709 119 639 q 312 817 224 779 q 517 856 400 856 q 778 774 686 856 q 869 539 869 692 l 869 0 l 719 0 l 719 83 l 678 83 q 578 5 639 32 q 431 -22 517 -22 q 287 8 347 -22 q 194 94 226 39 q 161 222 161 149 q 229 391 161 325 q 424 475 297 457 l 736 522 m 403 1153 q 436 1076 407 1101 q 517 1050 465 1050 q 598 1076 569 1050 q 631 1153 626 1101 l 769 1153 q 697 997 760 1050 q 517 944 633 944 q 337 997 400 944 q 264 1153 274 1050 l 403 1153 z "},"ӗ":{"ha":1042,"x_min":139,"x_max":928,"o":"m 257 503 l 813 503 l 761 424 q 703 640 761 564 q 539 717 646 717 q 356 638 422 717 q 289 424 289 560 q 356 197 289 278 q 544 117 422 117 q 683 153 622 117 q 783 256 743 189 l 928 256 q 852 110 907 172 q 718 13 797 47 q 544 -22 639 -22 q 328 32 419 -22 q 188 186 238 86 q 139 424 139 286 q 189 651 139 554 q 329 801 239 747 q 539 856 419 856 q 733 804 651 856 q 859 656 815 753 q 903 426 903 560 q 902 397 903 411 q 900 367 901 382 l 257 367 l 257 503 m 419 1153 q 453 1076 424 1101 q 533 1050 482 1050 q 615 1076 586 1050 q 647 1153 643 1101 l 786 1153 q 713 997 776 1050 q 533 944 650 944 q 353 997 417 944 q 281 1153 290 1050 l 419 1153 z "},"ӳ":{"ha":1042,"x_min":100,"x_max":944,"o":"m 100 833 l 268 833 l 511 208 l 613 208 l 567 69 l 399 69 l 100 833 m 944 833 l 608 -119 q 519 -252 578 -204 q 386 -300 461 -300 q 210 -241 275 -300 q 136 -72 144 -182 l 275 -72 q 317 -140 294 -119 q 378 -161 340 -161 q 434 -140 413 -161 q 474 -72 456 -119 l 789 833 l 944 833 m 278 958 l 408 1167 l 586 1167 l 414 958 l 278 958 m 553 958 l 725 1167 l 914 1167 l 700 958 l 553 958 z "},"⁄":{"ha":1042,"x_min":68,"x_max":974,"o":"m 974 1111 l 197 0 l 68 0 l 844 1111 l 974 1111 z "},"½":{"ha":1042,"x_min":14,"x_max":1031,"o":"m 974 1111 l 669 667 l 540 667 l 844 1111 l 974 1111 m 501 444 l 197 0 l 68 0 l 372 444 l 501 444 m 14 517 l 14 625 l 181 625 l 181 1079 l 239 1047 l 14 906 l 14 1035 l 138 1111 l 300 1111 l 300 625 l 447 625 l 447 517 l 14 517 m 597 178 l 842 296 q 892 339 874 311 q 911 399 911 367 q 883 472 911 446 q 806 499 854 499 q 731 476 761 499 q 692 414 701 454 l 572 414 q 643 553 579 500 q 806 607 707 607 q 970 551 910 607 q 1031 399 1031 496 q 993 282 1031 333 q 882 194 956 231 l 625 74 l 619 108 l 1018 108 l 1018 0 l 597 0 l 597 178 z "},"¼":{"ha":1042,"x_min":14,"x_max":1003,"o":"m 974 1111 l 669 667 l 540 667 l 844 1111 l 974 1111 m 501 444 l 197 0 l 68 0 l 372 444 l 501 444 m 14 517 l 14 625 l 181 625 l 181 1079 l 239 1047 l 14 906 l 14 1035 l 138 1111 l 300 1111 l 300 625 l 447 625 l 447 517 l 14 517 m 908 594 l 908 267 l 1003 267 l 1003 158 l 908 158 l 908 0 l 789 0 l 789 158 l 492 158 l 492 288 l 721 594 l 908 594 m 575 228 l 575 267 l 789 267 l 789 589 l 846 589 l 575 228 z "},"¾":{"ha":1042,"x_min":-8,"x_max":1003,"o":"m 974 1111 l 669 667 l 540 667 l 844 1111 l 974 1111 m 501 444 l 197 0 l 68 0 l 372 444 l 501 444 m 461 688 q 432 593 461 635 q 352 528 403 551 q 236 504 301 504 q 67 556 133 504 q -3 692 1 607 l 117 692 q 156 634 124 656 q 235 613 188 613 q 310 635 282 613 q 339 692 339 657 q 313 749 339 728 q 240 769 286 769 l 178 769 l 178 872 l 240 872 q 317 891 289 872 q 344 943 344 910 q 315 995 344 975 q 239 1015 286 1015 q 154 993 189 1015 q 111 931 119 971 l -8 931 q 66 1070 -3 1017 q 240 1124 135 1124 q 356 1101 306 1124 q 435 1039 406 1078 q 464 949 464 1000 q 437 873 464 906 q 365 829 410 840 l 365 818 q 435 767 410 801 q 461 688 461 732 m 908 594 l 908 267 l 1003 267 l 1003 158 l 908 158 l 908 0 l 789 0 l 789 158 l 492 158 l 492 288 l 721 594 l 908 594 m 575 228 l 575 267 l 789 267 l 789 589 l 846 589 l 575 228 z "},"₀":{"ha":1042,"x_min":271,"x_max":771,"o":"m 521 -162 q 336 -82 401 -162 q 271 147 271 -1 q 336 376 271 296 q 521 457 401 457 q 706 376 640 457 q 771 147 771 296 q 706 -82 771 -1 q 521 -162 640 -162 m 521 -54 q 619 -3 586 -54 q 651 147 651 47 q 619 298 651 247 q 521 349 586 349 q 424 298 457 349 q 390 147 390 247 q 424 -3 390 47 q 521 -54 457 -54 m 342 83 l 700 328 l 700 211 l 342 -33 l 342 83 z "},"₁":{"ha":1042,"x_min":333,"x_max":767,"o":"m 333 -150 l 333 -42 l 500 -42 l 500 413 l 558 381 l 333 239 l 333 368 l 457 444 l 619 444 l 619 -42 l 767 -42 l 767 -150 l 333 -150 z "},"₂":{"ha":1042,"x_min":297,"x_max":756,"o":"m 322 28 l 567 146 q 617 189 599 161 q 636 249 636 217 q 608 322 636 296 q 531 349 579 349 q 456 326 486 349 q 417 264 426 304 l 297 264 q 368 403 304 350 q 531 457 432 457 q 695 401 635 457 q 756 249 756 346 q 718 132 756 183 q 607 44 681 81 l 350 -76 l 344 -42 l 743 -42 l 743 -150 l 322 -150 l 322 28 z "},"₃":{"ha":1042,"x_min":289,"x_max":761,"o":"m 758 21 q 729 -74 758 -32 q 649 -139 700 -115 q 533 -162 599 -162 q 365 -111 431 -162 q 294 25 299 -60 l 414 25 q 453 -33 421 -11 q 532 -54 485 -54 q 608 -32 579 -54 q 636 25 636 -10 q 610 82 636 61 q 538 103 583 103 l 475 103 l 475 206 l 538 206 q 614 224 586 206 q 642 276 642 243 q 613 328 642 308 q 536 349 583 349 q 451 326 486 349 q 408 264 417 304 l 289 264 q 363 403 294 350 q 538 457 432 457 q 653 434 603 457 q 732 372 703 411 q 761 282 761 333 q 734 206 761 239 q 663 163 707 174 l 663 151 q 733 100 707 135 q 758 21 758 65 z "},"₄":{"ha":1042,"x_min":258,"x_max":769,"o":"m 675 444 l 675 117 l 769 117 l 769 8 l 675 8 l 675 -150 l 556 -150 l 556 8 l 258 8 l 258 138 l 488 444 l 675 444 m 342 78 l 342 117 l 556 117 l 556 439 l 613 439 l 342 78 z "},"₅":{"ha":1042,"x_min":294,"x_max":764,"o":"m 314 444 l 750 444 l 750 336 l 386 336 l 433 396 l 433 217 l 447 217 q 494 238 467 231 q 553 246 522 246 q 706 190 649 246 q 764 44 764 135 q 700 -106 764 -49 q 529 -162 636 -162 q 369 -115 433 -162 q 294 8 304 -68 l 414 8 q 456 -40 425 -22 q 528 -57 486 -57 q 614 -29 583 -57 q 644 46 644 -1 q 615 117 644 90 q 532 143 585 143 q 470 131 499 143 q 428 97 442 118 l 314 97 l 314 444 z "},"₆":{"ha":1042,"x_min":283,"x_max":758,"o":"m 521 -162 q 399 -136 453 -162 q 314 -64 344 -110 q 283 40 283 -18 q 302 139 283 92 q 363 240 321 186 l 517 444 l 654 444 l 500 244 l 511 232 q 529 236 519 235 q 549 238 539 238 q 657 212 610 238 q 731 142 704 186 q 758 40 758 97 q 728 -64 758 -18 q 644 -136 697 -110 q 521 -162 590 -162 m 403 43 q 435 -27 403 0 q 521 -54 468 -54 q 606 -27 574 -54 q 639 43 639 0 q 606 114 639 88 q 521 140 574 140 q 435 114 468 140 q 403 43 403 88 z "},"₇":{"ha":1042,"x_min":333,"x_max":750,"o":"m 750 275 l 517 -150 l 390 -150 l 676 365 l 676 336 l 333 336 l 333 444 l 750 444 l 750 275 z "},"₈":{"ha":1042,"x_min":285,"x_max":757,"o":"m 521 203 q 608 222 578 203 q 638 276 638 242 q 608 330 638 311 q 521 349 578 349 q 435 330 465 349 q 404 276 404 311 q 435 222 404 242 q 521 203 465 203 m 285 289 q 348 412 285 367 q 521 457 411 457 q 694 412 631 457 q 757 289 757 367 q 733 208 757 242 q 664 160 708 175 l 664 147 q 731 98 708 133 q 754 13 754 63 q 692 -115 754 -68 q 521 -161 629 -161 q 350 -115 413 -161 q 288 13 288 -68 q 311 98 288 63 q 378 147 335 133 l 378 160 q 309 208 333 175 q 285 289 285 242 m 407 25 q 437 -33 407 -12 q 521 -53 467 -53 q 605 -33 575 -53 q 635 25 635 -12 q 605 83 635 63 q 521 103 575 103 q 437 83 467 103 q 407 25 407 63 z "},"₉":{"ha":1042,"x_min":283,"x_max":758,"o":"m 521 457 q 644 431 590 457 q 728 359 697 404 q 758 254 758 314 q 740 156 758 203 q 679 54 721 108 l 525 -150 l 388 -150 l 542 50 l 531 63 q 513 58 522 60 q 493 57 504 57 q 385 83 432 57 q 310 153 338 108 q 283 254 283 197 q 314 359 283 314 q 399 431 344 404 q 521 457 453 457 m 639 251 q 606 322 639 296 q 521 349 574 349 q 435 322 468 349 q 403 251 403 296 q 435 181 403 208 q 521 154 468 154 q 606 181 574 154 q 639 251 639 208 z "},"⁰":{"ha":1042,"x_min":271,"x_max":771,"o":"m 521 654 q 336 735 401 654 q 271 964 271 815 q 336 1193 271 1113 q 521 1274 401 1274 q 706 1193 640 1274 q 771 964 771 1113 q 706 735 771 815 q 521 654 640 654 m 521 763 q 619 813 586 763 q 651 964 651 864 q 619 1115 651 1064 q 521 1165 586 1165 q 424 1115 457 1165 q 390 964 390 1064 q 424 813 390 864 q 521 763 457 763 m 342 900 l 700 1144 l 700 1028 l 342 783 l 342 900 z "},"¹":{"ha":1042,"x_min":333,"x_max":767,"o":"m 333 667 l 333 775 l 500 775 l 500 1229 l 558 1197 l 333 1056 l 333 1185 l 457 1261 l 619 1261 l 619 775 l 767 775 l 767 667 l 333 667 z "},"²":{"ha":1042,"x_min":297,"x_max":756,"o":"m 322 844 l 567 963 q 617 1006 599 978 q 636 1065 636 1033 q 608 1139 636 1113 q 531 1165 579 1165 q 456 1143 486 1165 q 417 1081 426 1121 l 297 1081 q 368 1220 304 1167 q 531 1274 432 1274 q 695 1218 635 1274 q 756 1065 756 1163 q 718 949 756 1000 q 607 861 681 897 l 350 740 l 344 775 l 743 775 l 743 667 l 322 667 l 322 844 z "},"³":{"ha":1042,"x_min":289,"x_max":761,"o":"m 758 838 q 729 743 758 785 q 649 678 700 701 q 533 654 599 654 q 365 706 431 654 q 294 842 299 757 l 414 842 q 453 784 421 806 q 532 763 485 763 q 608 785 579 763 q 636 842 636 807 q 610 899 636 878 q 538 919 583 919 l 475 919 l 475 1022 l 538 1022 q 614 1041 586 1022 q 642 1093 642 1060 q 613 1145 642 1125 q 536 1165 583 1165 q 451 1143 486 1165 q 408 1081 417 1121 l 289 1081 q 363 1220 294 1167 q 538 1274 432 1274 q 653 1251 603 1274 q 732 1189 703 1228 q 761 1099 761 1150 q 734 1023 761 1056 q 663 979 707 990 l 663 968 q 733 917 707 951 q 758 838 758 882 z "},"⁴":{"ha":1042,"x_min":258,"x_max":769,"o":"m 675 1261 l 675 933 l 769 933 l 769 825 l 675 825 l 675 667 l 556 667 l 556 825 l 258 825 l 258 954 l 488 1261 l 675 1261 m 342 894 l 342 933 l 556 933 l 556 1256 l 613 1256 l 342 894 z "},"⁵":{"ha":1042,"x_min":294,"x_max":764,"o":"m 314 1261 l 750 1261 l 750 1153 l 386 1153 l 433 1213 l 433 1033 l 447 1033 q 494 1055 467 1047 q 553 1063 522 1063 q 706 1007 649 1063 q 764 861 764 951 q 700 711 764 768 q 529 654 636 654 q 369 701 433 654 q 294 825 304 749 l 414 825 q 456 777 425 794 q 528 760 486 760 q 614 788 583 760 q 644 863 644 815 q 615 933 644 907 q 532 960 585 960 q 470 947 499 960 q 428 914 442 935 l 314 914 l 314 1261 z "},"⁶":{"ha":1042,"x_min":283,"x_max":758,"o":"m 521 654 q 399 681 453 654 q 314 753 344 707 q 283 857 283 799 q 302 956 283 908 q 363 1057 321 1003 l 517 1261 l 654 1261 l 500 1061 l 511 1049 q 529 1053 519 1051 q 549 1054 539 1054 q 657 1028 610 1054 q 731 958 704 1003 q 758 857 758 914 q 728 753 758 799 q 644 681 697 707 q 521 654 590 654 m 403 860 q 435 790 403 817 q 521 763 468 763 q 606 790 574 763 q 639 860 639 817 q 606 931 639 904 q 521 957 574 957 q 435 931 468 957 q 403 860 403 904 z "},"⁷":{"ha":1042,"x_min":333,"x_max":750,"o":"m 750 1092 l 517 667 l 390 667 l 676 1182 l 676 1153 l 333 1153 l 333 1261 l 750 1261 l 750 1092 z "},"⁸":{"ha":1042,"x_min":285,"x_max":757,"o":"m 521 1019 q 608 1039 578 1019 q 638 1093 638 1058 q 608 1147 638 1128 q 521 1165 578 1165 q 435 1147 465 1165 q 404 1093 404 1128 q 435 1039 404 1058 q 521 1019 465 1019 m 285 1106 q 348 1228 285 1183 q 521 1274 411 1274 q 694 1228 631 1274 q 757 1106 757 1183 q 733 1025 757 1058 q 664 976 708 992 l 664 964 q 731 915 708 950 q 754 829 754 879 q 692 702 754 749 q 521 656 629 656 q 350 702 413 656 q 288 829 288 749 q 311 915 288 879 q 378 964 335 950 l 378 976 q 309 1025 333 992 q 285 1106 285 1058 m 407 842 q 437 784 407 804 q 521 764 467 764 q 605 784 575 764 q 635 842 635 804 q 605 899 635 879 q 521 919 575 919 q 437 899 467 919 q 407 842 407 879 z "},"⁹":{"ha":1042,"x_min":283,"x_max":758,"o":"m 521 1274 q 644 1247 590 1274 q 728 1176 697 1221 q 758 1071 758 1131 q 740 972 758 1019 q 679 871 721 925 l 525 667 l 388 667 l 542 867 l 531 879 q 513 875 522 876 q 493 874 504 874 q 385 899 432 874 q 310 969 338 925 q 283 1071 283 1014 q 314 1176 283 1131 q 399 1247 344 1221 q 521 1274 453 1274 m 639 1068 q 606 1139 639 1113 q 521 1165 574 1165 q 435 1139 468 1165 q 403 1068 403 1113 q 435 998 403 1025 q 521 971 468 971 q 606 998 574 971 q 639 1068 639 1025 z "}," ":{"ha":1042,"x_min":0,"x_max":0,"o":""}," ":{"ha":1042,"x_min":0,"x_max":0,"o":""}," ":{"ha":1042,"x_min":0,"x_max":0,"o":""}," ":{"ha":1042,"x_min":0,"x_max":0,"o":""},".":{"ha":1042,"x_min":383,"x_max":658,"o":"m 521 -11 q 419 23 456 -11 q 383 119 383 57 q 419 216 383 182 q 521 250 456 250 q 622 216 586 250 q 658 119 658 182 q 622 23 658 57 q 521 -11 586 -11 z "},",":{"ha":1042,"x_min":364,"x_max":672,"o":"m 364 -250 q 462 -142 418 -211 q 521 0 506 -72 l 521 250 q 635 208 599 250 q 672 78 672 165 q 660 -44 672 18 q 628 -159 649 -106 q 581 -250 608 -212 l 364 -250 m 521 -11 q 419 23 456 -11 q 383 119 383 57 q 419 216 383 182 q 521 250 456 250 q 622 216 586 250 q 658 119 658 182 q 622 23 658 57 q 521 -11 586 -11 z "},":":{"ha":1042,"x_min":383,"x_max":658,"o":"m 521 -11 q 419 23 456 -11 q 383 119 383 57 q 419 216 383 182 q 521 250 456 250 q 622 216 586 250 q 658 119 658 182 q 622 23 658 57 q 521 -11 586 -11 m 521 583 q 419 617 456 583 q 383 714 383 651 q 419 810 383 776 q 521 844 456 844 q 622 810 586 844 q 658 714 658 776 q 622 617 658 651 q 521 583 586 583 z "},";":{"ha":1042,"x_min":364,"x_max":672,"o":"m 521 583 q 419 617 456 583 q 383 714 383 651 q 419 810 383 776 q 521 844 456 844 q 622 810 586 844 q 658 714 658 776 q 622 617 658 651 q 521 583 586 583 m 364 -250 q 462 -142 418 -211 q 521 0 506 -72 l 521 250 q 635 208 599 250 q 672 78 672 165 q 660 -44 672 18 q 628 -159 649 -106 q 581 -250 608 -212 l 364 -250 m 521 -11 q 419 23 456 -11 q 383 119 383 57 q 419 216 383 182 q 521 250 456 250 q 622 216 586 250 q 658 119 658 182 q 622 23 658 57 q 521 -11 586 -11 z "},"…":{"ha":1042,"x_min":69,"x_max":972,"o":"m 521 -11 q 439 23 468 -11 q 410 119 410 57 q 439 216 410 182 q 521 250 468 250 q 603 216 574 250 q 632 119 632 182 q 603 23 632 57 q 521 -11 574 -11 m 861 -11 q 779 23 808 -11 q 750 119 750 57 q 779 216 750 182 q 861 250 808 250 q 943 216 914 250 q 972 119 972 182 q 943 23 972 57 q 861 -11 914 -11 m 181 -11 q 99 23 128 -11 q 69 119 69 57 q 99 216 69 182 q 181 250 128 250 q 263 216 233 250 q 292 119 292 182 q 263 23 292 57 q 181 -11 233 -11 z "},"!":{"ha":1042,"x_min":396,"x_max":646,"o":"m 442 1111 l 600 1111 l 600 319 l 442 319 l 442 1111 m 521 -8 q 428 19 461 -8 q 396 96 396 46 q 428 174 396 147 q 521 201 461 201 q 613 174 581 201 q 646 96 646 147 q 613 19 646 46 q 521 -8 581 -8 z "},"¡":{"ha":1042,"x_min":396,"x_max":646,"o":"m 600 -275 l 442 -275 l 442 517 l 600 517 l 600 -275 m 521 844 q 613 817 581 844 q 646 740 646 790 q 613 662 646 689 q 521 635 581 635 q 428 662 461 635 q 396 740 396 689 q 428 817 396 790 q 521 844 461 844 z "},"?":{"ha":1042,"x_min":150,"x_max":883,"o":"m 560 319 l 410 319 l 410 342 q 433 463 410 414 q 491 548 456 513 q 567 612 526 583 q 644 669 608 640 q 702 736 679 699 q 725 828 725 774 q 699 907 725 872 q 630 963 674 942 q 532 983 586 983 q 383 935 442 983 q 306 800 325 888 l 150 800 q 274 1047 171 961 q 535 1133 376 1133 q 715 1092 636 1133 q 838 983 793 1051 q 883 828 883 914 q 860 699 883 750 q 799 613 836 647 q 722 551 763 578 q 644 496 681 524 q 583 430 607 468 q 560 333 560 392 l 560 319 m 488 -8 q 395 19 428 -8 q 363 96 363 46 q 395 174 363 147 q 488 201 428 201 q 580 174 547 201 q 613 96 613 147 q 580 19 613 46 q 488 -8 547 -8 z "},"¿":{"ha":1042,"x_min":158,"x_max":892,"o":"m 482 517 l 632 517 l 632 494 q 609 373 632 422 q 551 288 586 324 q 474 224 515 253 q 398 167 433 196 q 340 100 363 138 q 317 8 317 63 q 342 -70 317 -35 q 412 -126 368 -106 q 510 -147 456 -147 q 659 -99 600 -147 q 736 36 718 -51 l 892 36 q 768 -210 871 -124 q 507 -297 665 -297 q 327 -256 406 -297 q 203 -146 249 -215 q 158 8 158 -76 q 182 138 158 86 q 242 224 206 189 q 320 285 279 258 q 398 340 361 313 q 458 406 435 368 q 482 503 482 444 l 482 517 m 554 844 q 647 817 614 844 q 679 740 679 790 q 647 662 679 689 q 554 635 614 635 q 462 662 494 635 q 429 740 429 689 q 462 817 429 790 q 554 844 494 844 z "},"·":{"ha":1042,"x_min":383,"x_max":658,"o":"m 521 425 q 419 459 456 425 q 383 556 383 493 q 419 652 383 618 q 521 686 456 686 q 622 652 586 686 q 658 556 658 618 q 622 459 658 493 q 521 425 586 425 z "},"•":{"ha":1042,"x_min":243,"x_max":799,"o":"m 521 208 q 315 281 388 208 q 243 486 243 353 q 315 692 243 619 q 521 764 388 764 q 726 692 654 764 q 799 486 799 619 q 726 281 799 353 q 521 208 654 208 z "},"*":{"ha":1042,"x_min":101,"x_max":940,"o":"m 697 93 l 500 410 l 521 476 l 590 475 l 832 190 l 697 93 m 344 93 l 210 190 l 451 475 l 521 476 l 542 410 l 344 93 m 464 436 l 101 525 l 153 683 l 499 542 l 521 476 l 464 436 m 521 476 l 465 518 l 438 890 l 604 890 l 576 518 l 521 476 m 578 436 l 521 476 l 543 542 l 889 683 l 940 525 l 578 436 z "},"#":{"ha":1042,"x_min":67,"x_max":975,"o":"m 539 1111 l 321 0 l 196 0 l 414 1111 l 539 1111 m 846 1111 l 628 0 l 503 0 l 721 1111 l 846 1111 m 142 833 l 975 833 l 975 700 l 142 700 l 142 833 m 67 411 l 900 411 l 900 278 l 67 278 l 67 411 z "},"/":{"ha":1042,"x_min":181,"x_max":861,"o":"m 861 1178 l 333 -236 l 181 -236 l 708 1178 l 861 1178 z "},"\\":{"ha":1042,"x_min":181,"x_max":861,"o":"m 181 1178 l 333 1178 l 861 -236 l 708 -236 l 181 1178 z "},"-":{"ha":1042,"x_min":97,"x_max":944,"o":"m 97 417 l 97 556 l 944 556 l 944 417 l 97 417 z "},"­":{"ha":1042,"x_min":97,"x_max":944,"o":"m 97 417 l 97 556 l 944 556 l 944 417 l 97 417 z "},"–":{"ha":1042,"x_min":97,"x_max":944,"o":"m 97 556 l 944 556 l 944 417 l 97 417 l 97 556 z "},"—":{"ha":1042,"x_min":56,"x_max":986,"o":"m 56 556 l 986 556 l 986 417 l 56 417 l 56 556 z "},"‑":{"ha":1042,"x_min":97,"x_max":944,"o":"m 97 417 l 97 556 l 944 556 l 944 417 l 97 417 z "},"_":{"ha":1042,"x_min":97,"x_max":944,"o":"m 97 -208 l 97 -69 l 944 -69 l 944 -208 l 97 -208 z "},"(":{"ha":1042,"x_min":319,"x_max":833,"o":"m 833 1139 q 563 929 654 1083 q 472 528 472 775 q 563 127 472 281 q 833 -83 654 -26 l 833 -222 q 549 -87 664 -185 q 377 164 435 10 q 319 528 319 318 q 377 892 319 738 q 549 1143 435 1046 q 833 1278 664 1240 l 833 1139 z "},")":{"ha":1042,"x_min":208,"x_max":722,"o":"m 208 1139 l 208 1278 q 492 1143 378 1240 q 665 892 607 1046 q 722 528 722 738 q 665 164 722 318 q 492 -87 607 10 q 208 -222 378 -185 l 208 -83 q 478 127 388 -26 q 569 528 569 281 q 478 929 569 775 q 208 1139 388 1083 z "},"{":{"ha":1042,"x_min":278,"x_max":875,"o":"m 875 1139 q 680 1088 740 1129 q 619 969 619 1047 q 633 874 619 919 q 647 767 647 828 q 594 624 647 686 q 453 542 540 563 l 453 528 l 278 528 l 278 600 q 447 660 394 617 q 500 783 500 704 q 486 878 500 835 q 472 969 472 922 q 571 1190 472 1118 q 875 1267 669 1263 l 875 1139 m 875 -83 l 875 -211 q 571 -134 669 -207 q 472 86 472 -61 q 486 178 472 135 q 500 272 500 221 q 447 395 500 351 q 278 456 394 439 l 278 528 l 453 528 l 453 514 q 594 431 540 493 q 647 289 647 369 q 633 183 647 229 q 619 86 619 136 q 680 -32 619 8 q 875 -83 740 -72 z "},"}":{"ha":1042,"x_min":167,"x_max":764,"o":"m 167 1139 l 167 1267 q 471 1190 372 1263 q 569 969 569 1118 q 556 878 569 922 q 542 783 542 835 q 594 660 542 704 q 764 600 647 617 l 764 528 l 589 528 l 589 542 q 448 624 501 563 q 394 767 394 686 q 408 874 394 828 q 422 969 422 919 q 362 1088 422 1047 q 167 1139 301 1129 m 167 -83 q 362 -32 301 -72 q 422 86 422 8 q 408 183 422 136 q 394 289 394 229 q 448 431 394 369 q 589 514 501 493 l 589 528 l 764 528 l 764 456 q 594 395 647 439 q 542 272 542 351 q 556 178 542 221 q 569 86 569 135 q 471 -134 569 -61 q 167 -211 372 -207 l 167 -83 z "},"[":{"ha":1042,"x_min":375,"x_max":833,"o":"m 833 1250 l 833 1111 l 525 1111 l 525 -56 l 833 -56 l 833 -194 l 375 -194 l 375 1250 l 833 1250 z "},"]":{"ha":1042,"x_min":208,"x_max":667,"o":"m 208 1250 l 667 1250 l 667 -194 l 208 -194 l 208 -56 l 517 -56 l 517 1111 l 208 1111 l 208 1250 z "},"‚":{"ha":1042,"x_min":364,"x_max":672,"o":"m 364 -250 q 462 -142 418 -211 q 521 0 506 -72 l 521 250 q 635 208 599 250 q 672 78 672 165 q 660 -44 672 18 q 628 -159 649 -106 q 581 -250 608 -212 l 364 -250 m 521 -11 q 419 23 456 -11 q 383 119 383 57 q 419 216 383 182 q 521 250 456 250 q 622 216 586 250 q 658 119 658 182 q 622 23 658 57 q 521 -11 586 -11 z "},"„":{"ha":1042,"x_min":151,"x_max":850,"o":"m 151 -250 q 249 -142 206 -211 q 308 0 293 -72 l 308 250 q 423 208 386 250 q 460 78 460 165 q 448 -44 460 18 q 416 -159 436 -106 q 368 -250 396 -212 l 151 -250 m 308 -11 q 207 23 243 -11 q 171 119 171 57 q 207 216 171 182 q 308 250 243 250 q 410 216 374 250 q 446 119 446 182 q 410 23 446 57 q 308 -11 374 -11 m 542 -250 q 640 -142 596 -211 q 699 0 683 -72 l 699 250 q 813 208 776 250 q 850 78 850 165 q 838 -44 850 18 q 806 -159 826 -106 q 758 -250 786 -212 l 542 -250 m 699 -11 q 597 23 633 -11 q 561 119 561 57 q 597 216 561 182 q 699 250 633 250 q 800 216 764 250 q 836 119 836 182 q 800 23 836 57 q 699 -11 764 -11 z "},"“":{"ha":1042,"x_min":192,"x_max":890,"o":"m 890 1178 q 792 1070 836 1139 q 733 928 749 1001 l 733 678 q 619 720 657 678 q 582 850 582 763 q 594 972 582 911 q 626 1088 606 1033 q 674 1178 647 1142 l 890 1178 m 733 939 q 835 905 799 939 q 871 808 871 871 q 835 712 871 746 q 733 678 799 678 q 632 712 668 678 q 596 808 596 746 q 632 905 596 871 q 733 939 668 939 m 500 1178 q 402 1070 446 1139 q 343 928 358 1001 l 343 678 q 229 720 267 678 q 192 850 192 763 q 203 972 192 911 q 236 1088 215 1033 q 283 1178 257 1142 l 500 1178 m 343 939 q 444 905 408 939 q 481 808 481 871 q 444 712 481 746 q 343 678 408 678 q 242 712 278 678 q 206 808 206 746 q 242 905 206 871 q 343 939 278 939 z "},"”":{"ha":1042,"x_min":151,"x_max":850,"o":"m 151 700 q 249 808 206 739 q 308 950 293 878 l 308 1200 q 423 1158 386 1200 q 460 1028 460 1115 q 448 906 460 968 q 416 791 436 844 q 368 700 396 738 l 151 700 m 308 939 q 207 973 243 939 q 171 1069 171 1007 q 207 1166 171 1132 q 308 1200 243 1200 q 410 1166 374 1200 q 446 1069 446 1132 q 410 973 446 1007 q 308 939 374 939 m 542 700 q 640 808 596 739 q 699 950 683 878 l 699 1200 q 813 1158 776 1200 q 850 1028 850 1115 q 838 906 850 968 q 806 791 826 844 q 758 700 786 738 l 542 700 m 699 939 q 597 973 633 939 q 561 1069 561 1007 q 597 1166 561 1132 q 699 1200 633 1200 q 800 1166 764 1200 q 836 1069 836 1132 q 800 973 836 1007 q 699 939 764 939 z "},"‘":{"ha":1042,"x_min":369,"x_max":678,"o":"m 678 1178 q 580 1070 624 1139 q 521 928 536 1001 l 521 678 q 407 720 444 678 q 369 850 369 763 q 381 972 369 911 q 414 1088 393 1033 q 461 1178 435 1142 l 678 1178 m 521 939 q 622 905 586 939 q 658 808 658 871 q 622 712 658 746 q 521 678 586 678 q 419 712 456 678 q 383 808 383 746 q 419 905 383 871 q 521 939 456 939 z "},"’":{"ha":1042,"x_min":364,"x_max":672,"o":"m 364 700 q 462 808 418 739 q 521 950 506 878 l 521 1200 q 635 1158 599 1200 q 672 1028 672 1115 q 660 906 672 968 q 628 791 649 844 q 581 700 608 738 l 364 700 m 521 939 q 419 973 456 939 q 383 1069 383 1007 q 419 1166 383 1132 q 521 1200 456 1200 q 622 1166 586 1200 q 658 1069 658 1132 q 622 973 658 1007 q 521 939 586 939 z "},"«":{"ha":1042,"x_min":215,"x_max":826,"o":"m 563 72 l 215 372 l 215 556 l 563 856 l 563 686 l 260 425 l 260 510 l 563 249 l 563 72 m 826 169 l 535 383 l 535 544 l 826 758 l 826 607 l 574 422 l 574 513 l 826 328 l 826 169 z "},"»":{"ha":1042,"x_min":215,"x_max":826,"o":"m 479 856 l 826 556 l 826 372 l 479 72 l 479 242 l 782 503 l 782 418 l 479 679 l 479 856 m 215 758 l 507 544 l 507 383 l 215 169 l 215 321 l 468 506 l 468 415 l 215 600 l 215 758 z "},"‹":{"ha":1042,"x_min":347,"x_max":694,"o":"m 694 72 l 347 372 l 347 556 l 694 856 l 694 686 l 392 425 l 392 510 l 694 249 l 694 72 z "},"›":{"ha":1042,"x_min":347,"x_max":694,"o":"m 347 856 l 694 556 l 694 372 l 347 72 l 347 242 l 650 503 l 650 418 l 347 679 l 347 856 z "},"\"":{"ha":1042,"x_min":267,"x_max":775,"o":"m 267 1178 l 439 1178 l 411 636 l 294 636 l 267 1178 m 603 1178 l 775 1178 l 747 636 l 631 636 l 603 1178 z "},"'":{"ha":1042,"x_min":435,"x_max":607,"o":"m 435 1178 l 607 1178 l 579 636 l 463 636 l 435 1178 z "},"ƒ":{"ha":1042,"x_min":250,"x_max":875,"o":"m 875 1178 l 875 1033 l 792 1033 q 648 990 699 1033 q 597 867 597 947 l 597 833 l 875 833 l 875 689 l 597 689 l 597 33 q 522 -197 597 -115 q 306 -278 446 -278 l 250 -278 l 250 -133 l 306 -133 q 408 -90 372 -133 q 444 33 444 -47 l 444 689 l 250 689 l 250 833 l 444 833 l 444 867 q 535 1097 444 1015 q 792 1178 625 1178 l 875 1178 z "},"@":{"ha":1042,"x_min":81,"x_max":931,"o":"m 583 -300 q 315 -213 428 -300 q 142 34 203 -126 q 81 417 81 194 q 140 799 81 639 q 308 1047 199 960 q 569 1133 418 1133 q 837 1029 743 1133 q 931 731 931 925 l 931 56 l 781 56 l 781 103 l 739 103 q 606 33 699 33 q 442 133 500 33 q 383 417 383 232 q 442 701 383 601 q 606 800 500 800 q 739 731 699 800 l 781 731 q 727 922 781 857 q 569 986 674 986 q 313 838 403 986 q 222 417 222 690 q 317 -15 222 136 q 583 -167 411 -167 q 687 -154 633 -167 q 781 -117 740 -142 l 781 -247 q 687 -287 740 -274 q 583 -300 633 -300 m 664 175 q 758 233 729 175 q 786 417 786 290 q 758 601 786 544 q 664 658 729 658 q 571 601 600 658 q 542 417 542 544 q 571 233 542 290 q 664 175 600 175 z "},"&":{"ha":1042,"x_min":114,"x_max":978,"o":"m 433 -22 q 269 17 342 -22 q 156 124 197 56 q 114 278 114 192 q 142 416 114 357 q 215 519 169 475 q 317 599 261 564 q 427 665 372 633 q 528 727 482 696 q 601 795 574 758 q 629 881 629 832 q 601 960 629 931 q 522 989 572 989 q 441 956 471 989 q 411 867 411 924 q 422 799 411 832 q 453 733 433 767 q 503 658 474 699 l 978 0 l 793 0 l 375 579 q 312 678 339 631 q 270 774 285 726 q 256 869 256 821 q 289 1008 256 949 q 383 1100 322 1067 q 522 1133 443 1133 q 655 1103 599 1133 q 742 1017 711 1072 q 774 886 774 961 q 747 763 774 815 q 675 670 719 711 q 577 596 631 629 q 469 531 524 563 q 371 463 415 499 q 299 385 326 428 q 272 283 272 342 q 293 202 272 238 q 351 147 314 167 q 439 128 389 128 q 605 175 538 128 q 715 317 672 222 q 781 550 757 411 l 933 550 q 869 316 913 421 q 760 135 825 211 q 614 19 696 60 q 433 -22 532 -22 z "},"¶":{"ha":1042,"x_min":117,"x_max":825,"o":"m 825 1111 l 825 -278 l 694 -278 l 694 1111 l 825 1111 m 117 722 l 117 806 q 151 963 117 894 q 244 1072 185 1032 q 378 1111 303 1111 l 536 1111 l 536 -278 l 406 -278 l 406 417 l 378 417 q 244 456 303 417 q 151 565 185 496 q 117 722 117 633 z "},"§":{"ha":1042,"x_min":165,"x_max":876,"o":"m 708 847 q 649 952 696 915 q 526 989 603 989 q 417 960 460 989 q 374 883 374 931 q 401 816 374 844 q 483 769 429 788 l 644 718 q 815 606 753 683 q 876 431 876 529 q 833 282 876 350 q 714 178 790 214 l 518 236 l 518 242 l 524 242 q 668 291 613 242 q 724 417 724 340 q 668 542 724 493 q 524 592 613 592 l 518 592 l 325 653 l 333 683 q 249 769 278 719 q 221 878 221 818 q 258 1012 221 954 q 365 1101 296 1069 q 526 1133 433 1133 q 757 1059 672 1133 q 850 847 842 985 l 708 847 m 333 -14 q 392 -119 346 -82 q 515 -156 439 -156 q 625 -126 582 -156 q 668 -50 668 -97 q 640 18 668 -10 q 558 64 613 46 l 397 115 q 227 227 289 150 q 165 403 165 304 q 208 552 165 485 q 328 656 251 619 l 524 597 l 524 592 l 518 592 q 374 542 429 592 q 318 417 318 493 q 374 291 318 340 q 518 242 429 242 l 524 242 l 717 181 l 708 150 q 792 66 764 115 q 821 -44 821 17 q 783 -178 821 -121 q 677 -268 746 -236 q 515 -300 608 -300 q 285 -226 369 -300 q 192 -14 200 -151 l 333 -14 z "},"©":{"ha":1042,"x_min":83,"x_max":958,"o":"m 521 28 q 288 92 386 28 q 136 274 189 156 q 83 556 83 392 q 136 838 83 719 q 288 1019 189 956 q 521 1083 386 1083 q 755 1019 657 1083 q 906 838 853 956 q 958 556 958 719 q 906 274 958 392 q 755 92 853 156 q 521 28 657 28 m 521 147 q 756 253 674 147 q 839 556 839 360 q 756 858 839 751 q 521 964 674 964 q 285 858 368 964 q 203 556 203 751 q 285 253 203 360 q 521 147 368 147 m 744 489 q 681 323 739 383 q 529 263 624 263 q 356 339 417 263 q 294 556 294 415 q 357 774 294 697 q 533 850 419 850 q 694 787 638 850 q 756 606 751 724 l 633 606 q 604 692 629 663 q 535 722 579 722 q 456 679 483 722 q 428 556 428 636 q 455 433 428 476 q 531 390 482 390 q 594 416 571 390 q 622 489 618 442 l 744 489 z "},"®":{"ha":1042,"x_min":201,"x_max":840,"o":"m 393 1024 l 544 1024 q 638 993 601 1024 q 674 914 674 963 q 638 837 674 867 q 544 807 601 807 l 485 807 l 485 690 l 393 690 l 393 1024 m 485 876 l 539 876 q 581 913 581 876 q 539 949 581 949 l 485 949 l 485 876 m 581 690 l 510 829 l 607 829 l 679 690 l 581 690 m 521 540 q 359 583 432 540 q 244 697 286 625 q 201 857 201 768 q 244 1017 201 946 q 359 1131 286 1089 q 521 1174 432 1174 q 683 1131 611 1174 q 798 1017 756 1089 q 840 857 840 946 q 798 697 840 768 q 683 583 756 625 q 521 540 611 540 m 521 618 q 641 650 588 618 q 726 736 694 682 q 757 857 757 790 q 726 978 757 924 q 641 1064 694 1032 q 521 1096 588 1096 q 401 1064 456 1096 q 316 978 347 1032 q 285 857 285 924 q 316 736 285 790 q 401 650 347 682 q 521 618 456 618 z "},"™":{"ha":1042,"x_min":81,"x_max":931,"o":"m 228 611 l 228 1017 l 81 1017 l 81 1111 l 475 1111 l 475 1017 l 328 1017 l 328 611 l 228 611 m 542 611 l 542 1111 l 699 1111 l 732 876 l 744 876 l 779 1111 l 931 1111 l 931 611 l 833 611 l 833 811 l 838 1006 l 825 1006 l 792 768 l 681 768 l 647 1006 l 635 1006 l 639 811 l 639 611 l 542 611 z "},"°":{"ha":1042,"x_min":268,"x_max":774,"o":"m 521 633 q 392 667 450 633 q 301 757 335 700 q 268 883 268 814 q 301 1010 268 954 q 392 1100 335 1067 q 521 1133 450 1133 q 649 1100 592 1133 q 740 1010 706 1067 q 774 883 774 954 q 740 757 774 814 q 649 667 706 700 q 521 633 592 633 m 521 767 q 578 782 553 767 q 619 824 604 797 q 635 883 635 851 q 619 943 635 917 q 578 985 604 969 q 521 1000 553 1000 q 463 985 489 1000 q 422 943 438 969 q 407 883 407 917 q 422 824 407 851 q 463 782 438 797 q 521 767 489 767 z "},"|":{"ha":1042,"x_min":456,"x_max":586,"o":"m 456 -83 l 456 1194 l 586 1194 l 586 -83 l 456 -83 z "},"¦":{"ha":1042,"x_min":456,"x_max":586,"o":"m 586 1194 l 586 681 l 456 681 l 456 1194 l 586 1194 m 586 431 l 586 -83 l 456 -83 l 456 431 l 586 431 z "},"†":{"ha":1042,"x_min":188,"x_max":854,"o":"m 446 -28 l 446 1139 l 596 1139 l 596 -28 l 446 -28 m 188 700 l 188 833 l 854 833 l 854 700 l 188 700 z "},"‡":{"ha":1042,"x_min":188,"x_max":854,"o":"m 446 -28 l 446 1139 l 596 1139 l 596 -28 l 446 -28 m 188 278 l 188 411 l 854 411 l 854 278 l 188 278 m 188 700 l 188 833 l 854 833 l 854 700 l 188 700 z "},"№":{"ha":1042,"x_min":100,"x_max":1014,"o":"m 100 0 l 100 1111 l 378 1111 l 492 153 l 506 153 l 500 347 l 500 1111 l 650 1111 l 650 0 l 372 0 l 258 958 l 244 958 l 250 764 l 250 0 l 100 0 m 854 654 q 763 679 799 654 q 711 758 728 704 q 694 894 694 811 q 711 1032 694 979 q 763 1110 728 1085 q 854 1135 799 1135 q 945 1110 910 1135 q 997 1032 981 1085 q 1014 894 1014 979 q 997 758 1014 811 q 945 679 981 704 q 854 654 910 654 m 854 763 q 886 789 878 763 q 894 894 894 815 q 886 1000 894 974 q 854 1026 878 1026 q 822 1000 831 1026 q 814 894 814 974 q 822 789 814 815 q 854 763 831 763 m 721 478 l 721 583 l 985 583 l 985 478 l 721 478 z "},"¢":{"ha":1042,"x_min":136,"x_max":936,"o":"m 482 -139 l 482 972 l 593 972 l 593 -139 l 482 -139 m 540 -22 q 328 32 419 -22 q 187 184 238 86 q 136 413 136 282 q 188 645 136 546 q 335 800 240 744 q 554 856 429 856 q 751 813 667 856 q 883 692 835 769 q 936 511 932 615 l 796 511 q 713 658 778 604 q 549 711 647 711 q 358 631 426 711 q 289 413 289 551 q 356 200 289 278 q 540 122 424 122 q 688 169 626 122 q 774 297 749 217 l 914 297 q 855 130 906 201 q 723 18 804 58 q 540 -22 642 -22 z "},"¤":{"ha":1042,"x_min":167,"x_max":875,"o":"m 521 194 q 374 234 440 194 q 269 340 308 274 q 229 486 229 406 q 269 633 229 567 q 374 738 308 699 q 521 778 440 778 q 667 738 601 778 q 773 633 733 699 q 813 486 813 567 q 773 340 813 406 q 667 234 733 274 q 521 194 601 194 m 246 132 l 167 211 l 285 329 l 364 250 l 246 132 m 521 319 q 605 342 567 319 q 665 403 643 365 q 688 486 688 440 q 665 570 688 532 q 605 631 643 608 q 521 653 567 653 q 438 631 475 653 q 377 570 400 608 q 354 486 354 532 q 377 403 354 440 q 438 342 400 365 q 521 319 475 319 m 285 643 l 167 761 l 246 840 l 364 722 l 285 643 m 796 132 l 678 250 l 757 329 l 875 211 l 796 132 m 757 643 l 678 722 l 796 840 l 875 761 l 757 643 z "},"$":{"ha":1042,"x_min":122,"x_max":947,"o":"m 478 -139 l 478 1250 l 589 1250 l 589 -139 l 478 -139 m 278 283 q 367 168 301 208 q 531 128 432 128 q 701 177 639 128 q 764 311 764 226 q 721 417 764 378 q 592 467 678 457 l 450 483 q 215 581 294 503 q 136 797 136 660 q 186 974 136 899 q 326 1091 236 1049 q 536 1133 417 1133 q 744 1093 654 1133 q 888 978 835 1053 q 947 800 940 904 l 794 800 q 705 935 772 888 q 536 983 638 983 q 357 933 422 983 q 292 797 292 883 q 335 692 292 731 q 464 642 379 653 l 606 625 q 841 528 763 607 q 919 311 919 449 q 871 136 919 211 q 735 19 822 61 q 531 -22 647 -22 q 323 15 413 -22 q 181 120 233 51 q 122 283 129 189 l 278 283 z "},"€":{"ha":1042,"x_min":56,"x_max":969,"o":"m 585 -22 q 285 124 390 -22 q 181 556 181 271 q 286 987 181 840 q 588 1133 392 1133 q 783 1087 700 1133 q 913 953 865 1040 q 969 744 961 867 l 819 744 q 746 920 806 857 q 588 983 686 983 q 396 878 458 983 q 333 556 333 774 q 395 233 333 338 q 585 128 457 128 q 723 183 668 128 q 792 339 778 239 l 942 339 q 888 145 933 226 q 766 21 843 64 q 585 -22 689 -22 m 56 386 l 56 514 l 681 514 l 681 386 l 56 386 m 56 625 l 56 753 l 681 753 l 681 625 l 56 625 z "},"₴":{"ha":1042,"x_min":89,"x_max":953,"o":"m 536 -22 q 339 11 422 -22 q 210 107 256 44 q 164 256 165 169 q 192 380 165 324 q 278 485 219 436 q 428 578 336 533 l 578 651 q 694 737 658 692 q 731 844 731 782 q 706 916 731 885 q 638 965 681 947 q 539 983 594 983 q 392 947 449 983 q 314 842 335 911 l 164 842 q 280 1058 182 982 q 539 1133 378 1133 q 721 1097 642 1133 q 846 999 800 1061 q 892 856 892 936 q 864 731 892 788 q 778 626 836 675 q 628 531 721 576 l 478 457 q 363 373 399 418 q 328 267 328 328 q 383 165 328 203 q 536 128 439 128 q 678 163 625 128 q 753 269 731 197 l 903 269 q 792 51 885 125 q 536 -22 699 -22 m 89 386 l 89 503 l 953 503 l 953 386 l 89 386 m 89 608 l 89 725 l 953 725 l 953 608 l 89 608 z "},"₽":{"ha":1042,"x_min":69,"x_max":975,"o":"m 228 1111 l 608 1111 q 804 1071 722 1111 q 931 956 886 1031 q 975 778 975 882 q 931 600 975 675 q 804 485 886 525 q 608 444 722 444 l 381 444 l 381 333 l 661 333 l 661 206 l 381 206 l 381 0 l 228 0 l 228 206 l 69 206 l 69 333 l 228 333 l 228 444 l 69 444 l 69 572 l 228 572 l 228 1111 m 381 586 l 614 586 q 760 636 707 586 q 814 772 814 686 q 760 908 814 858 q 614 958 707 958 l 381 958 l 381 586 z "},"£":{"ha":1042,"x_min":153,"x_max":972,"o":"m 153 0 l 153 231 q 288 283 243 242 q 333 397 333 325 q 319 492 333 450 q 285 577 304 535 q 251 671 265 619 q 236 792 236 722 q 282 974 236 897 q 409 1092 328 1050 q 597 1133 490 1133 q 865 1040 767 1133 q 972 772 963 946 l 819 772 q 747 931 803 879 q 597 983 692 983 q 448 933 504 983 q 392 800 392 882 q 406 698 392 743 q 440 610 421 653 q 474 521 460 568 q 489 411 489 474 q 440 245 489 307 q 292 167 390 183 l 292 150 l 917 150 l 917 0 l 153 0 m 153 444 l 153 578 l 764 578 l 764 444 l 153 444 z "},"¥":{"ha":1042,"x_min":60,"x_max":982,"o":"m 174 417 l 174 544 l 868 544 l 868 417 l 174 417 m 174 178 l 174 306 l 868 306 l 868 178 l 174 178 m 235 1111 l 504 657 l 518 617 l 532 617 l 546 657 l 819 1111 l 982 1111 l 600 483 l 600 0 l 442 0 l 442 483 l 60 1111 l 235 1111 z "},"+":{"ha":1042,"x_min":97,"x_max":944,"o":"m 451 63 l 451 417 l 97 417 l 97 556 l 451 556 l 451 910 l 590 910 l 590 556 l 944 556 l 944 417 l 590 417 l 590 63 l 451 63 z "},"−":{"ha":1042,"x_min":97,"x_max":944,"o":"m 97 417 l 97 556 l 944 556 l 944 417 l 97 417 z "},"×":{"ha":1042,"x_min":167,"x_max":875,"o":"m 258 132 l 167 224 l 429 486 l 167 749 l 258 840 l 521 578 l 783 840 l 875 749 l 613 486 l 875 224 l 783 132 l 521 394 l 258 132 z "},"÷":{"ha":1042,"x_min":97,"x_max":944,"o":"m 97 417 l 97 556 l 944 556 l 944 417 l 97 417 m 521 681 q 431 709 464 681 q 399 789 399 738 q 431 869 399 840 q 521 897 464 897 q 610 869 578 897 q 643 789 643 840 q 610 709 643 738 q 521 681 578 681 m 521 75 q 431 103 464 75 q 399 183 399 132 q 431 263 399 235 q 521 292 464 292 q 610 263 578 292 q 643 183 643 235 q 610 103 643 132 q 521 75 578 75 z "},"=":{"ha":1042,"x_min":125,"x_max":917,"o":"m 125 611 l 125 750 l 917 750 l 917 611 l 125 611 m 125 222 l 125 361 l 917 361 l 917 222 l 125 222 z "},"≠":{"ha":1042,"x_min":125,"x_max":917,"o":"m 671 958 l 813 958 l 371 14 l 229 14 l 671 958 m 125 611 l 125 750 l 917 750 l 917 611 l 125 611 m 125 222 l 125 361 l 917 361 l 917 222 l 125 222 z "},">":{"ha":1042,"x_min":167,"x_max":875,"o":"m 167 40 l 167 197 l 792 479 l 792 493 l 167 775 l 167 932 l 875 604 l 875 368 l 167 40 z "},"<":{"ha":1042,"x_min":167,"x_max":875,"o":"m 875 40 l 167 368 l 167 604 l 875 932 l 875 775 l 250 493 l 250 479 l 875 197 l 875 40 z "},"±":{"ha":1042,"x_min":97,"x_max":944,"o":"m 451 222 l 451 521 l 97 521 l 97 660 l 451 660 l 451 958 l 590 958 l 590 660 l 944 660 l 944 521 l 590 521 l 590 222 l 451 222 m 97 14 l 97 153 l 944 153 l 944 14 l 97 14 z "},"≈":{"ha":1042,"x_min":111,"x_max":931,"o":"m 708 506 q 606 524 650 506 q 526 571 561 543 q 461 626 492 599 q 400 673 431 654 q 333 692 369 692 q 273 663 297 692 q 242 581 249 633 l 111 581 q 183 760 124 694 q 333 825 243 825 q 436 806 392 825 q 515 760 481 788 q 581 704 550 732 q 642 658 611 676 q 708 639 672 639 q 769 669 744 639 q 800 750 794 699 l 931 750 q 858 571 918 636 q 708 506 799 506 m 708 147 q 606 166 650 147 q 526 213 561 185 q 461 268 492 240 q 400 315 431 296 q 333 333 369 333 q 273 304 297 333 q 242 222 249 275 l 111 222 q 183 401 124 336 q 333 467 243 467 q 436 448 392 467 q 515 401 481 429 q 581 346 550 374 q 642 299 611 318 q 708 281 672 281 q 769 310 744 281 q 800 392 794 340 l 931 392 q 858 213 918 278 q 708 147 799 147 z "},"~":{"ha":1042,"x_min":111,"x_max":931,"o":"m 708 326 q 606 345 650 326 q 526 392 561 364 q 461 447 492 419 q 400 494 431 475 q 333 513 369 513 q 273 483 297 513 q 242 401 249 454 l 111 401 q 183 581 124 515 q 333 646 243 646 q 436 627 392 646 q 515 581 481 608 q 581 525 550 553 q 642 478 611 497 q 708 460 672 460 q 769 490 744 460 q 800 571 794 519 l 931 571 q 858 392 918 457 q 708 326 799 326 z "},"¬":{"ha":1042,"x_min":97,"x_max":944,"o":"m 792 125 l 792 431 l 97 431 l 97 569 l 944 569 l 944 125 l 792 125 z "},"^":{"ha":1042,"x_min":175,"x_max":867,"o":"m 175 694 l 418 1133 l 624 1133 l 867 694 l 717 694 l 486 1121 l 556 1121 l 325 694 l 175 694 z "},"µ":{"ha":1042,"x_min":167,"x_max":875,"o":"m 472 -22 q 326 19 389 -22 q 229 136 264 61 q 194 311 194 211 l 319 353 q 372 183 319 243 q 521 122 424 122 q 670 183 618 122 q 722 353 722 243 l 722 833 l 875 833 l 875 0 l 722 0 l 722 69 l 703 69 q 606 2 665 26 q 472 -22 546 -22 m 167 -278 l 167 833 l 319 833 l 319 353 l 319 139 l 306 139 l 319 -278 l 167 -278 z "},"%":{"ha":1042,"x_min":69,"x_max":972,"o":"m 69 181 l 69 315 l 972 931 l 972 796 l 69 181 m 735 -22 q 569 44 628 -22 q 511 232 511 110 q 569 420 511 354 q 735 486 628 486 q 900 420 842 486 q 958 232 958 354 q 900 44 958 110 q 735 -22 842 -22 m 735 111 q 799 142 776 111 q 822 232 822 174 q 799 322 822 290 q 735 353 776 353 q 670 322 693 353 q 647 232 647 290 q 670 142 647 174 q 735 111 693 111 m 307 1133 q 472 1067 414 1133 q 531 879 531 1001 q 472 691 531 757 q 307 625 414 625 q 142 691 200 625 q 83 879 83 757 q 142 1067 83 1001 q 307 1133 200 1133 m 307 1000 q 242 969 265 1000 q 219 879 219 938 q 242 790 219 821 q 307 758 265 758 q 372 790 349 758 q 394 879 394 821 q 372 969 394 938 q 307 1000 349 1000 z "},"‰":{"ha":1042,"x_min":28,"x_max":1014,"o":"m 69 346 l 69 472 l 972 932 l 972 806 l 69 346 m 485 -22 q 340 40 392 -22 q 289 218 289 103 q 340 396 289 333 q 485 458 392 458 q 630 396 579 458 q 681 218 681 333 q 630 40 681 103 q 485 -22 579 -22 m 499 111 q 553 138 535 111 q 572 218 572 165 q 553 298 572 271 q 499 325 535 325 q 444 298 463 325 q 425 218 425 271 q 444 138 425 165 q 499 111 463 111 m 804 111 q 859 138 840 111 q 878 218 878 165 q 859 298 878 271 q 804 325 840 325 q 749 298 768 325 q 731 218 731 271 q 749 138 731 165 q 804 111 768 111 m 818 -22 q 674 40 725 -22 q 622 218 622 103 q 674 396 622 333 q 818 458 725 458 q 963 396 913 458 q 1014 218 1014 333 q 963 40 1014 103 q 818 -22 913 -22 m 238 653 q 82 715 136 653 q 28 893 28 778 q 82 1071 28 1008 q 238 1133 136 1133 q 393 1071 339 1133 q 447 893 447 1008 q 393 715 447 778 q 238 653 339 653 m 238 786 q 292 813 274 786 q 311 893 311 840 q 292 973 311 946 q 238 1000 274 1000 q 183 973 201 1000 q 164 893 164 946 q 183 813 164 840 q 238 786 201 786 z "},"↑":{"ha":1042,"x_min":74,"x_max":968,"o":"m 74 728 l 479 1133 l 563 1133 l 968 728 l 781 728 l 472 1042 l 569 1042 l 261 728 l 74 728 m 451 0 l 451 1069 l 590 1069 l 590 0 l 451 0 z "},"→":{"ha":1042,"x_min":28,"x_max":1014,"o":"m 608 53 l 608 240 l 922 549 l 922 451 l 608 760 l 608 947 l 1014 542 l 1014 458 l 608 53 m 28 431 l 28 569 l 950 569 l 950 431 l 28 431 z "},"↓":{"ha":1042,"x_min":74,"x_max":968,"o":"m 74 383 l 261 383 l 569 69 l 472 69 l 781 383 l 968 383 l 563 -22 l 479 -22 l 74 383 m 451 1111 l 590 1111 l 590 42 l 451 42 l 451 1111 z "},"←":{"ha":1042,"x_min":28,"x_max":1014,"o":"m 433 53 l 28 458 l 28 542 l 433 947 l 433 760 l 119 451 l 119 549 l 433 240 l 433 53 m 1014 431 l 92 431 l 92 569 l 1014 569 l 1014 431 z "},"̈":{"ha":0,"x_min":228,"x_max":814,"o":"m 339 972 q 258 999 288 972 q 228 1069 228 1025 q 258 1140 228 1114 q 339 1167 288 1167 q 421 1140 392 1167 q 450 1069 450 1114 q 421 999 450 1025 q 339 972 392 972 m 703 972 q 622 999 651 972 q 592 1069 592 1025 q 622 1140 592 1114 q 703 1167 651 1167 q 785 1140 756 1167 q 814 1069 814 1114 q 785 999 814 1025 q 703 972 756 972 z "},"̇":{"ha":0,"x_min":399,"x_max":643,"o":"m 521 961 q 431 990 464 961 q 399 1069 399 1018 q 431 1149 399 1121 q 521 1178 464 1178 q 610 1149 578 1178 q 643 1069 643 1121 q 610 990 643 1018 q 521 961 578 961 z "},"̀":{"ha":0,"x_min":310,"x_max":635,"o":"m 635 958 l 496 958 l 310 1167 l 490 1167 l 635 958 z "},"́":{"ha":0,"x_min":407,"x_max":732,"o":"m 407 958 l 551 1167 l 732 1167 l 546 958 l 407 958 z "},"̋":{"ha":0,"x_min":274,"x_max":910,"o":"m 274 958 l 404 1167 l 582 1167 l 410 958 l 274 958 m 549 958 l 721 1167 l 910 1167 l 696 958 l 549 958 z "},"̂":{"ha":0,"x_min":281,"x_max":761,"o":"m 281 958 l 425 1167 l 617 1167 l 761 958 l 622 958 l 475 1124 l 567 1124 l 419 958 l 281 958 z "},"̌":{"ha":0,"x_min":281,"x_max":761,"o":"m 761 1167 l 617 958 l 425 958 l 281 1167 l 419 1167 l 567 1001 l 475 1001 l 622 1167 l 761 1167 z "},"̆":{"ha":0,"x_min":268,"x_max":774,"o":"m 407 1153 q 440 1076 411 1101 q 521 1050 469 1050 q 602 1076 574 1050 q 635 1153 631 1101 l 774 1153 q 701 997 764 1050 q 521 944 638 944 q 341 997 404 944 q 268 1153 278 1050 l 407 1153 z "},"̊":{"ha":0,"x_min":340,"x_max":701,"o":"m 521 928 q 390 969 440 928 q 340 1076 340 1010 q 390 1184 340 1143 q 521 1225 440 1225 q 651 1184 601 1225 q 701 1076 701 1143 q 651 969 701 1010 q 521 928 601 928 m 521 1006 q 583 1026 560 1006 q 607 1076 607 1046 q 583 1128 607 1108 q 521 1147 560 1147 q 458 1128 482 1147 q 435 1076 435 1108 q 458 1026 435 1046 q 521 1006 482 1006 z "},"̃":{"ha":0,"x_min":260,"x_max":782,"o":"m 260 958 q 308 1113 269 1065 q 421 1161 346 1161 q 510 1144 476 1161 q 569 1109 544 1126 q 621 1092 593 1092 q 650 1110 640 1092 q 665 1167 660 1128 l 782 1167 q 734 1013 772 1061 q 621 964 696 964 q 531 981 565 964 q 473 1016 497 999 q 421 1033 449 1033 q 392 1016 403 1033 q 376 958 382 999 l 260 958 z "},"̄":{"ha":0,"x_min":285,"x_max":757,"o":"m 285 1000 l 285 1125 l 757 1125 l 757 1000 l 285 1000 z "}}}
